{"glyphs":{"0":{"ha":976,"x_min":0,"x_max":0,"o":"m 489 -17 b 946 529 744 -17 946 229 b 489 1069 946 826 744 1069 b 31 529 232 1069 31 826 b 489 -17 31 229 232 -17 z m 489 13 b 336 529 390 13 336 193 b 489 1040 336 861 390 1040 b 640 529 588 1040 640 861 b 489 13 640 193 588 13 z "},"1":{"ha":569,"x_min":0,"x_max":0,"o":"m 82 0 l 553 0 l 464 90 l 464 1069 l 19 929 l 171 860 l 171 90 z "},"2":{"ha":813,"x_min":0,"x_max":0,"o":"m 796 0 l 796 269 l 306 269 l 314 278 b 765 843 600 561 765 664 b 499 1069 765 976 656 1069 b 15 796 381 1069 15 957 b 117 689 15 733 57 689 b 267 981 272 689 194 921 b 329 1003 283 994 304 1003 b 469 779 414 1003 469 919 b 315 335 469 631 410 458 b 39 0 274 281 176 147 z "},"3":{"ha":896,"x_min":0,"x_max":0,"o":"m 465 -17 b 865 283 706 -17 865 107 b 494 563 865 449 718 563 b 368 550 451 563 404 558 b 783 876 542 628 783 710 b 540 1069 783 990 688 1069 b 57 796 422 1069 57 957 b 158 689 57 733 99 689 b 308 982 314 689 236 922 b 371 1004 325 996 346 1004 b 485 844 438 1004 485 938 b 246 504 485 717 382 574 b 372 519 297 514 326 519 b 561 286 488 519 561 422 b 374 32 561 128 488 32 b 288 49 342 32 307 38 b 122 343 214 90 288 343 b 24 243 63 343 24 301 b 465 -17 24 113 306 -17 z "},"4":{"ha":965,"x_min":0,"x_max":0,"o":"m 388 0 l 842 0 l 769 90 l 769 214 l 940 214 l 940 421 l 769 421 l 771 1097 l 22 214 l 478 214 l 476 90 z m 478 700 l 478 421 l 238 421 z "},"5":{"ha":885,"x_min":0,"x_max":0,"o":"m 456 -17 b 853 326 692 -17 853 124 b 482 649 853 510 703 649 b 165 549 368 649 251 610 l 193 772 l 776 772 l 776 1042 l 185 1042 l 129 503 b 367 583 213 556 296 583 b 554 325 479 583 556 478 b 371 31 554 150 479 31 b 289 46 340 31 303 38 b 126 349 217 89 296 349 b 25 243 64 349 25 308 b 456 -17 25 113 307 -17 z "},"6":{"ha":943,"x_min":0,"x_max":0,"o":"m 483 -17 b 908 332 736 -17 908 126 b 603 629 908 507 783 629 b 363 522 515 629 408 574 b 468 556 389 542 433 556 b 611 296 551 556 611 461 b 489 14 611 132 561 14 b 343 365 403 14 343 160 b 940 1097 343 694 558 965 b 36 382 401 1029 36 724 b 483 -17 36 139 211 -17 z "},"7":{"ha":836,"x_min":0,"x_max":0,"o":"m 410 0 l 825 1042 l 11 1042 l 11 772 l 689 772 l 36 0 z "},"8":{"ha":900,"x_min":0,"x_max":0,"o":"m 461 -17 b 869 276 693 -17 869 110 b 575 614 869 396 796 474 b 849 829 722 639 849 693 b 461 1069 849 967 682 1069 b 78 781 242 1069 78 946 b 300 467 78 644 192 543 b 31 232 132 421 31 335 b 461 -17 31 90 214 -17 z m 543 636 b 357 901 422 721 357 796 b 458 1040 357 985 400 1040 b 572 829 529 1040 572 963 b 543 636 572 757 560 681 z m 476 13 b 315 256 378 13 315 107 b 340 440 315 326 325 394 l 390 407 b 590 143 521 321 590 244 b 476 13 590 67 543 13 z "},"9":{"ha":928,"x_min":0,"x_max":0,"o":"m 54 -99 b 892 649 575 17 892 308 b 442 1069 892 897 707 1069 b 15 714 190 1069 15 924 b 342 401 15 529 149 401 b 568 494 431 401 522 439 b 479 475 554 483 508 475 b 314 746 369 475 314 586 b 442 1039 314 922 364 1039 b 586 635 519 1039 586 886 b 54 -99 586 283 389 43 z "},"\r":{"ha":833,"x_min":0,"x_max":0,"o":""}," ":{"ha":290,"x_min":0,"x_max":0,"o":""},"A":{"ha":1204,"x_min":0,"x_max":0,"o":"m 340 0 l 188 100 l 292 364 l 664 364 l 776 94 l 642 0 l 1196 0 l 1107 94 l 701 1057 l 371 997 l 451 865 l 144 97 l 8 0 z m 465 806 l 481 806 l 651 396 l 304 396 z "},"Á":{"ha":1204,"x_min":0,"x_max":0,"o":"m 886 1394 l 575 1394 l 494 1099 z m 340 0 l 188 100 l 292 364 l 664 364 l 776 94 l 642 0 l 1196 0 l 1107 94 l 701 1057 l 371 997 l 451 865 l 144 97 l 8 0 z m 465 806 l 481 806 l 651 396 l 304 396 z "},"Ă":{"ha":1204,"x_min":0,"x_max":0,"o":"m 579 1114 b 781 1394 701 1114 781 1225 b 579 1292 764 1333 681 1292 b 378 1394 475 1292 393 1333 b 579 1114 378 1225 457 1114 z m 340 0 l 188 100 l 292 364 l 664 364 l 776 94 l 642 0 l 1196 0 l 1107 94 l 701 1057 l 371 997 l 451 865 l 144 97 l 8 0 z m 465 806 l 481 806 l 651 396 l 304 396 z "},"Â":{"ha":1204,"x_min":0,"x_max":0,"o":"m 579 1183 l 832 1094 l 579 1404 l 326 1094 z m 340 0 l 188 100 l 292 364 l 664 364 l 776 94 l 642 0 l 1196 0 l 1107 94 l 701 1057 l 371 997 l 451 865 l 144 97 l 8 0 z m 465 806 l 481 806 l 651 396 l 304 396 z "},"Ä":{"ha":1204,"x_min":0,"x_max":0,"o":"m 529 1132 l 529 1368 l 289 1368 l 289 1132 z m 868 1132 l 868 1368 l 628 1368 l 628 1132 z m 340 0 l 188 100 l 292 364 l 664 364 l 776 94 l 642 0 l 1196 0 l 1107 94 l 701 1057 l 371 997 l 451 865 l 144 97 l 8 0 z m 465 806 l 481 806 l 651 396 l 304 396 z "},"À":{"ha":1204,"x_min":0,"x_max":0,"o":"m 583 1394 l 272 1394 l 664 1099 z m 340 0 l 188 100 l 292 364 l 664 364 l 776 94 l 642 0 l 1196 0 l 1107 94 l 701 1057 l 371 997 l 451 865 l 144 97 l 8 0 z m 465 806 l 481 806 l 651 396 l 304 396 z "},"Ā":{"ha":1204,"x_min":0,"x_max":0,"o":"m 824 1161 l 824 1283 l 333 1283 l 333 1161 z m 340 0 l 188 100 l 292 364 l 664 364 l 776 94 l 642 0 l 1196 0 l 1107 94 l 701 1057 l 371 997 l 451 865 l 144 97 l 8 0 z m 465 806 l 481 806 l 651 396 l 304 396 z "},"Ą":{"ha":1204,"x_min":0,"x_max":0,"o":"m 1053 -257 b 964 -161 999 -257 964 -218 b 1043 0 964 -110 996 -47 l 1196 0 l 1107 94 l 701 1057 l 371 997 l 451 865 l 144 97 l 8 0 l 340 0 l 188 100 l 292 364 l 664 364 l 776 94 l 642 0 l 983 0 l 993 -11 b 767 -246 882 -75 767 -149 b 921 -365 767 -317 829 -365 b 1142 -218 1029 -365 1110 -306 b 1053 -257 1118 -243 1092 -257 z m 465 806 l 481 806 l 651 396 l 304 396 z "},"Å":{"ha":1204,"x_min":0,"x_max":0,"o":"m 582 1083 b 747 1251 672 1083 747 1160 b 582 1414 747 1340 672 1414 b 411 1251 488 1414 411 1340 b 582 1083 411 1160 488 1083 z m 578 1158 b 489 1249 529 1158 489 1199 b 578 1339 489 1299 529 1339 b 669 1249 629 1339 669 1299 b 578 1158 669 1199 629 1158 z m 340 0 l 188 100 l 292 364 l 664 364 l 776 94 l 642 0 l 1196 0 l 1107 94 l 701 1057 l 371 997 l 451 865 l 144 97 l 8 0 z m 465 806 l 481 806 l 651 396 l 304 396 z "},"Ã":{"ha":1204,"x_min":0,"x_max":0,"o":"m 315 1104 b 425 1176 343 1147 388 1176 b 665 1132 504 1176 601 1132 b 838 1400 751 1132 810 1260 b 729 1324 815 1356 771 1324 b 508 1367 660 1324 558 1367 b 315 1104 438 1367 371 1254 z m 340 0 l 188 100 l 292 364 l 664 364 l 776 94 l 642 0 l 1196 0 l 1107 94 l 701 1057 l 371 997 l 451 865 l 144 97 l 8 0 z m 465 806 l 481 806 l 651 396 l 304 396 z "},"Æ":{"ha":1547,"x_min":0,"x_max":0,"o":"m 332 0 l 190 101 l 332 364 l 664 364 l 664 97 l 592 0 l 1493 0 l 1493 28 l 1525 394 l 1256 31 l 957 31 l 957 521 l 1107 521 l 1247 311 l 1247 760 l 1107 551 l 957 551 l 957 1011 l 1213 1011 l 1485 686 l 1447 1014 l 1447 1042 l 619 1042 l 619 978 l 143 96 l 8 0 z m 644 946 l 664 946 l 664 394 l 349 394 z "},"Ǽ":{"ha":1547,"x_min":0,"x_max":0,"o":"m 1389 1394 l 1078 1394 l 997 1099 z m 332 0 l 190 101 l 332 364 l 664 364 l 664 97 l 592 0 l 1493 0 l 1493 28 l 1525 394 l 1256 31 l 957 31 l 957 521 l 1107 521 l 1247 311 l 1247 760 l 1107 551 l 957 551 l 957 1011 l 1213 1011 l 1485 686 l 1447 1014 l 1447 1042 l 619 1042 l 619 978 l 143 96 l 8 0 z m 644 946 l 664 946 l 664 394 l 349 394 z "},"B":{"ha":1058,"x_min":0,"x_max":0,"o":"m 517 0 b 1032 279 832 0 1033 108 b 632 535 1031 417 879 511 l 632 554 b 990 789 867 576 990 664 b 511 1042 990 938 794 1042 l 17 1042 l 89 944 l 89 97 l 17 0 z m 382 1011 l 490 1011 b 692 790 610 1011 692 921 b 507 558 692 653 615 558 l 382 558 z m 382 528 l 507 528 b 728 283 656 528 728 406 b 503 31 728 157 653 31 l 382 31 z "},"C":{"ha":1086,"x_min":0,"x_max":0,"o":"m 638 -17 b 1014 56 765 -17 935 15 l 1014 81 l 1058 454 b 638 15 922 169 788 15 b 340 531 457 15 340 217 b 638 1038 340 839 457 1038 b 1047 628 788 1038 918 894 l 1010 974 l 1010 999 b 638 1069 931 1038 763 1069 b 26 531 299 1069 26 826 b 638 -17 26 229 299 -17 z "},"Ć":{"ha":1086,"x_min":0,"x_max":0,"o":"m 919 1394 l 608 1394 l 528 1099 z m 638 -17 b 1014 56 765 -17 935 15 l 1014 81 l 1058 454 b 638 15 922 169 788 15 b 340 531 457 15 340 217 b 638 1038 340 839 457 1038 b 1047 628 788 1038 918 894 l 1010 974 l 1010 999 b 638 1069 931 1038 763 1069 b 26 531 299 1069 26 826 b 638 -17 26 229 299 -17 z "},"Č":{"ha":1086,"x_min":0,"x_max":0,"o":"m 851 1378 l 613 1310 l 374 1378 l 613 1103 z m 638 -17 b 1014 56 765 -17 935 15 l 1014 81 l 1058 454 b 638 15 922 169 788 15 b 340 531 457 15 340 217 b 638 1038 340 839 457 1038 b 1047 628 788 1038 918 894 l 1010 974 l 1010 999 b 638 1069 931 1038 763 1069 b 26 531 299 1069 26 826 b 638 -17 26 229 299 -17 z "},"Ç":{"ha":1086,"x_min":0,"x_max":0,"o":"m 638 15 b 340 531 457 15 340 217 b 638 1038 340 839 457 1038 b 1047 628 788 1038 918 894 l 1010 974 l 1010 999 b 638 1069 931 1038 763 1069 b 26 531 299 1069 26 826 b 603 -15 26 240 281 0 l 463 -206 l 557 -269 b 583 -308 574 -281 583 -290 b 519 -368 583 -331 567 -354 b 765 -200 654 -367 765 -292 b 699 -99 765 -154 743 -125 l 622 -53 l 636 -17 l 638 -17 b 1014 56 765 -17 935 15 l 1014 81 l 1058 454 b 638 15 922 169 788 15 z "},"Ċ":{"ha":1086,"x_min":0,"x_max":0,"o":"m 747 1117 l 747 1389 l 478 1389 l 478 1117 z m 638 -17 b 1014 56 765 -17 935 15 l 1014 81 l 1058 454 b 638 15 922 169 788 15 b 340 531 457 15 340 217 b 638 1038 340 839 457 1038 b 1047 628 788 1038 918 894 l 1010 974 l 1010 999 b 638 1069 931 1038 763 1069 b 26 531 299 1069 26 826 b 638 -17 26 229 299 -17 z "},"D":{"ha":1138,"x_min":0,"x_max":0,"o":"m 475 0 b 1111 531 843 0 1111 228 b 475 1042 1111 822 843 1042 l 17 1042 l 89 944 l 89 97 l 17 0 z m 382 1011 l 458 1011 b 797 531 658 1011 797 814 b 457 31 797 236 658 31 l 382 31 z "},"Ð":{"ha":1138,"x_min":0,"x_max":0,"o":"m 475 0 b 1111 531 843 0 1111 228 b 475 1042 1111 822 843 1042 l 17 1042 l 89 944 l 89 554 l 17 554 l 17 526 l 89 526 l 89 97 l 17 0 z m 382 526 l 600 526 l 600 554 l 382 554 l 382 1011 l 458 1011 b 797 531 658 1011 797 814 b 457 31 797 236 658 31 l 382 31 z "},"Ď":{"ha":1138,"x_min":0,"x_max":0,"o":"m 738 1378 l 499 1310 l 260 1378 l 499 1103 z m 475 0 b 1111 531 843 0 1111 228 b 475 1042 1111 822 843 1042 l 17 1042 l 89 944 l 89 97 l 17 0 z m 382 1011 l 458 1011 b 797 531 658 1011 797 814 b 457 31 797 236 658 31 l 382 31 z "},"Đ":{"ha":1138,"x_min":0,"x_max":0,"o":"m 475 0 b 1111 531 843 0 1111 228 b 475 1042 1111 822 843 1042 l 17 1042 l 89 944 l 89 554 l 17 554 l 17 526 l 89 526 l 89 97 l 17 0 z m 382 526 l 600 526 l 600 554 l 382 554 l 382 1011 l 458 1011 b 797 531 658 1011 797 814 b 457 31 797 236 658 31 l 382 31 z "},"E":{"ha":972,"x_min":0,"x_max":0,"o":"m 918 0 l 918 28 l 950 394 l 681 31 l 382 31 l 382 521 l 532 521 l 672 311 l 672 760 l 532 551 l 382 551 l 382 1011 l 638 1011 l 910 686 l 872 1014 l 872 1042 l 17 1042 l 89 944 l 89 97 l 17 0 z "},"É":{"ha":972,"x_min":0,"x_max":0,"o":"m 783 1394 l 472 1394 l 392 1099 z m 918 0 l 918 28 l 950 394 l 681 31 l 382 31 l 382 521 l 532 521 l 672 311 l 672 760 l 532 551 l 382 551 l 382 1011 l 638 1011 l 910 686 l 872 1014 l 872 1042 l 17 1042 l 89 944 l 89 97 l 17 0 z "},"Ě":{"ha":972,"x_min":0,"x_max":0,"o":"m 715 1378 l 476 1310 l 238 1378 l 476 1103 z m 918 0 l 918 28 l 950 394 l 681 31 l 382 31 l 382 521 l 532 521 l 672 311 l 672 760 l 532 551 l 382 551 l 382 1011 l 638 1011 l 910 686 l 872 1014 l 872 1042 l 17 1042 l 89 944 l 89 97 l 17 0 z "},"Ê":{"ha":972,"x_min":0,"x_max":0,"o":"m 476 1183 l 729 1094 l 476 1404 l 224 1094 z m 918 0 l 918 28 l 950 394 l 681 31 l 382 31 l 382 521 l 532 521 l 672 311 l 672 760 l 532 551 l 382 551 l 382 1011 l 638 1011 l 910 686 l 872 1014 l 872 1042 l 17 1042 l 89 944 l 89 97 l 17 0 z "},"Ë":{"ha":972,"x_min":0,"x_max":0,"o":"m 426 1132 l 426 1368 l 186 1368 l 186 1132 z m 765 1132 l 765 1368 l 525 1368 l 525 1132 z m 918 0 l 918 28 l 950 394 l 681 31 l 382 31 l 382 521 l 532 521 l 672 311 l 672 760 l 532 551 l 382 551 l 382 1011 l 638 1011 l 910 686 l 872 1014 l 872 1042 l 17 1042 l 89 944 l 89 97 l 17 0 z "},"Ė":{"ha":972,"x_min":0,"x_max":0,"o":"m 611 1117 l 611 1389 l 342 1389 l 342 1117 z m 918 0 l 918 28 l 950 394 l 681 31 l 382 31 l 382 521 l 532 521 l 672 311 l 672 760 l 532 551 l 382 551 l 382 1011 l 638 1011 l 910 686 l 872 1014 l 872 1042 l 17 1042 l 89 944 l 89 97 l 17 0 z "},"È":{"ha":972,"x_min":0,"x_max":0,"o":"m 481 1394 l 169 1394 l 561 1099 z m 918 0 l 918 28 l 950 394 l 681 31 l 382 31 l 382 521 l 532 521 l 672 311 l 672 760 l 532 551 l 382 551 l 382 1011 l 638 1011 l 910 686 l 872 1014 l 872 1042 l 17 1042 l 89 944 l 89 97 l 17 0 z "},"Ē":{"ha":972,"x_min":0,"x_max":0,"o":"m 721 1161 l 721 1283 l 231 1283 l 231 1161 z m 918 0 l 918 28 l 950 394 l 681 31 l 382 31 l 382 521 l 532 521 l 672 311 l 672 760 l 532 551 l 382 551 l 382 1011 l 638 1011 l 910 686 l 872 1014 l 872 1042 l 17 1042 l 89 944 l 89 97 l 17 0 z "},"Ę":{"ha":972,"x_min":0,"x_max":0,"o":"m 382 31 l 382 521 l 532 521 l 672 311 l 672 760 l 532 551 l 382 551 l 382 1011 l 638 1011 l 910 686 l 872 1014 l 872 1042 l 17 1042 l 89 944 l 89 97 l 17 0 l 631 0 l 640 -12 b 415 -246 529 -75 415 -149 b 569 -365 415 -317 478 -365 b 790 -218 678 -365 758 -306 b 701 -257 767 -243 740 -257 b 613 -161 647 -257 613 -218 b 692 0 613 -110 644 -47 l 918 0 l 918 28 l 950 394 l 681 31 z "},"F":{"ha":954,"x_min":0,"x_max":0,"o":"m 17 0 l 465 0 l 382 90 l 382 521 l 547 521 l 688 311 l 688 760 l 547 551 l 382 551 l 382 1011 l 657 1011 l 938 678 l 900 1014 l 900 1042 l 17 1042 l 89 944 l 89 97 z "},"G":{"ha":1193,"x_min":0,"x_max":0,"o":"m 1114 438 l 1186 535 l 624 535 l 624 501 l 821 501 l 821 215 b 619 15 794 96 717 15 b 340 531 451 15 340 215 b 639 1038 340 839 458 1038 b 1049 628 804 1038 893 894 l 1011 983 l 1011 1008 b 639 1069 942 1043 776 1069 b 26 531 300 1069 26 826 b 611 -17 26 229 288 -17 b 943 65 732 -17 854 15 l 1114 -17 z "},"Ğ":{"ha":1193,"x_min":0,"x_max":0,"o":"m 639 1114 b 840 1394 761 1114 840 1225 b 639 1292 824 1333 740 1292 b 438 1394 535 1292 453 1333 b 639 1114 438 1225 517 1114 z m 1114 438 l 1186 535 l 624 535 l 624 501 l 821 501 l 821 215 b 619 15 794 96 717 15 b 340 531 451 15 340 215 b 639 1038 340 839 458 1038 b 1049 628 804 1038 893 894 l 1011 983 l 1011 1008 b 639 1069 942 1043 776 1069 b 26 531 300 1069 26 826 b 611 -17 26 229 288 -17 b 943 65 732 -17 854 15 l 1114 -17 z "},"Ģ":{"ha":1193,"x_min":0,"x_max":0,"o":"m 1114 438 l 1186 535 l 624 535 l 624 501 l 821 501 l 821 215 b 619 15 794 96 717 15 b 340 531 451 15 340 215 b 639 1038 340 839 458 1038 b 1049 628 804 1038 893 894 l 1011 983 l 1011 1008 b 639 1069 942 1043 776 1069 b 26 531 300 1069 26 826 b 611 -17 26 229 288 -17 b 943 65 732 -17 854 15 l 1114 -17 z m 650 -567 l 754 -318 l 754 -53 l 500 -53 l 500 -318 l 736 -318 l 410 -567 z "},"Ġ":{"ha":1193,"x_min":0,"x_max":0,"o":"m 774 1117 l 774 1389 l 504 1389 l 504 1117 z m 1114 438 l 1186 535 l 624 535 l 624 501 l 821 501 l 821 215 b 619 15 794 96 717 15 b 340 531 451 15 340 215 b 639 1038 340 839 458 1038 b 1049 628 804 1038 893 894 l 1011 983 l 1011 1008 b 639 1069 942 1043 776 1069 b 26 531 300 1069 26 826 b 611 -17 26 229 288 -17 b 943 65 732 -17 854 15 l 1114 -17 z "},"H":{"ha":1108,"x_min":0,"x_max":0,"o":"m 17 0 l 465 0 l 382 90 l 382 539 l 726 539 l 726 90 l 643 0 l 1092 0 l 1019 90 l 1019 951 l 1092 1042 l 643 1042 l 726 951 l 726 569 l 382 569 l 382 951 l 465 1042 l 17 1042 l 89 951 l 89 90 z "},"Ħ":{"ha":1108,"x_min":0,"x_max":0,"o":"m 17 0 l 465 0 l 382 90 l 382 539 l 726 539 l 726 90 l 643 0 l 1092 0 l 1019 90 l 1019 708 l 1088 708 l 1088 736 l 1019 736 l 1019 951 l 1092 1042 l 643 1042 l 726 951 l 726 736 l 382 736 l 382 951 l 465 1042 l 17 1042 l 89 951 l 89 736 l 21 736 l 21 708 l 89 708 l 89 90 z m 382 708 l 726 708 l 726 569 l 382 569 z "},"I":{"ha":471,"x_min":0,"x_max":0,"o":"m 17 0 l 454 0 l 382 90 l 382 951 l 454 1042 l 17 1042 l 89 951 l 89 90 z "},"Í":{"ha":471,"x_min":0,"x_max":0,"o":"m 543 1394 l 232 1394 l 151 1099 z m 17 0 l 454 0 l 382 90 l 382 951 l 454 1042 l 17 1042 l 89 951 l 89 90 z "},"Î":{"ha":471,"x_min":0,"x_max":0,"o":"m 236 1183 l 489 1094 l 236 1404 l -17 1094 z m 17 0 l 454 0 l 382 90 l 382 951 l 454 1042 l 17 1042 l 89 951 l 89 90 z "},"Ï":{"ha":471,"x_min":0,"x_max":0,"o":"m 186 1132 l 186 1368 l -54 1368 l -54 1132 z m 525 1132 l 525 1368 l 285 1368 l 285 1132 z m 17 0 l 454 0 l 382 90 l 382 951 l 454 1042 l 17 1042 l 89 951 l 89 90 z "},"Ì":{"ha":471,"x_min":0,"x_max":0,"o":"m 240 1394 l -71 1394 l 321 1099 z m 17 0 l 454 0 l 382 90 l 382 951 l 454 1042 l 17 1042 l 89 951 l 89 90 z "},"Ī":{"ha":471,"x_min":0,"x_max":0,"o":"m 481 1161 l 481 1283 l -10 1283 l -10 1161 z m 17 0 l 454 0 l 382 90 l 382 951 l 454 1042 l 17 1042 l 89 951 l 89 90 z "},"Į":{"ha":471,"x_min":0,"x_max":0,"o":"m 454 0 l 382 90 l 382 951 l 454 1042 l 17 1042 l 89 951 l 89 90 l 17 0 l 233 0 l 243 -12 b 19 -246 133 -75 19 -149 b 174 -365 19 -317 82 -365 b 394 -218 282 -365 363 -306 b 306 -257 371 -243 344 -257 b 217 -161 251 -257 217 -218 b 296 0 217 -110 249 -47 z "},"J":{"ha":472,"x_min":0,"x_max":0,"o":"m -6 -303 b 386 35 211 -303 386 -165 l 386 951 l 458 1042 l 15 1042 l 93 951 l 93 36 b 14 -274 93 -136 90 -274 b -189 -25 -85 -274 -44 -25 b -299 -136 -254 -25 -299 -71 b -6 -303 -299 -231 -190 -303 z "},"K":{"ha":1182,"x_min":0,"x_max":0,"o":"m 17 0 l 454 0 l 382 90 l 382 540 l 811 0 l 1190 0 l 625 688 l 1146 1042 l 836 1042 l 438 567 l 382 567 l 382 951 l 454 1042 l 17 1042 l 89 951 l 89 90 z "},"Ķ":{"ha":1182,"x_min":0,"x_max":0,"o":"m 17 0 l 454 0 l 382 90 l 382 540 l 811 0 l 1190 0 l 625 688 l 1146 1042 l 836 1042 l 438 567 l 382 567 l 382 951 l 454 1042 l 17 1042 l 89 951 l 89 90 z m 626 -567 l 731 -318 l 731 -53 l 476 -53 l 476 -318 l 713 -318 l 386 -567 z "},"L":{"ha":954,"x_min":0,"x_max":0,"o":"m 896 0 l 896 28 l 935 439 l 653 33 l 382 33 l 382 951 l 465 1042 l 17 1042 l 89 951 l 89 90 l 17 0 z "},"Ĺ":{"ha":954,"x_min":0,"x_max":0,"o":"m 542 1394 l 231 1394 l 150 1099 z m 896 0 l 896 28 l 935 439 l 653 33 l 382 33 l 382 951 l 465 1042 l 17 1042 l 89 951 l 89 90 l 17 0 z "},"Ľ":{"ha":954,"x_min":0,"x_max":0,"o":"m 896 0 l 896 28 l 935 439 l 653 33 l 382 33 l 382 951 l 465 1042 l 17 1042 l 89 951 l 89 90 l 17 0 z m 856 1042 l 519 624 l 578 1042 z "},"Ļ":{"ha":954,"x_min":0,"x_max":0,"o":"m 896 0 l 896 28 l 935 439 l 653 33 l 382 33 l 382 951 l 465 1042 l 17 1042 l 89 951 l 89 90 l 17 0 z m 538 -567 l 642 -318 l 642 -53 l 388 -53 l 388 -318 l 624 -318 l 297 -567 z "},"Ł":{"ha":969,"x_min":0,"x_max":0,"o":"m 911 0 l 911 28 l 950 439 l 668 33 l 397 33 l 397 633 l 543 750 l 500 750 l 397 668 l 397 951 l 481 1042 l 32 1042 l 104 951 l 104 433 l 17 364 l 60 364 l 104 400 l 104 90 l 32 0 z "},"M":{"ha":1410,"x_min":0,"x_max":0,"o":"m 1007 847 l 1028 847 l 1028 90 l 956 0 l 1393 0 l 1321 90 l 1321 951 l 1393 1042 l 1046 1042 l 774 376 l 753 376 l 435 1042 l 40 1042 l 138 924 l 138 97 l 15 0 l 299 0 l 176 97 l 176 847 l 193 847 l 626 -57 z "},"N":{"ha":1136,"x_min":0,"x_max":0,"o":"m 1000 944 l 1122 1042 l 839 1042 l 961 944 l 961 469 l 940 469 l 414 1057 l 19 1029 l 138 907 l 138 97 l 15 0 l 299 0 l 176 97 l 176 843 l 196 843 l 1000 -57 z "},"Ń":{"ha":1136,"x_min":0,"x_max":0,"o":"m 894 1394 l 583 1394 l 503 1099 z m 1000 944 l 1122 1042 l 839 1042 l 961 944 l 961 469 l 940 469 l 414 1057 l 19 1029 l 138 907 l 138 97 l 15 0 l 299 0 l 176 97 l 176 843 l 196 843 l 1000 -57 z "},"Ň":{"ha":1136,"x_min":0,"x_max":0,"o":"m 826 1378 l 588 1310 l 349 1378 l 588 1103 z m 1000 944 l 1122 1042 l 839 1042 l 961 944 l 961 469 l 940 469 l 414 1057 l 19 1029 l 138 907 l 138 97 l 15 0 l 299 0 l 176 97 l 176 843 l 196 843 l 1000 -57 z "},"Ņ":{"ha":1136,"x_min":0,"x_max":0,"o":"m 1000 944 l 1122 1042 l 839 1042 l 961 944 l 961 469 l 940 469 l 414 1057 l 19 1029 l 138 907 l 138 97 l 15 0 l 299 0 l 176 97 l 176 843 l 196 843 l 1000 -57 z m 610 -567 l 714 -318 l 714 -53 l 460 -53 l 460 -318 l 696 -318 l 369 -567 z "},"Ŋ":{"ha":1136,"x_min":0,"x_max":0,"o":"m 733 -283 b 1000 -57 896 -283 999 -196 l 1000 944 l 1122 1042 l 839 1042 l 961 944 l 961 469 l 940 469 l 414 1057 l 19 1029 l 138 907 l 138 97 l 15 0 l 299 0 l 176 97 l 176 843 l 196 843 l 961 -14 l 961 -32 b 804 -243 961 -157 897 -243 b 579 -21 711 -243 710 -21 b 474 -125 517 -21 474 -64 b 733 -283 474 -218 585 -283 z "},"Ñ":{"ha":1136,"x_min":0,"x_max":0,"o":"m 324 1104 b 433 1176 351 1147 396 1176 b 674 1132 513 1176 610 1132 b 846 1400 760 1132 818 1260 b 738 1324 824 1356 779 1324 b 517 1367 668 1324 567 1367 b 324 1104 446 1367 379 1254 z m 1000 944 l 1122 1042 l 839 1042 l 961 944 l 961 469 l 940 469 l 414 1057 l 19 1029 l 138 907 l 138 97 l 15 0 l 299 0 l 176 97 l 176 843 l 196 843 l 1000 -57 z "},"O":{"ha":1189,"x_min":0,"x_max":0,"o":"m 594 -17 b 1163 531 907 -17 1163 229 b 594 1069 1163 826 907 1069 b 26 531 282 1069 26 826 b 594 -17 26 229 282 -17 z m 594 15 b 338 531 415 15 338 185 b 594 1038 338 885 422 1038 b 851 531 774 1038 851 871 b 594 15 851 169 767 15 z "},"Ó":{"ha":1189,"x_min":0,"x_max":0,"o":"m 901 1394 l 590 1394 l 510 1099 z m 594 -17 b 1163 531 907 -17 1163 229 b 594 1069 1163 826 907 1069 b 26 531 282 1069 26 826 b 594 -17 26 229 282 -17 z m 594 15 b 338 531 415 15 338 185 b 594 1038 338 885 422 1038 b 851 531 774 1038 851 871 b 594 15 851 169 767 15 z "},"Ô":{"ha":1189,"x_min":0,"x_max":0,"o":"m 594 1183 l 847 1094 l 594 1404 l 342 1094 z m 594 -17 b 1163 531 907 -17 1163 229 b 594 1069 1163 826 907 1069 b 26 531 282 1069 26 826 b 594 -17 26 229 282 -17 z m 594 15 b 338 531 415 15 338 185 b 594 1038 338 885 422 1038 b 851 531 774 1038 851 871 b 594 15 851 169 767 15 z "},"Ö":{"ha":1189,"x_min":0,"x_max":0,"o":"m 544 1132 l 544 1368 l 304 1368 l 304 1132 z m 883 1132 l 883 1368 l 643 1368 l 643 1132 z m 594 -17 b 1163 531 907 -17 1163 229 b 594 1069 1163 826 907 1069 b 26 531 282 1069 26 826 b 594 -17 26 229 282 -17 z m 594 15 b 338 531 415 15 338 185 b 594 1038 338 885 422 1038 b 851 531 774 1038 851 871 b 594 15 851 169 767 15 z "},"Ò":{"ha":1189,"x_min":0,"x_max":0,"o":"m 599 1394 l 288 1394 l 679 1099 z m 594 -17 b 1163 531 907 -17 1163 229 b 594 1069 1163 826 907 1069 b 26 531 282 1069 26 826 b 594 -17 26 229 282 -17 z m 594 15 b 338 531 415 15 338 185 b 594 1038 338 885 422 1038 b 851 531 774 1038 851 871 b 594 15 851 169 767 15 z "},"Ő":{"ha":1189,"x_min":0,"x_max":0,"o":"m 976 1394 l 538 1394 l 457 1099 l 651 1282 l 599 1099 z m 594 1069 b 26 531 282 1069 26 826 b 594 -17 26 229 282 -17 b 1163 531 907 -17 1163 229 b 594 1069 1163 826 907 1069 z m 594 15 b 338 531 415 15 338 185 b 594 1038 338 885 422 1038 b 851 531 774 1038 851 871 b 594 15 851 169 767 15 z "},"Ō":{"ha":1189,"x_min":0,"x_max":0,"o":"m 839 1161 l 839 1283 l 349 1283 l 349 1161 z m 594 -17 b 1163 531 907 -17 1163 229 b 594 1069 1163 826 907 1069 b 26 531 282 1069 26 826 b 594 -17 26 229 282 -17 z m 594 15 b 338 531 415 15 338 185 b 594 1038 338 885 422 1038 b 851 531 774 1038 851 871 b 594 15 851 169 767 15 z "},"Ø":{"ha":1189,"x_min":0,"x_max":0,"o":"m 594 -17 b 1163 531 907 -17 1163 229 b 969 935 1163 690 1088 836 l 1061 1042 l 1021 1042 l 946 954 b 594 1069 849 1026 726 1069 b 26 531 282 1069 26 826 b 226 115 26 364 104 215 l 128 0 l 168 0 l 250 96 b 594 -17 346 25 465 -17 z m 358 269 b 338 531 344 342 338 428 b 594 1038 338 885 422 1038 b 825 813 714 1038 789 964 z m 594 15 b 367 232 478 15 404 88 l 833 775 b 851 531 846 707 851 625 b 594 15 851 169 767 15 z "},"Õ":{"ha":1189,"x_min":0,"x_max":0,"o":"m 331 1104 b 440 1176 358 1147 403 1176 b 681 1132 519 1176 617 1132 b 853 1400 767 1132 825 1260 b 744 1324 831 1356 786 1324 b 524 1367 675 1324 574 1367 b 331 1104 453 1367 386 1254 z m 594 -17 b 1163 531 907 -17 1163 229 b 594 1069 1163 826 907 1069 b 26 531 282 1069 26 826 b 594 -17 26 229 282 -17 z m 594 15 b 338 531 415 15 338 185 b 594 1038 338 885 422 1038 b 851 531 774 1038 851 871 b 594 15 851 169 767 15 z "},"Œ":{"ha":1585,"x_min":0,"x_max":0,"o":"m 1531 0 l 1531 25 l 1563 394 l 1265 31 l 994 31 l 994 521 l 1117 521 l 1285 311 l 1285 760 l 1117 551 l 994 551 l 994 1011 l 1222 1011 l 1522 686 l 1485 1014 l 1485 1042 l 685 1042 b 26 531 307 1040 26 821 b 685 0 26 229 307 1 z m 653 32 b 340 531 467 54 340 253 b 651 1011 340 797 467 989 l 701 944 l 701 97 z "},"P":{"ha":1000,"x_min":0,"x_max":0,"o":"m 17 0 l 465 0 l 382 90 l 382 428 l 479 428 b 976 743 772 428 976 557 b 479 1042 976 919 772 1042 l 17 1042 l 89 944 l 89 90 z m 382 1011 l 453 1011 b 676 743 585 1011 676 901 b 453 458 676 575 585 458 l 382 458 z "},"Þ":{"ha":1007,"x_min":0,"x_max":0,"o":"m 17 0 l 454 0 l 382 90 l 382 231 l 493 231 b 972 542 769 231 972 371 b 493 844 972 708 769 844 l 382 844 l 382 951 l 454 1042 l 17 1042 l 89 951 l 89 90 z m 382 817 l 467 817 b 676 542 590 817 676 704 b 467 258 676 375 590 258 l 382 258 z "},"Q":{"ha":1189,"x_min":0,"x_max":0,"o":"m 1211 -72 l 553 -35 l 553 -15 b 594 -17 567 -17 581 -17 b 1163 531 915 -17 1163 229 b 594 1069 1163 826 915 1069 b 26 531 274 1069 26 826 b 349 35 26 326 140 146 l 997 -310 z m 594 15 b 338 531 428 15 338 196 b 594 1038 338 860 428 1038 b 851 531 761 1038 851 860 b 594 15 851 196 761 15 z "},"R":{"ha":1097,"x_min":0,"x_max":0,"o":"m 17 0 l 454 0 l 382 90 l 382 507 l 750 0 l 1106 0 l 703 525 l 703 549 b 971 790 863 594 971 685 b 532 1042 971 935 790 1042 l 17 1042 l 89 944 l 89 90 z m 382 1011 l 488 1011 b 672 782 596 1011 672 917 b 460 542 672 640 585 542 l 382 542 z "},"Ŕ":{"ha":1097,"x_min":0,"x_max":0,"o":"m 797 1394 l 486 1394 l 406 1099 z m 17 0 l 454 0 l 382 90 l 382 507 l 750 0 l 1106 0 l 703 525 l 703 549 b 971 790 863 594 971 685 b 532 1042 971 935 790 1042 l 17 1042 l 89 944 l 89 90 z m 382 1011 l 488 1011 b 672 782 596 1011 672 917 b 460 542 672 640 585 542 l 382 542 z "},"Ř":{"ha":1097,"x_min":0,"x_max":0,"o":"m 729 1378 l 490 1310 l 251 1378 l 490 1103 z m 17 0 l 454 0 l 382 90 l 382 507 l 750 0 l 1106 0 l 703 525 l 703 549 b 971 790 863 594 971 685 b 532 1042 971 935 790 1042 l 17 1042 l 89 944 l 89 90 z m 382 1011 l 488 1011 b 672 782 596 1011 672 917 b 460 542 672 640 585 542 l 382 542 z "},"Ŗ":{"ha":1097,"x_min":0,"x_max":0,"o":"m 17 0 l 454 0 l 382 90 l 382 507 l 750 0 l 1106 0 l 703 525 l 703 549 b 971 790 863 594 971 685 b 532 1042 971 935 790 1042 l 17 1042 l 89 944 l 89 90 z m 382 1011 l 488 1011 b 672 782 596 1011 672 917 b 460 542 672 640 585 542 l 382 542 z m 631 -567 l 735 -318 l 735 -53 l 481 -53 l 481 -318 l 717 -318 l 390 -567 z "},"S":{"ha":860,"x_min":0,"x_max":0,"o":"m 440 -17 b 826 324 672 -17 826 128 b 235 886 826 713 235 639 b 404 1038 235 975 304 1038 b 804 661 542 1038 675 894 l 760 975 l 760 1003 b 449 1069 657 1049 554 1069 b 39 724 215 1069 39 924 b 629 157 39 346 629 433 b 472 15 629 74 565 15 b 28 431 294 15 139 189 l 78 56 l 78 28 b 440 -17 174 1 324 -17 z "},"Ś":{"ha":860,"x_min":0,"x_max":0,"o":"m 747 1394 l 436 1394 l 356 1099 z m 440 -17 b 826 324 672 -17 826 128 b 235 886 826 713 235 639 b 404 1038 235 975 304 1038 b 804 661 542 1038 675 894 l 760 975 l 760 1003 b 449 1069 657 1049 554 1069 b 39 724 215 1069 39 924 b 629 157 39 346 629 433 b 472 15 629 74 565 15 b 28 431 294 15 139 189 l 78 56 l 78 28 b 440 -17 174 1 324 -17 z "},"Š":{"ha":860,"x_min":0,"x_max":0,"o":"m 679 1378 l 440 1310 l 201 1378 l 440 1103 z m 440 -17 b 826 324 672 -17 826 128 b 235 886 826 713 235 639 b 404 1038 235 975 304 1038 b 804 661 542 1038 675 894 l 760 975 l 760 1003 b 449 1069 657 1049 554 1069 b 39 724 215 1069 39 924 b 629 157 39 346 629 433 b 472 15 629 74 565 15 b 28 431 294 15 139 189 l 78 56 l 78 28 b 440 -17 174 1 324 -17 z "},"Ş":{"ha":860,"x_min":0,"x_max":0,"o":"m 826 324 b 235 886 826 713 235 639 b 404 1038 235 975 304 1038 b 804 661 542 1038 675 894 l 760 975 l 760 1003 b 449 1069 657 1049 554 1069 b 39 724 215 1069 39 924 b 629 157 39 346 629 433 b 472 15 629 74 565 15 b 28 431 294 15 139 189 l 78 56 l 78 28 b 440 -17 174 1 324 -17 l 446 -17 l 307 -206 l 401 -269 b 428 -308 418 -281 428 -290 b 364 -368 428 -331 411 -354 b 610 -200 499 -367 610 -292 b 543 -99 610 -154 588 -125 l 467 -53 l 481 -15 b 826 324 690 0 826 139 z "},"Ș":{"ha":860,"x_min":0,"x_max":0,"o":"m 440 -17 b 826 324 672 -17 826 128 b 235 886 826 713 235 639 b 404 1038 235 975 304 1038 b 804 661 542 1038 675 894 l 760 975 l 760 1003 b 449 1069 657 1049 554 1069 b 39 724 215 1069 39 924 b 629 157 39 346 629 433 b 472 15 629 74 565 15 b 28 431 294 15 139 189 l 78 56 l 78 28 b 440 -17 174 1 324 -17 z m 496 -567 l 600 -318 l 600 -53 l 346 -53 l 346 -318 l 582 -318 l 256 -567 z "},"ẞ":{"ha":1190,"x_min":0,"x_max":0,"o":"m 1057 851 l 1121 917 l 992 957 b 589 1069 892 1024 729 1069 b 89 743 283 1069 89 936 l 89 90 l 17 0 l 381 0 l 381 724 b 579 1039 381 950 450 1039 b 767 897 654 1039 717 985 l 447 526 l 485 526 b 861 226 722 526 861 418 b 711 10 861 94 800 10 b 404 307 589 10 468 169 l 438 40 l 438 13 b 706 -17 513 -1 635 -17 b 1164 240 994 -17 1164 85 b 764 511 1164 381 1010 483 z "},"T":{"ha":1101,"x_min":0,"x_max":0,"o":"m 321 0 l 781 0 l 697 90 l 697 1011 l 786 1011 l 1082 654 l 1029 1014 l 1029 1042 l 72 1042 l 72 1014 l 19 654 l 314 1011 l 404 1011 l 404 90 z "},"Ŧ":{"ha":1101,"x_min":0,"x_max":0,"o":"m 321 0 l 781 0 l 697 90 l 697 525 l 922 525 l 922 554 l 697 554 l 697 1011 l 786 1011 l 1082 654 l 1029 1014 l 1029 1042 l 72 1042 l 72 1014 l 19 654 l 314 1011 l 404 1011 l 404 554 l 181 554 l 181 525 l 404 525 l 404 90 z "},"Ť":{"ha":1101,"x_min":0,"x_max":0,"o":"m 789 1378 l 550 1310 l 311 1378 l 550 1103 z m 321 0 l 781 0 l 697 90 l 697 1011 l 786 1011 l 1082 654 l 1029 1014 l 1029 1042 l 72 1042 l 72 1014 l 19 654 l 314 1011 l 404 1011 l 404 90 z "},"Ţ":{"ha":1101,"x_min":0,"x_max":0,"o":"m 1082 654 l 1029 1014 l 1029 1042 l 72 1042 l 72 1014 l 19 654 l 314 1011 l 404 1011 l 404 90 l 321 0 l 536 0 l 385 -206 l 479 -269 b 506 -308 496 -281 506 -290 b 442 -368 506 -331 489 -354 b 688 -200 576 -367 688 -292 b 621 -99 688 -154 665 -125 l 544 -53 l 564 0 l 781 0 l 697 90 l 697 1011 l 786 1011 z "},"Ț":{"ha":1101,"x_min":0,"x_max":0,"o":"m 321 0 l 781 0 l 697 90 l 697 1011 l 786 1011 l 1082 654 l 1029 1014 l 1029 1042 l 72 1042 l 72 1014 l 19 654 l 314 1011 l 404 1011 l 404 90 z m 574 -567 l 678 -318 l 678 -53 l 424 -53 l 424 -318 l 660 -318 l 333 -567 z "},"U":{"ha":1039,"x_min":0,"x_max":0,"o":"m 494 -17 b 910 331 739 -17 910 126 l 908 944 l 1031 1042 l 747 1042 l 869 944 l 871 356 b 626 132 871 214 772 132 b 376 361 479 132 376 217 l 374 944 l 446 1042 l 8 1042 l 81 944 l 81 315 b 494 -17 81 119 250 -17 z "},"Ú":{"ha":1039,"x_min":0,"x_max":0,"o":"m 860 1394 l 549 1394 l 468 1099 z m 494 -17 b 910 331 739 -17 910 126 l 908 944 l 1031 1042 l 747 1042 l 869 944 l 871 356 b 626 132 871 214 772 132 b 376 361 479 132 376 217 l 374 944 l 446 1042 l 8 1042 l 81 944 l 81 315 b 494 -17 81 119 250 -17 z "},"Û":{"ha":1039,"x_min":0,"x_max":0,"o":"m 553 1183 l 806 1094 l 553 1404 l 300 1094 z m 494 -17 b 910 331 739 -17 910 126 l 908 944 l 1031 1042 l 747 1042 l 869 944 l 871 356 b 626 132 871 214 772 132 b 376 361 479 132 376 217 l 374 944 l 446 1042 l 8 1042 l 81 944 l 81 315 b 494 -17 81 119 250 -17 z "},"Ü":{"ha":1039,"x_min":0,"x_max":0,"o":"m 503 1132 l 503 1368 l 263 1368 l 263 1132 z m 842 1132 l 842 1368 l 601 1368 l 601 1132 z m 494 -17 b 910 331 739 -17 910 126 l 908 944 l 1031 1042 l 747 1042 l 869 944 l 871 356 b 626 132 871 214 772 132 b 376 361 479 132 376 217 l 374 944 l 446 1042 l 8 1042 l 81 944 l 81 315 b 494 -17 81 119 250 -17 z "},"Ù":{"ha":1039,"x_min":0,"x_max":0,"o":"m 557 1394 l 246 1394 l 638 1099 z m 494 -17 b 910 331 739 -17 910 126 l 908 944 l 1031 1042 l 747 1042 l 869 944 l 871 356 b 626 132 871 214 772 132 b 376 361 479 132 376 217 l 374 944 l 446 1042 l 8 1042 l 81 944 l 81 315 b 494 -17 81 119 250 -17 z "},"Ű":{"ha":1039,"x_min":0,"x_max":0,"o":"m 935 1394 l 496 1394 l 415 1099 l 610 1282 l 557 1099 z m 1031 1042 l 747 1042 l 869 944 l 871 356 b 626 132 871 214 772 132 b 376 361 479 132 376 217 l 374 944 l 446 1042 l 8 1042 l 81 944 l 81 315 b 494 -17 81 119 250 -17 b 910 331 739 -17 910 126 l 908 944 z "},"Ū":{"ha":1039,"x_min":0,"x_max":0,"o":"m 797 1161 l 797 1283 l 307 1283 l 307 1161 z m 494 -17 b 910 331 739 -17 910 126 l 908 944 l 1031 1042 l 747 1042 l 869 944 l 871 356 b 626 132 871 214 772 132 b 376 361 479 132 376 217 l 374 944 l 446 1042 l 8 1042 l 81 944 l 81 315 b 494 -17 81 119 250 -17 z "},"Ų":{"ha":1039,"x_min":0,"x_max":0,"o":"m 1031 1042 l 747 1042 l 869 944 l 871 356 b 626 132 871 214 772 132 b 376 361 479 132 376 217 l 374 944 l 446 1042 l 8 1042 l 81 944 l 81 315 b 494 -17 81 119 250 -17 b 622 -3 540 -17 583 -11 l 629 -11 b 403 -246 517 -75 403 -149 b 557 -365 403 -317 465 -365 b 778 -218 665 -365 746 -306 b 689 -257 754 -243 728 -257 b 600 -161 635 -257 600 -218 b 708 28 600 -99 647 -22 b 910 331 833 85 910 194 l 908 944 z "},"Ů":{"ha":1039,"x_min":0,"x_max":0,"o":"m 556 1083 b 721 1251 646 1083 721 1160 b 556 1414 721 1340 646 1414 b 385 1251 461 1414 385 1340 b 556 1083 385 1160 461 1083 z m 551 1158 b 463 1249 503 1158 463 1199 b 551 1339 463 1299 503 1339 b 643 1249 603 1339 643 1299 b 551 1158 643 1199 603 1158 z m 494 -17 b 910 331 739 -17 910 126 l 908 944 l 1031 1042 l 747 1042 l 869 944 l 871 356 b 626 132 871 214 772 132 b 376 361 479 132 376 217 l 374 944 l 446 1042 l 8 1042 l 81 944 l 81 315 b 494 -17 81 119 250 -17 z "},"V":{"ha":1174,"x_min":0,"x_max":0,"o":"m 1025 940 l 1165 1042 l 842 1042 l 983 942 l 749 376 l 726 376 l 450 942 l 586 1042 l 10 1042 l 111 940 l 604 -58 z "},"W":{"ha":1758,"x_min":0,"x_max":0,"o":"m 879 619 l 1206 -58 l 1615 942 l 1750 1042 l 1426 1042 l 1572 940 l 1346 382 l 1324 382 l 1060 940 l 1199 1042 l 610 1042 l 726 938 l 857 667 l 746 382 l 725 382 l 449 942 l 557 1042 l 10 1042 l 113 939 l 613 -58 z "},"Ẃ":{"ha":1758,"x_min":0,"x_max":0,"o":"m 1204 1394 l 893 1394 l 813 1099 z m 879 619 l 1206 -58 l 1615 942 l 1750 1042 l 1426 1042 l 1572 940 l 1346 382 l 1324 382 l 1060 940 l 1199 1042 l 610 1042 l 726 938 l 857 667 l 746 382 l 725 382 l 449 942 l 557 1042 l 10 1042 l 113 939 l 613 -58 z "},"Ŵ":{"ha":1758,"x_min":0,"x_max":0,"o":"m 897 1183 l 1150 1094 l 897 1404 l 644 1094 z m 879 619 l 1206 -58 l 1615 942 l 1750 1042 l 1426 1042 l 1572 940 l 1346 382 l 1324 382 l 1060 940 l 1199 1042 l 610 1042 l 726 938 l 857 667 l 746 382 l 725 382 l 449 942 l 557 1042 l 10 1042 l 113 939 l 613 -58 z "},"Ẅ":{"ha":1758,"x_min":0,"x_max":0,"o":"m 847 1132 l 847 1368 l 607 1368 l 607 1132 z m 1186 1132 l 1186 1368 l 946 1368 l 946 1132 z m 879 619 l 1206 -58 l 1615 942 l 1750 1042 l 1426 1042 l 1572 940 l 1346 382 l 1324 382 l 1060 940 l 1199 1042 l 610 1042 l 726 938 l 857 667 l 746 382 l 725 382 l 449 942 l 557 1042 l 10 1042 l 113 939 l 613 -58 z "},"Ẁ":{"ha":1758,"x_min":0,"x_max":0,"o":"m 901 1394 l 590 1394 l 982 1099 z m 879 619 l 1206 -58 l 1615 942 l 1750 1042 l 1426 1042 l 1572 940 l 1346 382 l 1324 382 l 1060 940 l 1199 1042 l 610 1042 l 726 938 l 857 667 l 746 382 l 725 382 l 449 942 l 557 1042 l 10 1042 l 113 939 l 613 -58 z "},"X":{"ha":1167,"x_min":0,"x_max":0,"o":"m 331 0 l 192 100 l 457 418 l 481 418 l 694 100 l 556 0 l 1161 0 l 1046 107 l 710 606 l 975 942 l 1114 1042 l 790 1042 l 932 942 l 704 649 l 681 649 l 483 942 l 621 1042 l 18 1042 l 129 939 l 453 460 l 150 101 l 7 0 z "},"Y":{"ha":1108,"x_min":0,"x_max":0,"o":"m 346 0 l 783 0 l 711 90 l 711 479 l 958 939 l 1100 1042 l 776 1042 l 921 940 l 701 526 l 678 526 l 447 940 l 586 1042 l 10 1042 l 110 942 l 418 401 l 418 90 z "},"Ý":{"ha":1108,"x_min":0,"x_max":0,"o":"m 911 1394 l 600 1394 l 519 1099 z m 346 0 l 783 0 l 711 90 l 711 479 l 958 939 l 1100 1042 l 776 1042 l 921 940 l 701 526 l 678 526 l 447 940 l 586 1042 l 10 1042 l 110 942 l 418 401 l 418 90 z "},"Ŷ":{"ha":1108,"x_min":0,"x_max":0,"o":"m 604 1183 l 857 1094 l 604 1404 l 351 1094 z m 346 0 l 783 0 l 711 90 l 711 479 l 958 939 l 1100 1042 l 776 1042 l 921 940 l 701 526 l 678 526 l 447 940 l 586 1042 l 10 1042 l 110 942 l 418 401 l 418 90 z "},"Ÿ":{"ha":1108,"x_min":0,"x_max":0,"o":"m 554 1132 l 554 1368 l 314 1368 l 314 1132 z m 893 1132 l 893 1368 l 653 1368 l 653 1132 z m 346 0 l 783 0 l 711 90 l 711 479 l 958 939 l 1100 1042 l 776 1042 l 921 940 l 701 526 l 678 526 l 447 940 l 586 1042 l 10 1042 l 110 942 l 418 401 l 418 90 z "},"Ỳ":{"ha":1108,"x_min":0,"x_max":0,"o":"m 608 1394 l 297 1394 l 689 1099 z m 346 0 l 783 0 l 711 90 l 711 479 l 958 939 l 1100 1042 l 776 1042 l 921 940 l 701 526 l 678 526 l 447 940 l 586 1042 l 10 1042 l 110 942 l 418 401 l 418 90 z "},"Z":{"ha":942,"x_min":0,"x_max":0,"o":"m 869 0 l 869 26 l 925 386 l 636 31 l 364 31 l 911 1042 l 90 1042 l 90 1014 l 38 665 l 325 1011 l 567 1011 l 19 0 z "},"Ź":{"ha":942,"x_min":0,"x_max":0,"o":"m 772 1394 l 461 1394 l 381 1099 z m 869 0 l 869 26 l 925 386 l 636 31 l 364 31 l 911 1042 l 90 1042 l 90 1014 l 38 665 l 325 1011 l 567 1011 l 19 0 z "},"Ž":{"ha":942,"x_min":0,"x_max":0,"o":"m 704 1378 l 465 1310 l 226 1378 l 465 1103 z m 869 0 l 869 26 l 925 386 l 636 31 l 364 31 l 911 1042 l 90 1042 l 90 1014 l 38 665 l 325 1011 l 567 1011 l 19 0 z "},"Ż":{"ha":942,"x_min":0,"x_max":0,"o":"m 600 1117 l 600 1389 l 331 1389 l 331 1117 z m 869 0 l 869 26 l 925 386 l 636 31 l 364 31 l 911 1042 l 90 1042 l 90 1014 l 38 665 l 325 1011 l 567 1011 l 19 0 z "},"a":{"ha":831,"x_min":0,"x_max":0,"o":"m 197 -17 b 465 119 285 -17 388 38 l 465 -17 l 821 107 l 746 158 l 746 525 b 490 750 746 658 640 750 b 26 476 383 750 26 638 b 129 369 26 414 68 369 b 286 668 283 369 215 608 b 349 690 303 682 324 690 b 465 519 415 690 465 626 l 465 451 b 28 133 286 363 28 268 b 197 -17 28 47 100 -17 z m 393 114 b 301 225 339 114 301 160 b 465 425 301 319 361 375 l 465 153 b 393 114 447 131 424 114 z "},"á":{"ha":831,"x_min":0,"x_max":0,"o":"m 650 1131 l 357 1131 l 304 807 z m 197 -17 b 465 119 285 -17 388 38 l 465 -17 l 821 107 l 746 158 l 746 525 b 490 750 746 658 640 750 b 26 476 383 750 26 638 b 129 369 26 414 68 369 b 286 668 283 369 215 608 b 349 690 303 682 324 690 b 465 519 415 690 465 626 l 465 451 b 28 133 286 363 28 268 b 197 -17 28 47 100 -17 z m 393 114 b 301 225 339 114 301 160 b 465 425 301 319 361 375 l 465 153 b 393 114 447 131 424 114 z "},"ă":{"ha":831,"x_min":0,"x_max":0,"o":"m 386 822 b 588 1103 508 822 588 933 b 386 1000 571 1042 488 1000 b 185 1103 282 1000 200 1042 b 386 822 185 933 264 822 z m 197 -17 b 465 119 285 -17 388 38 l 465 -17 l 821 107 l 746 158 l 746 525 b 490 750 746 658 640 750 b 26 476 383 750 26 638 b 129 369 26 414 68 369 b 286 668 283 369 215 608 b 349 690 303 682 324 690 b 465 519 415 690 465 626 l 465 451 b 28 133 286 363 28 268 b 197 -17 28 47 100 -17 z m 393 114 b 301 225 339 114 301 160 b 465 425 301 319 361 375 l 465 153 b 393 114 447 131 424 114 z "},"â":{"ha":831,"x_min":0,"x_max":0,"o":"m 389 892 l 642 803 l 389 1113 l 136 803 z m 197 -17 b 465 119 285 -17 388 38 l 465 -17 l 821 107 l 746 158 l 746 525 b 490 750 746 658 640 750 b 26 476 383 750 26 638 b 129 369 26 414 68 369 b 286 668 283 369 215 608 b 349 690 303 682 324 690 b 465 519 415 690 465 626 l 465 451 b 28 133 286 363 28 268 b 197 -17 28 47 100 -17 z m 393 114 b 301 225 339 114 301 160 b 465 425 301 319 361 375 l 465 153 b 393 114 447 131 424 114 z "},"ä":{"ha":831,"x_min":0,"x_max":0,"o":"m 339 840 l 339 1076 l 99 1076 l 99 840 z m 678 840 l 678 1076 l 438 1076 l 438 840 z m 197 -17 b 465 119 285 -17 388 38 l 465 -17 l 821 107 l 746 158 l 746 525 b 490 750 746 658 640 750 b 26 476 383 750 26 638 b 129 369 26 414 68 369 b 286 668 283 369 215 608 b 349 690 303 682 324 690 b 465 519 415 690 465 626 l 465 451 b 28 133 286 363 28 268 b 197 -17 28 47 100 -17 z m 393 114 b 301 225 339 114 301 160 b 465 425 301 319 361 375 l 465 153 b 393 114 447 131 424 114 z "},"à":{"ha":831,"x_min":0,"x_max":0,"o":"m 421 1131 l 128 1131 l 474 807 z m 197 -17 b 465 119 285 -17 388 38 l 465 -17 l 821 107 l 746 158 l 746 525 b 490 750 746 658 640 750 b 26 476 383 750 26 638 b 129 369 26 414 68 369 b 286 668 283 369 215 608 b 349 690 303 682 324 690 b 465 519 415 690 465 626 l 465 451 b 28 133 286 363 28 268 b 197 -17 28 47 100 -17 z m 393 114 b 301 225 339 114 301 160 b 465 425 301 319 361 375 l 465 153 b 393 114 447 131 424 114 z "},"ā":{"ha":831,"x_min":0,"x_max":0,"o":"m 592 869 l 592 992 l 185 992 l 185 869 z m 197 -17 b 465 119 285 -17 388 38 l 465 -17 l 821 107 l 746 158 l 746 525 b 490 750 746 658 640 750 b 26 476 383 750 26 638 b 129 369 26 414 68 369 b 286 668 283 369 215 608 b 349 690 303 682 324 690 b 465 519 415 690 465 626 l 465 451 b 28 133 286 363 28 268 b 197 -17 28 47 100 -17 z m 393 114 b 301 225 339 114 301 160 b 465 425 301 319 361 375 l 465 153 b 393 114 447 131 424 114 z "},"ą":{"ha":831,"x_min":0,"x_max":0,"o":"m 517 -257 b 428 -161 463 -257 428 -218 b 503 -4 428 -111 458 -50 l 821 107 l 746 158 l 746 525 b 490 750 746 658 640 750 b 26 476 383 750 26 638 b 129 369 26 414 68 369 b 286 668 283 369 215 608 b 349 690 303 682 324 690 b 465 519 415 690 465 626 l 465 451 b 28 133 286 363 28 268 b 197 -17 28 47 100 -17 b 465 119 285 -17 388 38 l 465 -7 b 231 -246 351 -71 231 -146 b 385 -365 231 -317 293 -365 b 606 -218 493 -365 574 -306 b 517 -257 582 -243 556 -257 z m 393 114 b 301 225 339 114 301 160 b 465 425 301 319 361 375 l 465 153 b 393 114 447 131 424 114 z "},"å":{"ha":831,"x_min":0,"x_max":0,"o":"m 390 792 b 556 960 481 792 556 868 b 390 1122 556 1049 481 1122 b 219 960 296 1122 219 1049 b 390 792 219 868 296 792 z m 388 867 b 299 957 339 867 299 907 b 388 1047 299 1007 339 1047 b 479 957 439 1047 479 1007 b 388 867 479 907 439 867 z m 197 -17 b 465 119 285 -17 388 38 l 465 -17 l 821 107 l 746 158 l 746 525 b 490 750 746 658 640 750 b 26 476 383 750 26 638 b 129 369 26 414 68 369 b 286 668 283 369 215 608 b 349 690 303 682 324 690 b 465 519 415 690 465 626 l 465 451 b 28 133 286 363 28 268 b 197 -17 28 47 100 -17 z m 393 114 b 301 225 339 114 301 160 b 465 425 301 319 361 375 l 465 153 b 393 114 447 131 424 114 z "},"ã":{"ha":831,"x_min":0,"x_max":0,"o":"m 125 813 b 235 885 153 856 197 885 b 475 840 314 885 411 840 b 647 1108 561 840 619 968 b 539 1032 625 1064 581 1032 b 318 1075 469 1032 368 1075 b 125 813 247 1075 181 963 z m 197 -17 b 465 119 285 -17 388 38 l 465 -17 l 821 107 l 746 158 l 746 525 b 490 750 746 658 640 750 b 26 476 383 750 26 638 b 129 369 26 414 68 369 b 286 668 283 369 215 608 b 349 690 303 682 324 690 b 465 519 415 690 465 626 l 465 451 b 28 133 286 363 28 268 b 197 -17 28 47 100 -17 z m 393 114 b 301 225 339 114 301 160 b 465 425 301 319 361 375 l 465 153 b 393 114 447 131 424 114 z "},"æ":{"ha":1294,"x_min":0,"x_max":0,"o":"m 190 -17 b 586 233 274 -17 310 4 b 929 -17 626 82 756 -17 b 1278 364 1122 -17 1258 132 b 1072 178 1243 240 1179 178 b 850 458 938 178 850 297 l 850 463 l 1251 463 l 1251 478 b 944 750 1251 639 1125 750 b 703 661 849 750 765 718 b 493 750 658 717 583 750 b 29 476 386 750 29 638 b 131 369 29 414 71 369 b 289 669 290 369 218 610 b 351 692 306 683 326 692 b 468 519 418 692 468 628 l 468 464 b 26 131 289 375 26 254 b 190 -17 26 47 97 -17 z m 850 488 b 944 725 854 633 892 725 b 1017 561 990 725 1017 661 b 964 488 1017 521 1007 488 z m 396 132 b 308 240 346 132 308 179 b 468 438 308 319 364 388 l 468 171 b 396 132 447 146 424 132 z "},"ǽ":{"ha":1294,"x_min":0,"x_max":0,"o":"m 971 1131 l 678 1131 l 625 807 z m 190 -17 b 586 233 274 -17 310 4 b 929 -17 626 82 756 -17 b 1278 364 1122 -17 1258 132 b 1072 178 1243 240 1179 178 b 850 458 938 178 850 297 l 850 463 l 1251 463 l 1251 478 b 944 750 1251 639 1125 750 b 703 661 849 750 765 718 b 493 750 658 717 583 750 b 29 476 386 750 29 638 b 131 369 29 414 71 369 b 289 669 290 369 218 610 b 351 692 306 683 326 692 b 468 519 418 692 468 628 l 468 464 b 26 131 289 375 26 254 b 190 -17 26 47 97 -17 z m 850 488 b 944 725 854 633 892 725 b 1017 561 990 725 1017 661 b 964 488 1017 521 1007 488 z m 396 132 b 308 240 346 132 308 179 b 468 438 308 319 364 388 l 468 171 b 396 132 447 146 424 132 z "},"b":{"ha":915,"x_min":0,"x_max":0,"o":"m 221 56 b 474 -17 290 11 383 -17 b 896 404 735 -17 896 150 b 593 750 896 610 771 750 b 356 622 536 750 432 676 l 356 1179 l -1 1042 l 71 988 l 71 -17 z m 472 10 b 356 246 401 10 356 93 l 356 599 b 438 622 388 614 418 622 b 599 313 522 622 599 494 b 472 10 599 135 551 8 z "},"c":{"ha":743,"x_min":0,"x_max":0,"o":"m 381 -17 b 729 364 574 -17 710 132 b 524 178 694 240 631 178 b 301 475 389 178 301 297 b 406 725 301 614 342 725 b 597 457 518 725 422 457 b 694 561 653 457 694 503 b 406 750 694 667 571 750 b 24 346 188 750 24 585 b 381 -17 24 125 169 -17 z "},"ć":{"ha":743,"x_min":0,"x_max":0,"o":"m 651 1131 l 358 1131 l 306 807 z m 381 -17 b 729 364 574 -17 710 132 b 524 178 694 240 631 178 b 301 475 389 178 301 297 b 406 725 301 614 342 725 b 597 457 518 725 422 457 b 694 561 653 457 694 503 b 406 750 694 667 571 750 b 24 346 188 750 24 585 b 381 -17 24 125 169 -17 z "},"č":{"ha":743,"x_min":0,"x_max":0,"o":"m 643 1113 l 390 1024 l 138 1113 l 390 803 z m 381 -17 b 729 364 574 -17 710 132 b 524 178 694 240 631 178 b 301 475 389 178 301 297 b 406 725 301 614 342 725 b 597 457 518 725 422 457 b 694 561 653 457 694 503 b 406 750 694 667 571 750 b 24 346 188 750 24 585 b 381 -17 24 125 169 -17 z "},"ç":{"ha":743,"x_min":0,"x_max":0,"o":"m 729 364 b 524 178 694 240 631 178 b 301 475 389 178 301 297 b 406 725 301 614 342 725 b 597 457 518 725 422 457 b 694 561 653 457 694 503 b 406 750 694 667 571 750 b 24 346 188 750 24 585 b 356 -15 24 135 158 -6 l 215 -206 l 310 -269 b 336 -308 326 -281 336 -290 b 272 -368 336 -331 319 -354 b 518 -200 407 -367 518 -292 b 451 -99 518 -154 496 -125 l 375 -53 l 389 -17 b 729 364 578 -12 710 135 z "},"ċ":{"ha":743,"x_min":0,"x_max":0,"o":"m 525 829 l 525 1101 l 256 1101 l 256 829 z m 381 -17 b 729 364 574 -17 710 132 b 524 178 694 240 631 178 b 301 475 389 178 301 297 b 406 725 301 614 342 725 b 597 457 518 725 422 457 b 694 561 653 457 694 503 b 406 750 694 667 571 750 b 24 346 188 750 24 585 b 381 -17 24 125 169 -17 z "},"d":{"ha":929,"x_min":0,"x_max":0,"o":"m 308 -17 b 558 110 375 -17 482 56 l 558 -17 l 918 108 l 843 161 l 843 1179 l 486 1042 l 561 986 l 560 731 b 411 750 514 743 464 750 b 19 340 181 750 19 593 b 308 -17 19 129 138 -17 z m 465 103 b 315 429 376 103 315 232 b 449 721 315 610 364 721 b 560 515 517 721 560 632 l 558 131 b 465 103 522 113 490 103 z "},"ð":{"ha":914,"x_min":0,"x_max":0,"o":"m 444 -17 b 890 428 707 -17 890 157 b 568 982 890 622 782 819 l 758 1078 l 758 1108 l 543 1000 b 74 1228 419 1090 263 1168 b 397 928 222 1140 322 1036 l 132 794 l 132 764 l 413 904 b 508 728 450 846 482 786 b 400 750 474 744 438 750 b 19 388 147 750 17 583 b 444 -17 19 144 193 -17 z m 442 13 b 317 379 363 13 317 149 b 486 711 325 592 378 711 b 518 706 499 711 510 710 b 585 365 563 603 585 497 b 442 13 585 154 532 13 z "},"ď":{"ha":944,"x_min":0,"x_max":0,"o":"m 308 -17 b 558 110 375 -17 482 56 l 558 -17 l 918 108 l 843 161 l 843 1179 l 486 1042 l 561 986 l 560 731 b 411 750 514 743 464 750 b 19 340 181 750 19 593 b 308 -17 19 129 138 -17 z m 1199 1179 l 878 789 l 921 1179 z m 465 103 b 315 429 376 103 315 232 b 449 721 315 610 364 721 b 560 515 517 721 560 632 l 558 131 b 465 103 522 113 490 103 z "},"đ":{"ha":929,"x_min":0,"x_max":0,"o":"m 308 -17 b 558 110 375 -17 482 56 l 558 -17 l 918 108 l 843 161 l 843 836 l 918 836 l 918 864 l 843 864 l 843 1179 l 486 1042 l 561 986 l 561 864 l 354 864 l 354 836 l 560 836 l 560 731 b 411 750 514 743 464 750 b 19 340 181 750 19 593 b 308 -17 19 129 138 -17 z m 465 103 b 315 429 376 103 315 232 b 449 721 315 610 364 721 b 560 515 517 721 560 632 l 558 131 b 465 103 522 113 490 103 z "},"e":{"ha":746,"x_min":0,"x_max":0,"o":"m 381 -17 b 729 364 574 -17 710 132 b 524 178 694 240 631 178 b 301 458 389 178 301 297 l 301 463 l 703 463 l 703 478 b 396 750 703 639 576 750 b 24 340 176 750 24 579 b 381 -17 24 129 169 -17 z m 301 488 b 396 725 306 633 343 725 b 468 561 442 725 468 661 b 415 488 468 521 458 488 z "},"é":{"ha":746,"x_min":0,"x_max":0,"o":"m 639 1131 l 346 1131 l 293 807 z m 381 -17 b 729 364 574 -17 710 132 b 524 178 694 240 631 178 b 301 458 389 178 301 297 l 301 463 l 703 463 l 703 478 b 396 750 703 639 576 750 b 24 340 176 750 24 579 b 381 -17 24 129 169 -17 z m 301 488 b 396 725 306 633 343 725 b 468 561 442 725 468 661 b 415 488 468 521 458 488 z "},"ě":{"ha":746,"x_min":0,"x_max":0,"o":"m 631 1113 l 378 1024 l 125 1113 l 378 803 z m 381 -17 b 729 364 574 -17 710 132 b 524 178 694 240 631 178 b 301 458 389 178 301 297 l 301 463 l 703 463 l 703 478 b 396 750 703 639 576 750 b 24 340 176 750 24 579 b 381 -17 24 129 169 -17 z m 301 488 b 396 725 306 633 343 725 b 468 561 442 725 468 661 b 415 488 468 521 458 488 z "},"ê":{"ha":746,"x_min":0,"x_max":0,"o":"m 378 892 l 631 803 l 378 1113 l 125 803 z m 381 -17 b 729 364 574 -17 710 132 b 524 178 694 240 631 178 b 301 458 389 178 301 297 l 301 463 l 703 463 l 703 478 b 396 750 703 639 576 750 b 24 340 176 750 24 579 b 381 -17 24 129 169 -17 z m 301 488 b 396 725 306 633 343 725 b 468 561 442 725 468 661 b 415 488 468 521 458 488 z "},"ë":{"ha":746,"x_min":0,"x_max":0,"o":"m 328 840 l 328 1076 l 88 1076 l 88 840 z m 667 840 l 667 1076 l 426 1076 l 426 840 z m 381 -17 b 729 364 574 -17 710 132 b 524 178 694 240 631 178 b 301 458 389 178 301 297 l 301 463 l 703 463 l 703 478 b 396 750 703 639 576 750 b 24 340 176 750 24 579 b 381 -17 24 129 169 -17 z m 301 488 b 396 725 306 633 343 725 b 468 561 442 725 468 661 b 415 488 468 521 458 488 z "},"ė":{"ha":746,"x_min":0,"x_max":0,"o":"m 513 829 l 513 1101 l 243 1101 l 243 829 z m 381 -17 b 729 364 574 -17 710 132 b 524 178 694 240 631 178 b 301 458 389 178 301 297 l 301 463 l 703 463 l 703 478 b 396 750 703 639 576 750 b 24 340 176 750 24 579 b 381 -17 24 129 169 -17 z m 301 488 b 396 725 306 633 343 725 b 468 561 442 725 468 661 b 415 488 468 521 458 488 z "},"è":{"ha":746,"x_min":0,"x_max":0,"o":"m 410 1131 l 117 1131 l 463 807 z m 381 -17 b 729 364 574 -17 710 132 b 524 178 694 240 631 178 b 301 458 389 178 301 297 l 301 463 l 703 463 l 703 478 b 396 750 703 639 576 750 b 24 340 176 750 24 579 b 381 -17 24 129 169 -17 z m 301 488 b 396 725 306 633 343 725 b 468 561 442 725 468 661 b 415 488 468 521 458 488 z "},"ē":{"ha":746,"x_min":0,"x_max":0,"o":"m 581 869 l 581 992 l 174 992 l 174 869 z m 381 -17 b 729 364 574 -17 710 132 b 524 178 694 240 631 178 b 301 458 389 178 301 297 l 301 463 l 703 463 l 703 478 b 396 750 703 639 576 750 b 24 340 176 750 24 579 b 381 -17 24 129 169 -17 z m 301 488 b 396 725 306 633 343 725 b 468 561 442 725 468 661 b 415 488 468 521 458 488 z "},"ę":{"ha":746,"x_min":0,"x_max":0,"o":"m 526 -257 b 438 -161 472 -257 438 -218 b 544 26 438 -100 483 -22 b 729 364 649 86 715 206 b 524 178 694 240 631 178 b 301 458 389 178 301 297 l 301 463 l 703 463 l 703 478 b 396 750 703 639 576 750 b 24 340 176 750 24 579 b 381 -17 24 129 169 -17 b 439 -12 401 -17 421 -15 l 447 -22 b 240 -246 343 -83 240 -154 b 394 -365 240 -317 303 -365 b 615 -218 503 -365 583 -306 b 526 -257 592 -243 565 -257 z m 396 725 b 468 561 442 725 468 661 b 415 488 468 521 458 488 l 301 488 b 396 725 306 633 343 725 z "},"f":{"ha":558,"x_min":0,"x_max":0,"o":"m 65 0 l 474 0 l 407 69 l 407 636 l 581 636 l 581 708 l 407 708 l 407 829 b 519 1138 407 1029 425 1138 b 746 892 649 1138 574 892 b 847 999 806 892 847 938 b 542 1167 847 1108 715 1167 b 121 836 293 1167 121 1032 l 121 747 l 17 657 l 121 600 l 121 69 z "},"g":{"ha":819,"x_min":0,"x_max":0,"o":"m 274 -397 b 811 -15 526 -397 811 -211 b 632 126 811 79 738 126 l 239 126 b 181 169 203 126 181 142 b 222 240 181 190 196 215 b 401 200 274 214 335 200 b 733 472 592 200 733 317 b 676 633 733 533 713 589 l 815 633 l 815 706 l 644 706 b 401 750 572 706 507 750 b 68 472 211 750 68 632 b 201 251 68 379 119 300 b 36 29 94 169 36 107 b 151 -108 36 -36 79 -85 l 151 -121 b -25 -247 64 -139 -25 -182 b 274 -397 -25 -332 103 -397 z m 401 225 b 328 472 350 225 328 307 b 401 725 328 649 351 725 b 472 472 451 725 472 642 b 401 225 472 299 449 225 z m 435 -268 b 178 -169 278 -271 178 -232 b 250 -122 178 -140 203 -122 l 642 -122 b 721 -156 701 -122 721 -131 b 435 -268 721 -211 600 -265 z "},"ğ":{"ha":819,"x_min":0,"x_max":0,"o":"m 399 822 b 600 1103 521 822 600 933 b 399 1000 583 1042 500 1000 b 197 1103 294 1000 213 1042 b 399 822 197 933 276 822 z m 274 -397 b 811 -15 526 -397 811 -211 b 632 126 811 79 738 126 l 239 126 b 181 169 203 126 181 142 b 222 240 181 190 196 215 b 401 200 274 214 335 200 b 733 472 592 200 733 317 b 676 633 733 533 713 589 l 815 633 l 815 706 l 644 706 b 401 750 572 706 507 750 b 68 472 211 750 68 632 b 201 251 68 379 119 300 b 36 29 94 169 36 107 b 151 -108 36 -36 79 -85 l 151 -121 b -25 -247 64 -139 -25 -182 b 274 -397 -25 -332 103 -397 z m 401 225 b 328 472 350 225 328 307 b 401 725 328 649 351 725 b 472 472 451 725 472 642 b 401 225 472 299 449 225 z m 435 -268 b 178 -169 278 -271 178 -232 b 250 -122 178 -140 203 -122 l 642 -122 b 721 -156 701 -122 721 -131 b 435 -268 721 -211 600 -265 z "},"ģ":{"ha":819,"x_min":0,"x_max":0,"o":"m 542 804 l 542 1069 l 292 1069 l 618 1318 l 378 1318 l 274 1056 l 274 804 z m 274 -397 b 811 -15 526 -397 811 -211 b 632 126 811 79 738 126 l 239 126 b 181 169 203 126 181 142 b 222 240 181 190 196 215 b 401 200 274 214 335 200 b 733 472 592 200 733 317 b 676 633 733 533 713 589 l 815 633 l 815 706 l 644 706 b 401 750 572 706 507 750 b 68 472 211 750 68 632 b 201 251 68 379 119 300 b 36 29 94 169 36 107 b 151 -108 36 -36 79 -85 l 151 -121 b -25 -247 64 -139 -25 -182 b 274 -397 -25 -332 103 -397 z m 401 225 b 328 472 350 225 328 307 b 401 725 328 649 351 725 b 472 472 451 725 472 642 b 401 225 472 299 449 225 z m 435 -268 b 178 -169 278 -271 178 -232 b 250 -122 178 -140 203 -122 l 642 -122 b 721 -156 701 -122 721 -131 b 435 -268 721 -211 600 -265 z "},"ġ":{"ha":819,"x_min":0,"x_max":0,"o":"m 536 829 l 536 1101 l 267 1101 l 267 829 z m 274 -397 b 811 -15 526 -397 811 -211 b 632 126 811 79 738 126 l 239 126 b 181 169 203 126 181 142 b 222 240 181 190 196 215 b 401 200 274 214 335 200 b 733 472 592 200 733 317 b 676 633 733 533 713 589 l 815 633 l 815 706 l 644 706 b 401 750 572 706 507 750 b 68 472 211 750 68 632 b 201 251 68 379 119 300 b 36 29 94 169 36 107 b 151 -108 36 -36 79 -85 l 151 -121 b -25 -247 64 -139 -25 -182 b 274 -397 -25 -332 103 -397 z m 401 225 b 328 472 350 225 328 307 b 401 725 328 649 351 725 b 472 472 451 725 472 642 b 401 225 472 299 449 225 z m 435 -268 b 178 -169 278 -271 178 -232 b 250 -122 178 -140 203 -122 l 642 -122 b 721 -156 701 -122 721 -131 b 435 -268 721 -211 600 -265 z "},"h":{"ha":896,"x_min":0,"x_max":0,"o":"m 32 0 l 425 0 l 369 69 l 369 589 b 474 624 407 610 446 624 b 547 526 517 624 547 583 l 547 69 l 486 0 l 885 0 l 829 69 l 829 539 b 629 750 829 664 747 750 b 369 613 589 750 489 697 l 369 1179 l 13 1042 l 88 986 l 88 69 z "},"ħ":{"ha":896,"x_min":0,"x_max":0,"o":"m 32 0 l 425 0 l 369 69 l 369 589 b 474 624 407 610 446 624 b 547 526 517 624 547 583 l 547 69 l 486 0 l 885 0 l 829 69 l 829 539 b 629 750 829 664 747 750 b 369 613 589 750 489 697 l 369 836 l 589 836 l 589 864 l 369 864 l 369 1179 l 13 1042 l 88 986 l 88 864 l 14 864 l 14 836 l 88 836 l 88 69 z "},"i":{"ha":440,"x_min":0,"x_max":0,"o":"m 374 810 l 374 1069 l 90 1069 l 90 810 z m 36 0 l 429 0 l 374 69 l 374 750 l 17 613 l 92 564 l 92 69 z "},"ı":{"ha":440,"x_min":0,"x_max":0,"o":"m 374 750 l 17 613 l 92 564 l 92 69 l 36 0 l 429 0 l 374 69 z "},"í":{"ha":440,"x_min":0,"x_max":0,"o":"m 149 807 l 494 1131 l 201 1131 z m 17 613 l 92 564 l 92 69 l 36 0 l 429 0 l 374 69 l 374 750 z "},"î":{"ha":440,"x_min":0,"x_max":0,"o":"m 233 1113 l -19 803 l 233 892 l 486 803 z m 17 613 l 92 564 l 92 69 l 36 0 l 429 0 l 374 69 l 374 750 z "},"ï":{"ha":440,"x_min":0,"x_max":0,"o":"m -57 1076 l -57 840 l 183 840 l 183 1076 z m 282 840 l 522 840 l 522 1076 l 282 1076 z m 17 613 l 92 564 l 92 69 l 36 0 l 429 0 l 374 69 l 374 750 z "},"ì":{"ha":440,"x_min":0,"x_max":0,"o":"m -28 1131 l 318 807 l 265 1131 z m 374 750 l 17 613 l 92 564 l 92 69 l 36 0 l 429 0 l 374 69 z "},"ī":{"ha":440,"x_min":0,"x_max":0,"o":"m 29 869 l 436 869 l 436 992 l 29 992 z m 17 613 l 92 564 l 92 69 l 36 0 l 429 0 l 374 69 l 374 750 z "},"į":{"ha":440,"x_min":0,"x_max":0,"o":"m 90 1069 l 90 810 l 374 810 l 374 1069 z m 306 -257 b 217 -161 251 -257 217 -218 b 296 0 217 -110 249 -47 l 429 0 l 374 69 l 374 750 l 17 613 l 92 564 l 92 69 l 36 0 l 232 0 l 243 -14 b 19 -246 132 -76 19 -150 b 174 -365 19 -317 82 -365 b 394 -218 282 -365 363 -306 b 306 -257 371 -243 344 -257 z "},"j":{"ha":408,"x_min":0,"x_max":0,"o":"m 364 810 l 364 1069 l 81 1069 l 81 810 z m -87 -367 b 364 -94 206 -336 364 -237 l 364 750 l 7 613 l 82 564 l 82 -72 b -87 -367 82 -219 19 -336 z "},"k":{"ha":1001,"x_min":0,"x_max":0,"o":"m 32 0 l 425 0 l 369 69 l 369 382 l 649 1 l 1000 0 l 624 493 l 968 722 l 706 722 l 446 399 l 369 399 l 369 1179 l 13 1042 l 88 986 l 88 69 z "},"ķ":{"ha":1001,"x_min":0,"x_max":0,"o":"m 32 0 l 425 0 l 369 69 l 369 382 l 649 1 l 1000 0 l 624 493 l 968 722 l 706 722 l 446 399 l 369 399 l 369 1179 l 13 1042 l 88 986 l 88 69 z m 568 -567 l 672 -318 l 672 -53 l 418 -53 l 418 -318 l 654 -318 l 328 -567 z "},"l":{"ha":436,"x_min":0,"x_max":0,"o":"m 32 0 l 425 0 l 369 69 l 369 1179 l 13 1042 l 88 986 l 88 69 z "},"ĺ":{"ha":436,"x_min":0,"x_max":0,"o":"m 531 1436 l 219 1436 l 139 1140 z m 32 0 l 425 0 l 369 69 l 369 1179 l 13 1042 l 88 986 l 88 69 z "},"ľ":{"ha":457,"x_min":0,"x_max":0,"o":"m 32 0 l 425 0 l 369 69 l 369 1179 l 13 1042 l 88 986 l 88 69 z m 725 1179 l 404 789 l 447 1179 z "},"ļ":{"ha":436,"x_min":0,"x_max":0,"o":"m 32 0 l 425 0 l 369 69 l 369 1179 l 13 1042 l 88 986 l 88 69 z m 250 -567 l 354 -318 l 354 -53 l 100 -53 l 100 -318 l 336 -318 l 10 -567 z "},"ł":{"ha":514,"x_min":0,"x_max":0,"o":"m 64 0 l 457 0 l 401 69 l 401 683 l 503 781 l 463 781 l 401 722 l 401 1179 l 44 1042 l 119 986 l 119 451 l 13 349 l 53 349 l 119 413 l 119 69 z "},"m":{"ha":1329,"x_min":0,"x_max":0,"o":"m 36 0 l 435 0 l 374 69 l 374 599 b 463 624 407 614 439 624 b 536 528 506 624 536 583 l 536 69 l 475 0 l 874 0 l 818 69 l 818 539 b 813 596 818 558 817 578 b 907 624 846 613 881 624 b 981 528 950 624 981 583 l 981 69 l 919 0 l 1318 0 l 1263 69 l 1263 539 b 1063 750 1263 664 1181 750 b 807 615 1022 750 924 699 b 618 750 781 697 710 750 b 374 624 579 750 486 701 l 374 750 l 17 613 l 92 557 l 92 69 z "},"n":{"ha":900,"x_min":0,"x_max":0,"o":"m 36 0 l 435 0 l 374 69 l 374 589 b 478 624 410 610 449 624 b 551 526 521 624 551 583 l 551 69 l 490 0 l 889 0 l 833 69 l 833 539 b 633 750 833 664 751 750 b 374 613 593 750 493 697 l 374 750 l 17 613 l 92 557 l 92 69 z "},"ń":{"ha":900,"x_min":0,"x_max":0,"o":"m 749 1131 l 456 1131 l 403 807 z m 36 0 l 435 0 l 374 69 l 374 589 b 478 624 410 610 449 624 b 551 526 521 624 551 583 l 551 69 l 490 0 l 889 0 l 833 69 l 833 539 b 633 750 833 664 751 750 b 374 613 593 750 493 697 l 374 750 l 17 613 l 92 557 l 92 69 z "},"ň":{"ha":900,"x_min":0,"x_max":0,"o":"m 740 1113 l 488 1024 l 235 1113 l 488 803 z m 36 0 l 435 0 l 374 69 l 374 589 b 478 624 410 610 449 624 b 551 526 521 624 551 583 l 551 69 l 490 0 l 889 0 l 833 69 l 833 539 b 633 750 833 664 751 750 b 374 613 593 750 493 697 l 374 750 l 17 613 l 92 557 l 92 69 z "},"ņ":{"ha":900,"x_min":0,"x_max":0,"o":"m 36 0 l 435 0 l 374 69 l 374 589 b 478 624 410 610 449 624 b 551 526 521 624 551 583 l 551 69 l 490 0 l 889 0 l 833 69 l 833 539 b 633 750 833 664 751 750 b 374 613 593 750 493 697 l 374 750 l 17 613 l 92 557 l 92 69 z m 485 -567 l 589 -318 l 589 -53 l 335 -53 l 335 -318 l 571 -318 l 244 -567 z "},"ŋ":{"ha":878,"x_min":0,"x_max":0,"o":"m 382 -367 b 833 -94 675 -336 833 -237 l 833 525 b 642 736 833 650 768 736 b 374 592 575 736 444 642 l 374 750 l 17 613 l 92 557 l 92 69 l 36 0 l 429 0 l 374 69 l 374 572 b 486 604 413 590 457 604 b 551 514 525 604 551 567 l 551 -72 b 382 -367 551 -219 489 -336 z "},"ñ":{"ha":900,"x_min":0,"x_max":0,"o":"m 224 813 b 333 885 251 856 296 885 b 574 840 413 885 510 840 b 746 1108 660 840 718 968 b 638 1032 724 1064 679 1032 b 417 1075 568 1032 467 1075 b 224 813 346 1075 279 963 z m 36 0 l 435 0 l 374 69 l 374 589 b 478 624 410 610 449 624 b 551 526 521 624 551 583 l 551 69 l 490 0 l 889 0 l 833 69 l 833 539 b 633 750 833 664 751 750 b 374 613 593 750 493 697 l 374 750 l 17 613 l 92 557 l 92 69 z "},"o":{"ha":872,"x_min":0,"x_max":0,"o":"m 438 -17 b 849 371 668 -17 849 158 b 438 750 849 579 668 750 b 24 371 210 750 24 579 b 438 -17 24 158 210 -17 z m 438 7 b 315 369 351 7 315 126 b 438 726 315 619 356 726 b 557 369 521 726 557 608 b 438 7 557 115 518 7 z "},"ó":{"ha":872,"x_min":0,"x_max":0,"o":"m 699 1131 l 406 1131 l 353 807 z m 438 -17 b 849 371 668 -17 849 158 b 438 750 849 579 668 750 b 24 371 210 750 24 579 b 438 -17 24 158 210 -17 z m 438 7 b 315 369 351 7 315 126 b 438 726 315 619 356 726 b 557 369 521 726 557 608 b 438 7 557 115 518 7 z "},"ô":{"ha":872,"x_min":0,"x_max":0,"o":"m 438 892 l 690 803 l 438 1113 l 185 803 z m 438 -17 b 849 371 668 -17 849 158 b 438 750 849 579 668 750 b 24 371 210 750 24 579 b 438 -17 24 158 210 -17 z m 438 7 b 315 369 351 7 315 126 b 438 726 315 619 356 726 b 557 369 521 726 557 608 b 438 7 557 115 518 7 z "},"ö":{"ha":872,"x_min":0,"x_max":0,"o":"m 388 840 l 388 1076 l 147 1076 l 147 840 z m 726 840 l 726 1076 l 486 1076 l 486 840 z m 438 -17 b 849 371 668 -17 849 158 b 438 750 849 579 668 750 b 24 371 210 750 24 579 b 438 -17 24 158 210 -17 z m 438 7 b 315 369 351 7 315 126 b 438 726 315 619 356 726 b 557 369 521 726 557 608 b 438 7 557 115 518 7 z "},"ò":{"ha":872,"x_min":0,"x_max":0,"o":"m 469 1131 l 176 1131 l 522 807 z m 438 -17 b 849 371 668 -17 849 158 b 438 750 849 579 668 750 b 24 371 210 750 24 579 b 438 -17 24 158 210 -17 z m 438 7 b 315 369 351 7 315 126 b 438 726 315 619 356 726 b 557 369 521 726 557 608 b 438 7 557 115 518 7 z "},"ő":{"ha":872,"x_min":0,"x_max":0,"o":"m 803 1131 l 340 1131 l 290 807 l 522 1065 l 481 807 z m 438 750 b 24 371 210 750 24 579 b 438 -17 24 158 210 -17 b 849 371 668 -17 849 158 b 438 750 849 579 668 750 z m 438 7 b 315 369 351 7 315 126 b 438 726 315 619 356 726 b 557 369 521 726 557 608 b 438 7 557 115 518 7 z "},"ō":{"ha":872,"x_min":0,"x_max":0,"o":"m 640 869 l 640 992 l 233 992 l 233 869 z m 438 -17 b 849 371 668 -17 849 158 b 438 750 849 579 668 750 b 24 371 210 750 24 579 b 438 -17 24 158 210 -17 z m 438 7 b 315 369 351 7 315 126 b 438 726 315 619 356 726 b 557 369 521 726 557 608 b 438 7 557 115 518 7 z "},"ø":{"ha":872,"x_min":0,"x_max":0,"o":"m 438 -17 b 849 371 668 -17 849 158 b 710 656 849 483 796 586 l 768 722 l 732 722 l 688 672 b 438 750 619 721 532 750 b 24 371 210 750 24 579 b 167 79 24 254 79 150 l 97 0 l 133 0 l 188 63 b 438 -17 257 13 344 -17 z m 318 251 b 315 369 317 288 315 326 b 438 726 315 619 356 726 b 551 517 501 726 538 657 z m 438 7 b 322 214 372 7 336 75 l 554 479 b 557 369 556 446 557 410 b 438 7 557 115 518 7 z "},"õ":{"ha":872,"x_min":0,"x_max":0,"o":"m 174 813 b 283 885 201 856 246 885 b 524 840 363 885 460 840 b 696 1108 610 840 668 968 b 588 1032 674 1064 629 1032 b 367 1075 518 1032 417 1075 b 174 813 296 1075 229 963 z m 438 -17 b 849 371 668 -17 849 158 b 438 750 849 579 668 750 b 24 371 210 750 24 579 b 438 -17 24 158 210 -17 z m 438 7 b 315 369 351 7 315 126 b 438 726 315 619 356 726 b 557 369 521 726 557 608 b 438 7 557 115 518 7 z "},"œ":{"ha":1404,"x_min":0,"x_max":0,"o":"m 1182 178 b 960 458 1047 178 960 297 l 960 463 l 1361 463 l 1361 478 b 1054 750 1361 639 1235 750 b 761 606 931 750 828 696 b 438 750 688 693 571 750 b 24 371 210 750 24 579 b 438 -17 24 158 210 -17 b 750 118 564 -17 675 36 b 1039 -17 813 33 914 -17 b 1388 364 1232 -17 1368 132 b 1182 178 1353 240 1289 178 z m 438 7 b 315 369 351 7 315 126 b 438 726 315 619 356 726 b 557 369 521 726 557 608 b 438 7 557 115 518 7 z m 1054 725 b 1126 561 1100 725 1126 661 b 1074 488 1126 521 1117 488 l 960 488 b 1054 725 964 633 1001 725 z "},"p":{"ha":925,"x_min":0,"x_max":0,"o":"m 28 -339 l 421 -339 l 365 -269 l 365 -3 b 483 -17 403 -12 443 -17 b 906 404 744 -17 906 150 b 603 750 906 610 781 750 b 365 622 546 750 442 676 l 365 750 l 8 613 l 83 557 l 83 -269 z m 485 10 b 365 246 411 10 365 93 l 365 599 b 447 622 397 614 426 622 b 608 313 532 622 608 494 b 485 10 608 135 561 8 z "},"þ":{"ha":928,"x_min":0,"x_max":0,"o":"m 31 -339 l 424 -339 l 368 -269 l 368 17 b 513 -17 413 -4 463 -17 b 908 394 747 -17 908 150 b 607 736 908 596 783 736 b 368 608 543 736 443 663 l 368 1179 l 11 1042 l 86 993 l 86 -269 z m 492 10 b 368 258 419 10 368 96 l 368 586 b 451 610 417 611 435 610 b 613 315 536 610 613 481 b 492 10 613 128 565 8 z "},"q":{"ha":896,"x_min":0,"x_max":0,"o":"m 504 -339 l 899 -339 l 843 -269 l 843 750 l 683 674 b 411 750 614 722 517 750 b 19 340 181 750 19 593 b 308 -17 19 129 138 -17 b 560 111 375 -17 482 57 l 560 -269 z m 465 103 b 315 429 376 103 315 232 b 449 721 315 610 364 721 b 560 515 517 721 560 632 l 560 131 b 465 103 522 113 490 103 z "},"r":{"ha":733,"x_min":0,"x_max":0,"o":"m 36 0 l 440 0 l 374 69 l 374 560 b 442 622 393 594 419 622 b 613 475 489 622 494 475 b 725 608 679 475 725 529 b 588 750 725 692 668 750 b 374 599 508 750 432 689 l 374 750 l 17 613 l 92 564 l 92 69 z "},"ŕ":{"ha":733,"x_min":0,"x_max":0,"o":"m 679 1131 l 386 1131 l 333 807 z m 36 0 l 440 0 l 374 69 l 374 560 b 442 622 393 594 419 622 b 613 475 489 622 494 475 b 725 608 679 475 725 529 b 588 750 725 692 668 750 b 374 599 508 750 432 689 l 374 750 l 17 613 l 92 564 l 92 69 z "},"ř":{"ha":733,"x_min":0,"x_max":0,"o":"m 671 1113 l 418 1024 l 165 1113 l 418 803 z m 36 0 l 440 0 l 374 69 l 374 560 b 442 622 393 594 419 622 b 613 475 489 622 494 475 b 725 608 679 475 725 529 b 588 750 725 692 668 750 b 374 599 508 750 432 689 l 374 750 l 17 613 l 92 564 l 92 69 z "},"ŗ":{"ha":733,"x_min":0,"x_max":0,"o":"m 36 0 l 440 0 l 374 69 l 374 560 b 442 622 393 594 419 622 b 613 475 489 622 494 475 b 725 608 679 475 725 529 b 588 750 725 692 668 750 b 374 599 508 750 432 689 l 374 750 l 17 613 l 92 564 l 92 69 z m 249 -567 l 353 -318 l 353 -53 l 99 -53 l 99 -318 l 335 -318 l 8 -567 z "},"s":{"ha":671,"x_min":0,"x_max":0,"o":"m 328 -17 b 644 254 521 -17 644 94 b 207 633 644 553 207 482 b 322 722 207 686 254 722 b 622 471 431 722 538 626 l 594 686 l 594 714 b 369 750 533 735 457 750 b 39 472 175 750 39 633 b 474 104 39 193 474 267 b 360 11 474 49 428 11 b 24 304 207 11 68 179 l 57 40 l 57 13 b 328 -17 139 -6 244 -17 z "},"ś":{"ha":671,"x_min":0,"x_max":0,"o":"m 590 1131 l 297 1131 l 244 807 z m 328 -17 b 644 254 521 -17 644 94 b 207 633 644 553 207 482 b 322 722 207 686 254 722 b 622 471 431 722 538 626 l 594 686 l 594 714 b 369 750 533 735 457 750 b 39 472 175 750 39 633 b 474 104 39 193 474 267 b 360 11 474 49 428 11 b 24 304 207 11 68 179 l 57 40 l 57 13 b 328 -17 139 -6 244 -17 z "},"š":{"ha":671,"x_min":0,"x_max":0,"o":"m 582 1113 l 329 1024 l 76 1113 l 329 803 z m 328 -17 b 644 254 521 -17 644 94 b 207 633 644 553 207 482 b 322 722 207 686 254 722 b 622 471 431 722 538 626 l 594 686 l 594 714 b 369 750 533 735 457 750 b 39 472 175 750 39 633 b 474 104 39 193 474 267 b 360 11 474 49 428 11 b 24 304 207 11 68 179 l 57 40 l 57 13 b 328 -17 139 -6 244 -17 z "},"ş":{"ha":671,"x_min":0,"x_max":0,"o":"m 644 254 b 207 633 644 553 207 482 b 322 722 207 686 254 722 b 622 471 431 722 538 626 l 594 686 l 594 714 b 369 750 533 735 457 750 b 39 472 175 750 39 633 b 474 104 39 193 474 267 b 360 11 474 49 428 11 b 24 304 207 11 68 179 l 57 40 l 57 13 b 328 -17 139 -6 244 -17 l 336 -17 l 197 -206 l 292 -269 b 318 -308 308 -281 318 -290 b 254 -368 318 -331 301 -354 b 500 -200 389 -367 500 -292 b 433 -99 500 -154 478 -125 l 357 -53 l 371 -15 b 644 254 539 0 644 107 z "},"ș":{"ha":671,"x_min":0,"x_max":0,"o":"m 328 -17 b 644 254 521 -17 644 94 b 207 633 644 553 207 482 b 322 722 207 686 254 722 b 622 471 431 722 538 626 l 594 686 l 594 714 b 369 750 533 735 457 750 b 39 472 175 750 39 633 b 474 104 39 193 474 267 b 360 11 474 49 428 11 b 24 304 207 11 68 179 l 57 40 l 57 13 b 328 -17 139 -6 244 -17 z m 386 -567 l 490 -318 l 490 -53 l 236 -53 l 236 -318 l 472 -318 l 146 -567 z "},"ß":{"ha":1104,"x_min":0,"x_max":0,"o":"m 804 542 b 593 690 693 585 593 617 b 938 985 593 817 938 803 b 600 1167 938 1096 806 1167 b 121 846 325 1167 121 1022 l 121 736 l 17 663 l 121 604 l 121 69 l 65 0 l 461 0 l 406 69 l 406 829 b 556 1135 406 1042 443 1135 b 682 969 631 1135 682 1071 b 476 508 682 756 476 722 b 694 253 476 351 592 296 b 907 107 800 208 907 182 b 789 11 907 49 863 11 b 453 304 636 11 497 179 l 486 40 l 486 13 b 757 -17 568 -6 674 -17 b 1079 258 965 -17 1079 103 b 804 542 1079 426 936 490 z "},"t":{"ha":618,"x_min":0,"x_max":0,"o":"m 339 -17 b 650 176 464 -17 594 74 b 510 104 611 132 557 104 b 396 207 442 104 396 144 l 396 636 l 596 636 l 596 708 l 396 708 l 396 958 l 111 843 l 111 747 l 8 657 l 132 589 l 111 197 b 339 -17 104 67 194 -17 z "},"ŧ":{"ha":618,"x_min":0,"x_max":0,"o":"m 510 104 b 396 207 442 104 396 144 l 396 485 l 596 485 l 596 513 l 396 513 l 396 636 l 596 636 l 596 708 l 396 708 l 396 958 l 111 843 l 111 747 l 8 657 l 132 589 l 128 513 l 26 513 l 26 485 l 126 485 l 111 197 b 339 -17 104 67 194 -17 b 650 176 464 -17 594 74 b 510 104 611 132 557 104 z "},"ť":{"ha":593,"x_min":0,"x_max":0,"o":"m 776 1179 l 456 789 l 499 1179 z m 339 -17 b 650 176 464 -17 594 74 b 510 104 611 132 557 104 b 396 207 442 104 396 144 l 396 636 l 596 636 l 596 708 l 396 708 l 396 958 l 111 843 l 111 747 l 8 657 l 132 589 l 111 197 b 339 -17 104 67 194 -17 z "},"ţ":{"ha":618,"x_min":0,"x_max":0,"o":"m 650 176 b 510 104 611 132 557 104 b 396 207 442 104 396 144 l 396 636 l 596 636 l 596 708 l 396 708 l 396 958 l 111 843 l 111 747 l 8 657 l 132 589 l 111 197 b 339 -17 104 67 194 -17 l 200 -206 l 294 -269 b 321 -308 311 -281 321 -290 b 257 -368 321 -331 304 -354 b 503 -200 392 -367 503 -292 b 436 -99 503 -154 481 -125 l 360 -53 l 374 -14 b 650 176 488 0 600 83 z "},"ț":{"ha":618,"x_min":0,"x_max":0,"o":"m 339 -17 b 650 176 464 -17 594 74 b 510 104 611 132 557 104 b 396 207 442 104 396 144 l 396 636 l 596 636 l 596 708 l 396 708 l 396 958 l 111 843 l 111 747 l 8 657 l 132 589 l 111 197 b 339 -17 104 67 194 -17 z m 389 -567 l 493 -318 l 493 -53 l 239 -53 l 239 -318 l 475 -318 l 149 -567 z "},"u":{"ha":922,"x_min":0,"x_max":0,"o":"m 286 -17 b 549 122 347 -17 471 68 l 549 -17 l 908 107 l 829 161 l 829 750 l 474 613 l 549 557 l 549 142 b 439 107 506 119 465 107 b 371 197 399 107 371 142 l 371 750 l 15 613 l 90 557 l 90 192 b 286 -17 90 69 167 -17 z "},"ú":{"ha":922,"x_min":0,"x_max":0,"o":"m 739 1131 l 446 1131 l 393 807 z m 286 -17 b 549 122 347 -17 471 68 l 549 -17 l 908 107 l 829 161 l 829 750 l 474 613 l 549 557 l 549 142 b 439 107 506 119 465 107 b 371 197 399 107 371 142 l 371 750 l 15 613 l 90 557 l 90 192 b 286 -17 90 69 167 -17 z "},"û":{"ha":922,"x_min":0,"x_max":0,"o":"m 478 892 l 731 803 l 478 1113 l 225 803 z m 286 -17 b 549 122 347 -17 471 68 l 549 -17 l 908 107 l 829 161 l 829 750 l 474 613 l 549 557 l 549 142 b 439 107 506 119 465 107 b 371 197 399 107 371 142 l 371 750 l 15 613 l 90 557 l 90 192 b 286 -17 90 69 167 -17 z "},"ü":{"ha":922,"x_min":0,"x_max":0,"o":"m 428 840 l 428 1076 l 188 1076 l 188 840 z m 767 840 l 767 1076 l 526 1076 l 526 840 z m 286 -17 b 549 122 347 -17 471 68 l 549 -17 l 908 107 l 829 161 l 829 750 l 474 613 l 549 557 l 549 142 b 439 107 506 119 465 107 b 371 197 399 107 371 142 l 371 750 l 15 613 l 90 557 l 90 192 b 286 -17 90 69 167 -17 z "},"ù":{"ha":922,"x_min":0,"x_max":0,"o":"m 510 1131 l 217 1131 l 563 807 z m 286 -17 b 549 122 347 -17 471 68 l 549 -17 l 908 107 l 829 161 l 829 750 l 474 613 l 549 557 l 549 142 b 439 107 506 119 465 107 b 371 197 399 107 371 142 l 371 750 l 15 613 l 90 557 l 90 192 b 286 -17 90 69 167 -17 z "},"ű":{"ha":922,"x_min":0,"x_max":0,"o":"m 843 1131 l 381 1131 l 331 807 l 563 1065 l 521 807 z m 829 161 l 829 750 l 474 613 l 549 557 l 549 142 b 439 107 506 119 465 107 b 371 197 399 107 371 142 l 371 750 l 15 613 l 90 557 l 90 192 b 286 -17 90 69 167 -17 b 549 122 347 -17 471 68 l 549 -17 l 908 107 z "},"ū":{"ha":922,"x_min":0,"x_max":0,"o":"m 681 869 l 681 992 l 274 992 l 274 869 z m 286 -17 b 549 122 347 -17 471 68 l 549 -17 l 908 107 l 829 161 l 829 750 l 474 613 l 549 557 l 549 142 b 439 107 506 119 465 107 b 371 197 399 107 371 142 l 371 750 l 15 613 l 90 557 l 90 192 b 286 -17 90 69 167 -17 z "},"ų":{"ha":922,"x_min":0,"x_max":0,"o":"m 615 -257 b 526 -161 561 -257 526 -218 b 610 4 526 -108 561 -44 l 908 107 l 829 161 l 829 750 l 474 613 l 549 557 l 549 142 b 439 107 506 119 465 107 b 371 197 399 107 371 142 l 371 750 l 15 613 l 90 557 l 90 192 b 286 -17 90 69 167 -17 b 549 122 347 -17 471 68 l 549 -15 b 329 -246 439 -78 329 -150 b 483 -365 329 -317 392 -365 b 704 -218 592 -365 672 -306 b 615 -257 681 -243 654 -257 z "},"ů":{"ha":922,"x_min":0,"x_max":0,"o":"m 479 792 b 644 960 569 792 644 868 b 479 1122 644 1049 569 1122 b 308 960 385 1122 308 1049 b 479 792 308 868 385 792 z m 476 867 b 388 957 428 867 388 907 b 476 1047 388 1007 428 1047 b 568 957 528 1047 568 1007 b 476 867 568 907 528 867 z m 286 -17 b 549 122 347 -17 471 68 l 549 -17 l 908 107 l 829 161 l 829 750 l 474 613 l 549 557 l 549 142 b 439 107 506 119 465 107 b 371 197 399 107 371 142 l 371 750 l 15 613 l 90 557 l 90 192 b 286 -17 90 69 167 -17 z "},"v":{"ha":872,"x_min":0,"x_max":0,"o":"m 750 639 l 869 722 l 607 722 l 715 639 l 588 335 l 564 335 l 411 639 l 508 722 l 4 722 l 92 639 l 449 -58 z "},"w":{"ha":1344,"x_min":0,"x_max":0,"o":"m 664 490 l 931 -58 l 1226 647 l 1342 722 l 1079 722 l 1192 647 l 1065 339 l 1043 339 l 900 642 l 1007 722 l 501 722 l 588 646 l 646 526 l 569 339 l 547 339 l 406 644 l 483 722 l 4 722 l 96 642 l 432 -58 z "},"ẃ":{"ha":1344,"x_min":0,"x_max":0,"o":"m 954 1131 l 661 1131 l 608 807 z m 664 490 l 931 -58 l 1226 647 l 1342 722 l 1079 722 l 1192 647 l 1065 339 l 1043 339 l 900 642 l 1007 722 l 501 722 l 588 646 l 646 526 l 569 339 l 547 339 l 406 644 l 483 722 l 4 722 l 96 642 l 432 -58 z "},"ŵ":{"ha":1344,"x_min":0,"x_max":0,"o":"m 693 892 l 946 803 l 693 1113 l 440 803 z m 664 490 l 931 -58 l 1226 647 l 1342 722 l 1079 722 l 1192 647 l 1065 339 l 1043 339 l 900 642 l 1007 722 l 501 722 l 588 646 l 646 526 l 569 339 l 547 339 l 406 644 l 483 722 l 4 722 l 96 642 l 432 -58 z "},"ẅ":{"ha":1344,"x_min":0,"x_max":0,"o":"m 643 840 l 643 1076 l 403 1076 l 403 840 z m 982 840 l 982 1076 l 742 1076 l 742 840 z m 664 490 l 931 -58 l 1226 647 l 1342 722 l 1079 722 l 1192 647 l 1065 339 l 1043 339 l 900 642 l 1007 722 l 501 722 l 588 646 l 646 526 l 569 339 l 547 339 l 406 644 l 483 722 l 4 722 l 96 642 l 432 -58 z "},"ẁ":{"ha":1344,"x_min":0,"x_max":0,"o":"m 725 1131 l 432 1131 l 778 807 z m 664 490 l 931 -58 l 1226 647 l 1342 722 l 1079 722 l 1192 647 l 1065 339 l 1043 339 l 900 642 l 1007 722 l 501 722 l 588 646 l 646 526 l 569 339 l 547 339 l 406 644 l 483 722 l 4 722 l 96 642 l 432 -58 z "},"x":{"ha":917,"x_min":0,"x_max":0,"o":"m 272 0 l 163 78 l 329 278 l 357 278 l 490 79 l 383 0 l 914 0 l 828 81 l 588 439 l 751 639 l 882 722 l 608 722 l 714 639 l 585 478 l 561 478 l 453 640 l 547 722 l 25 722 l 115 638 l 329 319 l 125 79 l 3 0 z "},"y":{"ha":872,"x_min":0,"x_max":0,"o":"m 350 -339 l 486 28 l 750 639 l 869 722 l 607 722 l 715 639 l 588 335 l 564 335 l 411 639 l 508 722 l 4 722 l 92 639 l 431 -22 l 10 -339 z "},"ý":{"ha":872,"x_min":0,"x_max":0,"o":"m 744 1131 l 451 1131 l 399 807 z m 350 -339 l 486 28 l 750 639 l 869 722 l 607 722 l 715 639 l 588 335 l 564 335 l 411 639 l 508 722 l 4 722 l 92 639 l 431 -22 l 10 -339 z "},"ŷ":{"ha":872,"x_min":0,"x_max":0,"o":"m 483 892 l 736 803 l 483 1113 l 231 803 z m 350 -339 l 486 28 l 750 639 l 869 722 l 607 722 l 715 639 l 588 335 l 564 335 l 411 639 l 508 722 l 4 722 l 92 639 l 431 -22 l 10 -339 z "},"ÿ":{"ha":872,"x_min":0,"x_max":0,"o":"m 433 840 l 433 1076 l 193 1076 l 193 840 z m 772 840 l 772 1076 l 532 1076 l 532 840 z m 350 -339 l 486 28 l 750 639 l 869 722 l 607 722 l 715 639 l 588 335 l 564 335 l 411 639 l 508 722 l 4 722 l 92 639 l 431 -22 l 10 -339 z "},"ỳ":{"ha":872,"x_min":0,"x_max":0,"o":"m 515 1131 l 222 1131 l 568 807 z m 350 -339 l 486 28 l 750 639 l 869 722 l 607 722 l 715 639 l 588 335 l 564 335 l 411 639 l 508 722 l 4 722 l 92 639 l 431 -22 l 10 -339 z "},"z":{"ha":729,"x_min":0,"x_max":0,"o":"m 675 0 l 675 28 l 703 299 l 492 25 l 347 25 l 707 722 l 63 722 l 63 694 l 40 450 l 244 697 l 383 697 l 22 0 z "},"ź":{"ha":729,"x_min":0,"x_max":0,"o":"m 636 1131 l 343 1131 l 290 807 z m 675 0 l 675 28 l 703 299 l 492 25 l 347 25 l 707 722 l 63 722 l 63 694 l 40 450 l 244 697 l 383 697 l 22 0 z "},"ž":{"ha":729,"x_min":0,"x_max":0,"o":"m 628 1113 l 375 1024 l 122 1113 l 375 803 z m 675 0 l 675 28 l 703 299 l 492 25 l 347 25 l 707 722 l 63 722 l 63 694 l 40 450 l 244 697 l 383 697 l 22 0 z "},"ż":{"ha":729,"x_min":0,"x_max":0,"o":"m 510 829 l 510 1101 l 240 1101 l 240 829 z m 675 0 l 675 28 l 703 299 l 492 25 l 347 25 l 707 722 l 63 722 l 63 694 l 40 450 l 244 697 l 383 697 l 22 0 z "},"ﬁ":{"ha":946,"x_min":0,"x_max":0,"o":"m 65 0 l 474 0 l 407 69 l 407 636 l 597 636 l 597 69 l 542 0 l 935 0 l 879 69 l 879 781 l 701 708 l 407 708 l 407 829 b 519 1138 407 1029 425 1138 b 746 892 649 1138 574 892 b 847 999 806 892 847 938 b 542 1167 847 1108 715 1167 b 121 836 293 1167 121 1032 l 121 747 l 17 657 l 121 600 l 121 69 z "},"ﬂ":{"ha":997,"x_min":0,"x_max":0,"o":"m 65 0 l 474 0 l 407 69 l 407 636 l 594 636 l 594 708 l 407 708 l 407 832 b 519 1138 407 1029 425 1138 b 646 1026 567 1138 611 1097 l 646 69 l 590 0 l 986 0 l 931 69 l 931 1179 l 800 1128 b 546 1167 735 1151 643 1167 b 121 838 293 1167 121 1032 l 121 747 l 17 657 l 121 600 l 121 69 z "},"ª":{"ha":504,"x_min":0,"x_max":0,"o":"m 117 628 b 278 717 179 628 232 664 l 278 628 l 488 686 l 443 714 l 443 939 b 292 1069 443 1017 379 1069 b 24 911 229 1069 24 1006 b 83 850 24 876 47 850 b 174 1017 182 850 132 982 b 208 1029 183 1025 196 1029 b 278 936 249 1029 278 992 l 278 904 b 22 713 174 853 22 783 b 117 628 22 664 63 628 z m 236 718 b 190 776 213 718 190 742 b 278 883 190 821 217 856 l 278 742 b 236 718 265 726 253 718 z m 389 289 l 389 561 l 119 561 l 119 289 z "},"º":{"ha":496,"x_min":0,"x_max":0,"o":"m 250 628 b 478 851 376 628 478 728 b 250 1069 478 971 376 1069 b 18 851 122 1069 18 971 b 250 628 18 728 122 628 z m 250 647 b 185 851 208 647 185 718 b 250 1050 185 981 208 1050 b 311 851 290 1050 311 981 b 250 647 311 718 290 647 z m 383 289 l 383 561 l 114 561 l 114 289 z "},"ぁ":{"ha":1389,"x_min":0,"x_max":0,"o":"m 571 -101 b 1182 236 972 -65 1182 49 b 792 488 1182 381 1024 488 b 636 464 739 488 686 479 b 643 535 636 486 639 510 b 875 592 731 546 819 567 b 953 664 926 615 953 638 b 919 706 953 675 950 694 l 806 749 b 749 700 813 729 781 713 b 679 682 731 693 707 688 b 685 699 681 688 683 693 b 715 779 699 757 715 775 b 579 853 715 794 610 853 b 410 785 538 853 453 822 b 456 783 429 789 443 788 b 508 676 486 774 508 736 b 510 657 508 669 510 664 b 457 656 492 656 474 656 b 264 726 371 656 294 668 b 497 524 307 592 399 524 l 511 524 b 510 410 511 486 510 447 b 257 86 364 329 257 199 b 407 -35 257 14 313 -35 b 608 18 478 -35 546 -17 b 674 4 628 8 650 4 b 764 90 735 4 764 40 b 754 131 764 101 760 115 b 889 335 808 188 854 257 b 911 371 900 360 911 367 b 818 453 911 379 843 440 b 783 460 813 456 800 458 l 783 464 b 971 285 893 460 971 390 b 571 -101 971 125 793 -47 z m 679 267 b 636 438 660 306 640 357 b 685 453 653 443 668 449 b 724 379 722 443 731 413 b 679 267 715 338 700 300 z m 471 135 b 410 194 433 135 410 153 b 510 363 410 249 449 311 b 526 143 510 285 513 207 b 471 135 508 138 490 135 z "},"あ":{"ha":1389,"x_min":0,"x_max":0,"o":"m 533 -90 b 1288 336 1024 -51 1288 99 b 796 667 1288 522 1086 667 b 599 636 729 667 663 656 b 610 721 600 664 604 692 b 900 793 715 735 824 760 b 999 888 960 819 999 854 b 958 936 999 901 994 922 l 817 990 b 810 964 819 981 817 972 b 747 928 799 950 779 939 b 653 903 722 919 689 910 b 660 925 656 911 657 918 b 700 1035 683 1004 700 1028 b 525 1125 700 1053 565 1125 b 313 1042 474 1125 369 1088 b 379 1040 339 1047 361 1047 b 443 911 419 1025 442 982 l 443 874 b 371 871 418 872 394 871 b 124 964 251 871 164 890 b 418 707 178 801 290 707 l 443 707 b 440 568 442 661 442 614 b 114 146 251 463 114 289 b 299 -6 114 56 181 -6 b 560 64 390 -6 479 19 b 640 47 583 53 611 47 b 757 150 714 47 757 89 b 740 207 757 167 750 186 b 911 464 808 279 867 367 b 940 511 926 497 940 506 b 822 614 940 521 854 600 b 724 628 808 619 771 628 l 724 635 b 772 638 740 636 756 638 b 1022 394 924 638 1022 538 b 533 -90 1022 176 822 -22 z m 651 374 b 599 603 625 426 600 497 b 639 617 613 608 626 613 b 708 521 697 610 717 567 b 651 374 699 468 678 418 z m 375 197 b 304 274 333 197 304 219 b 440 506 304 346 357 435 b 464 213 440 403 444 297 b 375 197 436 203 406 197 z "},"ぃ":{"ha":1389,"x_min":0,"x_max":0,"o":"m 536 -8 b 618 25 588 -8 618 6 b 625 131 618 33 607 65 l 717 469 l 610 351 b 471 253 549 283 506 253 b 424 331 439 253 424 285 b 547 622 424 461 547 610 b 421 747 547 639 454 731 b 217 776 371 772 288 782 b 289 632 264 760 289 706 b 281 350 289 561 281 450 b 536 -8 281 111 383 -8 z m 1074 192 b 1181 319 1140 192 1181 243 b 749 636 1181 504 1007 629 b 926 342 853 593 886 478 b 1074 192 957 239 1001 192 z "},"い":{"ha":1389,"x_min":0,"x_max":0,"o":"m 494 0 b 590 40 553 0 590 17 b 600 169 590 54 578 92 l 724 597 l 578 431 b 415 314 508 351 457 314 b 324 442 357 314 324 361 b 490 810 324 603 490 794 b 336 963 490 831 378 942 b 85 999 282 990 174 1006 b 181 817 147 976 181 913 b 171 456 181 721 171 583 b 494 0 171 160 297 0 z m 1189 260 b 1313 425 1264 260 1313 321 b 768 818 1313 649 1089 814 b 1010 440 908 775 958 619 b 1189 260 1044 318 1096 260 z "},"ぅ":{"ha":1389,"x_min":0,"x_max":0,"o":"m 435 608 b 801 697 585 671 735 697 b 918 683 853 697 900 683 b 953 736 938 683 953 703 b 804 885 953 822 889 885 b 661 856 763 885 743 864 b 451 900 606 850 507 849 b 651 754 513 799 569 763 b 435 608 583 722 507 675 z m 382 -103 b 1053 294 818 -92 1053 67 b 726 582 1053 471 925 582 b 489 511 638 582 553 532 b 428 499 465 503 444 499 b 340 557 386 499 351 513 b 360 360 322 499 329 421 b 532 281 369 340 497 281 b 569 350 542 281 558 319 b 700 557 610 463 613 557 b 808 381 767 557 808 489 b 382 -103 808 106 661 -35 z "},"う":{"ha":1389,"x_min":0,"x_max":0,"o":"m 363 817 b 829 928 553 894 740 928 b 971 911 892 928 949 911 b 1014 975 996 911 1014 935 b 833 1153 1014 1076 936 1153 b 661 1118 783 1153 761 1128 b 389 1178 590 1111 461 1111 b 638 996 463 1053 536 1008 b 363 817 551 957 454 897 z m 304 -97 b 1156 413 856 -82 1154 122 b 743 776 1157 635 996 776 b 346 663 586 776 446 663 b 232 739 290 663 249 682 b 260 499 214 667 225 564 b 475 411 274 472 426 411 b 519 486 493 411 504 446 b 714 746 572 626 597 746 b 864 514 806 746 864 654 b 304 -97 864 167 668 -11 z "},"ぇ":{"ha":1389,"x_min":0,"x_max":0,"o":"m 428 678 b 763 719 521 701 651 719 b 896 701 844 719 878 701 b 938 758 922 701 938 725 b 796 893 938 833 875 893 b 631 864 771 893 740 867 b 457 906 528 861 478 885 b 631 785 489 831 547 796 b 428 678 565 760 493 724 z m 343 -65 b 532 135 426 -65 460 51 b 676 242 589 199 646 242 b 711 168 697 242 701 224 l 733 33 b 938 -65 744 -37 824 -65 b 1229 114 1096 -65 1229 11 b 1119 213 1229 169 1185 213 b 1006 6 1000 213 1065 6 b 974 67 981 6 979 36 l 946 217 b 844 296 936 271 901 296 b 679 261 789 296 735 283 l 672 271 b 922 431 758 338 857 400 b 990 467 956 446 990 456 b 835 674 990 501 876 674 b 747 629 832 674 800 640 b 504 597 678 614 572 596 b 397 669 432 599 397 632 b 415 514 386 626 393 557 b 553 436 425 493 528 436 b 617 492 561 436 575 456 b 778 611 674 542 756 596 b 788 594 799 625 799 608 b 315 182 725 521 568 376 b 225 47 263 142 225 100 b 343 -65 225 -14 271 -65 z "},"え":{"ha":1389,"x_min":0,"x_max":0,"o":"m 351 889 b 781 946 481 924 649 946 b 942 924 878 946 919 924 b 992 992 974 924 992 950 b 819 1154 992 1081 917 1154 b 621 1118 789 1154 760 1122 b 390 1176 501 1114 421 1144 b 610 1022 432 1082 504 1039 b 351 889 528 992 436 949 z m 229 -62 b 464 188 331 -62 367 76 b 665 332 539 272 618 332 b 710 242 692 332 697 310 l 740 67 b 994 -61 756 -24 849 -61 b 1340 161 1192 -61 1340 35 b 1217 286 1340 235 1290 286 b 1067 25 1069 286 1138 25 b 1024 106 1038 25 1032 64 l 988 301 b 864 399 975 369 932 399 b 651 350 794 399 725 382 l 643 364 b 971 581 751 450 879 535 b 1058 628 1014 601 1058 614 b 869 878 1058 671 919 878 b 754 819 865 878 826 835 b 442 779 671 801 525 778 b 304 871 351 781 308 822 b 331 679 283 814 297 743 b 497 583 344 653 467 583 b 579 651 508 583 531 613 b 799 797 638 699 756 772 b 814 778 826 814 828 793 b 204 242 707 657 494 469 b 89 72 135 188 89 138 b 229 -62 89 -1 143 -62 z "},"ぉ":{"ha":1388,"x_min":0,"x_max":0,"o":"m 479 -115 b 683 63 613 -115 683 -43 b 651 319 683 111 663 194 b 804 353 710 346 758 353 b 965 224 906 353 965 297 b 851 100 965 150 917 100 b 731 215 783 100 733 150 b 938 -82 693 46 783 -82 b 1168 144 1074 -82 1168 13 b 857 383 1168 288 1049 383 b 650 347 792 383 721 368 b 647 392 649 363 649 376 b 646 464 646 414 646 439 b 817 536 714 481 774 506 b 863 603 847 558 863 579 b 838 643 863 622 854 635 l 721 697 b 697 651 722 679 718 667 b 654 626 686 643 671 635 l 658 651 b 689 775 674 743 689 771 b 538 856 689 790 572 856 b 356 783 478 856 404 825 b 419 781 375 792 401 790 b 465 689 447 767 464 732 l 468 586 l 465 586 b 213 669 331 586 257 622 b 446 447 278 550 349 465 b 472 444 454 446 463 444 l 474 290 b 329 249 424 274 374 258 b 265 240 310 244 285 240 b 179 296 224 240 190 258 b 208 114 172 238 185 163 b 339 42 219 93 318 42 b 360 60 343 42 350 49 l 364 64 l 429 -33 b 438 -71 439 -47 438 -61 l 438 -89 b 479 -115 438 -103 439 -115 z m 1040 451 b 1129 419 1110 460 1121 419 b 1199 511 1164 419 1199 454 b 838 704 1199 643 1040 714 b 1003 550 938 667 1003 600 b 982 504 1003 526 994 515 l 900 433 z m 449 67 b 397 76 440 67 426 69 l 379 81 b 475 188 415 125 442 154 l 475 115 b 449 67 475 96 476 67 z "},"お":{"ha":1389,"x_min":0,"x_max":0,"o":"m 426 -107 b 674 110 585 -107 674 -22 b 633 439 674 171 647 278 b 846 488 711 476 779 488 b 1054 318 976 488 1054 415 b 906 157 1054 224 990 157 b 749 307 815 157 751 221 b 1008 -62 703 96 815 -62 b 1299 226 1179 -62 1299 57 b 913 528 1299 408 1149 528 b 631 476 824 528 728 506 b 628 535 629 496 629 515 b 628 628 626 564 626 596 b 840 717 711 649 786 679 b 904 813 881 744 904 781 b 874 860 904 835 894 850 l 731 925 b 728 897 732 915 731 904 b 703 869 724 886 714 876 b 640 835 685 857 664 844 l 644 874 b 681 1032 657 994 681 1025 b 497 1131 681 1050 540 1131 b 271 1042 425 1131 333 1092 b 354 1039 303 1051 332 1050 b 414 925 389 1022 411 983 l 418 785 l 404 785 b 89 889 249 785 150 824 b 390 607 174 733 268 624 b 422 604 401 606 411 604 l 425 408 b 222 346 353 383 283 360 b 147 336 196 340 171 336 b 36 406 93 336 51 356 b 76 181 31 329 47 238 b 236 92 90 154 211 92 b 272 124 239 92 263 114 l 365 -6 b 378 -53 378 -24 378 -37 l 378 -75 b 426 -107 378 -97 385 -107 z m 1147 622 b 1258 583 1232 633 1247 583 b 1342 694 1300 583 1342 626 b 890 935 1342 856 1147 949 b 1104 743 1019 892 1104 806 b 1076 686 1104 721 1099 704 l 967 597 z m 407 124 b 354 131 394 124 376 126 l 289 143 b 425 289 342 204 379 246 b 424 164 425 253 425 183 b 407 124 422 135 424 124 z "},"か":{"ha":1389,"x_min":0,"x_max":0,"o":"m 238 -71 b 399 78 318 -71 374 -17 b 531 508 439 226 476 363 b 633 732 558 582 592 656 l 647 733 b 728 474 710 733 729 639 b 625 163 725 260 686 163 b 439 171 603 163 551 164 l 576 60 b 642 -1 597 43 625 18 b 688 -68 667 -29 660 -68 b 983 392 869 -68 983 111 b 738 774 983 635 936 774 b 651 767 721 774 688 771 b 719 879 672 803 694 840 b 747 926 743 917 747 922 b 604 1089 747 947 638 1074 b 353 1107 558 1110 463 1126 b 446 897 450 1085 471 1010 b 401 744 436 851 421 800 b 221 746 349 742 289 742 b 69 844 131 753 88 789 b 96 632 63 781 63 696 b 249 529 110 606 218 529 b 322 583 257 529 288 556 l 349 606 b 263 422 322 544 294 482 b 107 61 118 150 107 114 b 238 -71 107 -15 161 -71 z m 1185 249 b 1350 432 1286 249 1350 313 b 888 843 1350 625 1163 793 b 1119 503 1028 775 1119 631 b 1078 450 1119 468 1104 450 b 988 457 1064 450 1043 451 l 1135 315 b 1185 249 1171 281 1147 249 z "},"が":{"ha":1389,"x_min":0,"x_max":0,"o":"m 1313 944 b 1369 1032 1354 951 1376 989 b 1033 1124 1357 1118 1231 1171 b 1206 1004 1085 1113 1150 1061 b 1313 944 1235 974 1258 936 z m 233 -71 b 394 78 314 -71 369 -17 b 526 508 435 226 472 363 b 629 732 554 582 588 656 l 643 733 b 724 474 706 733 725 639 b 621 163 721 260 682 163 b 435 171 599 163 547 164 l 572 60 b 638 -1 593 43 621 18 b 683 -68 663 -29 656 -68 b 979 392 865 -68 979 111 b 733 774 979 635 932 774 b 647 767 717 774 683 771 b 715 879 668 803 690 840 b 743 926 739 917 743 922 b 600 1089 743 947 633 1074 b 349 1107 554 1110 458 1126 b 442 897 446 1085 467 1010 b 397 744 432 851 417 800 b 217 746 344 742 285 742 b 65 844 126 753 83 789 b 92 632 58 781 58 696 b 244 529 106 606 214 529 b 318 583 253 529 283 556 l 344 606 b 258 422 318 544 290 482 b 103 61 114 150 103 114 b 233 -71 103 -15 157 -71 z m 1178 799 b 1239 889 1224 806 1247 843 b 921 1022 1225 978 1111 1031 b 1092 840 974 990 1025 931 b 1178 799 1104 822 1133 790 z m 1181 249 b 1346 432 1282 249 1346 313 b 883 843 1346 625 1158 793 b 1115 503 1024 775 1115 631 b 1074 450 1115 468 1100 450 b 983 457 1060 450 1039 451 l 1131 315 b 1181 249 1167 281 1143 249 z "},"き":{"ha":1389,"x_min":0,"x_max":0,"o":"m 676 -96 b 1015 75 890 -96 1015 -37 b 899 178 1015 138 969 178 b 663 131 829 178 779 131 b 444 256 525 131 444 179 b 639 385 444 331 524 385 b 882 299 711 385 796 358 b 1094 143 976 233 1004 143 b 1215 271 1165 143 1215 196 b 1036 510 1215 379 1108 419 b 996 563 1022 526 1008 544 b 1061 586 1018 571 1040 578 b 1176 690 1133 614 1176 644 b 1143 729 1176 710 1164 722 l 997 788 b 994 765 1000 781 999 771 b 958 742 989 757 972 747 l 896 718 b 851 800 881 746 865 772 b 932 828 878 808 906 818 b 1050 925 1008 857 1050 892 b 1014 967 1050 950 1039 957 l 883 1015 b 883 997 885 1008 885 1003 b 854 974 881 989 872 982 b 782 949 833 965 808 957 l 758 1010 b 726 1100 740 1058 732 1096 b 556 1140 717 1108 593 1140 b 314 1051 513 1140 414 1104 b 514 967 419 1064 479 1035 l 551 894 b 506 892 535 893 518 892 b 271 933 407 892 317 907 b 547 746 329 835 450 746 b 632 753 568 746 597 749 l 686 663 b 529 646 631 653 576 646 b 251 744 369 646 289 679 b 565 483 292 558 406 483 b 786 508 628 483 706 493 l 860 404 l 849 393 b 653 411 788 404 718 411 b 239 163 407 411 239 311 b 676 -96 239 7 408 -96 z "},"ぎ":{"ha":1389,"x_min":0,"x_max":0,"o":"m 1313 933 b 1383 1011 1354 933 1383 967 b 1065 1154 1383 1097 1267 1169 b 1217 1008 1114 1135 1171 1074 b 1313 933 1240 974 1258 933 z m 618 -96 b 957 75 832 -96 957 -37 b 840 178 957 138 911 178 b 604 131 771 178 721 131 b 386 256 467 131 386 179 b 581 385 386 331 465 385 b 824 299 653 385 738 358 b 1036 143 918 233 946 143 b 1157 271 1107 143 1157 196 b 978 510 1157 379 1050 419 b 938 563 964 526 950 544 b 1003 586 960 571 982 578 b 1118 690 1075 614 1118 644 b 1085 729 1118 710 1106 722 l 939 788 b 936 765 942 781 940 771 b 900 742 931 757 914 747 l 838 718 b 793 800 822 746 807 772 b 874 828 819 808 847 818 b 992 925 950 857 992 892 b 956 967 992 950 981 957 l 825 1015 b 825 997 826 1008 826 1003 b 796 974 822 989 814 982 b 724 949 775 965 750 957 l 700 1010 b 668 1100 682 1058 674 1096 b 497 1140 658 1108 535 1140 b 256 1051 454 1140 356 1104 b 456 967 361 1064 421 1035 l 493 894 b 447 892 476 893 460 892 b 213 933 349 892 258 907 b 489 746 271 835 392 746 b 574 753 510 746 539 749 l 628 663 b 471 646 572 653 518 646 b 193 744 311 646 231 679 b 507 483 233 558 347 483 b 728 508 569 483 647 493 l 801 404 l 790 393 b 594 411 729 404 660 411 b 181 163 349 411 181 311 b 618 -96 181 7 350 -96 z m 1157 810 b 1232 890 1203 810 1232 843 b 938 1071 1232 979 1128 1050 b 1078 865 985 1032 1026 965 b 1157 810 1088 846 1111 810 z "},"く":{"ha":1389,"x_min":0,"x_max":0,"o":"m 896 -104 b 1042 58 982 -104 1042 -37 b 985 196 1042 110 1021 156 b 546 442 889 301 696 367 b 393 560 449 490 393 511 b 535 667 393 604 442 625 b 857 803 594 693 746 753 b 961 857 922 832 954 847 b 885 1071 968 867 919 1036 b 640 1158 829 1126 729 1163 b 694 1072 671 1149 694 1111 b 656 971 694 1038 681 1007 b 458 749 618 917 549 847 b 354 553 392 676 354 617 b 425 399 354 504 375 456 b 704 47 510 300 622 181 b 896 -104 769 -60 811 -104 z "},"ぐ":{"ha":1389,"x_min":0,"x_max":0,"o":"m 876 -104 b 1022 58 963 -104 1022 -37 b 965 196 1022 110 1001 156 b 526 442 869 301 676 367 b 374 560 429 490 374 511 b 515 667 374 604 422 625 b 838 803 575 693 726 753 b 942 857 903 832 935 847 b 865 1071 949 867 900 1036 b 621 1158 810 1126 710 1163 b 675 1072 651 1149 675 1111 b 636 971 675 1038 661 1007 b 439 749 599 917 529 847 b 335 553 372 676 335 617 b 406 399 335 504 356 456 b 685 47 490 300 603 181 b 876 -104 750 -60 792 -104 z m 1185 613 b 1256 690 1226 613 1256 646 b 938 833 1256 776 1139 849 b 1089 688 986 814 1043 753 b 1185 613 1113 653 1131 613 z m 1029 489 b 1104 569 1075 489 1104 522 b 810 750 1104 658 1000 729 b 950 544 857 711 899 644 b 1029 489 960 525 983 489 z "},"け":{"ha":1389,"x_min":0,"x_max":0,"o":"m 400 -60 b 474 -29 453 -60 474 -43 b 465 78 474 -14 456 21 l 553 561 l 392 328 b 318 264 363 286 344 264 b 253 396 278 264 253 310 b 469 842 253 632 469 821 b 332 1028 469 865 375 1000 b 96 1100 269 1068 171 1097 b 172 908 144 1071 175 1010 b 115 365 168 804 115 579 b 400 -60 115 114 222 -60 z m 575 -96 b 1117 315 840 -78 1113 57 b 1085 622 1118 403 1090 494 l 1085 632 b 1224 682 1136 644 1185 661 b 1318 790 1281 711 1318 742 b 1288 838 1318 813 1308 828 l 1144 903 b 1142 875 1146 893 1146 883 b 1117 847 1138 864 1129 856 b 1088 832 1108 842 1099 836 b 1093 890 1089 854 1090 875 b 1113 993 1103 956 1113 986 b 915 1092 1113 1010 958 1092 b 689 1001 843 1092 746 1053 b 825 893 769 1029 814 990 b 836 776 829 857 833 818 l 818 776 b 503 881 663 776 564 815 b 840 599 596 711 700 599 l 847 599 b 849 331 851 506 851 411 b 575 -96 840 118 750 -21 z "},"げ":{"ha":1389,"x_min":0,"x_max":0,"o":"m 1322 1013 b 1388 1085 1361 1013 1388 1044 b 1094 1217 1388 1164 1281 1231 b 1233 1082 1139 1199 1192 1143 b 1322 1013 1256 1050 1272 1013 z m 1179 899 b 1249 974 1221 899 1249 929 b 976 1140 1249 1056 1151 1121 b 1106 950 1019 1104 1058 1043 b 1179 899 1115 932 1136 899 z m 350 -60 b 424 -29 403 -60 424 -43 b 415 78 424 -14 406 21 l 503 561 l 342 328 b 268 264 313 286 294 264 b 203 396 228 264 203 310 b 419 842 203 632 419 821 b 282 1028 419 865 325 1000 b 46 1100 219 1068 121 1097 b 122 908 94 1071 125 1010 b 65 365 118 804 65 579 b 350 -60 65 114 172 -60 z m 525 -96 b 1067 315 790 -78 1063 57 b 1035 622 1068 403 1040 494 l 1035 632 b 1174 682 1086 644 1135 661 b 1268 790 1231 711 1268 742 b 1238 838 1268 813 1258 828 l 1094 903 b 1092 875 1096 893 1096 883 b 1067 847 1088 864 1079 856 b 1038 832 1058 842 1049 836 b 1043 890 1039 854 1040 875 b 1063 993 1053 956 1063 986 b 865 1092 1063 1010 908 1092 b 639 1001 793 1092 696 1053 b 775 893 719 1029 764 990 b 786 776 779 857 783 818 l 768 776 b 453 881 613 776 514 815 b 790 599 546 711 650 599 l 797 599 b 799 331 801 506 801 411 b 525 -96 790 118 700 -21 z "},"こ":{"ha":1389,"x_min":0,"x_max":0,"o":"m 454 613 b 886 751 564 683 732 731 b 1058 757 964 763 1017 757 b 1128 847 1088 757 1128 765 b 903 1019 1128 949 1036 1019 b 542 975 803 1019 690 975 b 285 1089 456 975 368 985 b 622 851 372 904 515 851 b 704 854 617 851 653 850 b 724 851 718 856 724 854 b 697 831 724 846 711 840 b 454 613 628 785 519 699 z m 732 -28 b 1086 24 857 -28 986 -12 b 1250 211 1186 61 1250 121 b 1035 310 1250 310 1167 358 b 624 229 922 268 810 229 b 335 394 438 229 335 293 b 392 543 335 433 353 485 b 240 271 292 463 240 350 b 732 -28 240 82 422 -28 z "},"ご":{"ha":1389,"x_min":0,"x_max":0,"o":"m 1314 965 b 1385 1043 1356 965 1385 999 b 1067 1186 1385 1129 1268 1201 b 1218 1040 1115 1167 1172 1106 b 1314 965 1242 1006 1260 965 z m 1158 842 b 1233 922 1204 842 1233 875 b 939 1103 1233 1011 1129 1082 b 1079 897 986 1064 1028 997 b 1158 842 1089 878 1113 842 z m 375 613 b 807 751 485 683 653 731 b 979 757 885 763 938 757 b 1049 847 1008 757 1049 765 b 824 1019 1049 949 957 1019 b 463 975 724 1019 611 975 b 206 1089 376 975 289 985 b 543 851 293 904 436 851 b 625 854 538 851 574 850 b 644 851 639 856 644 854 b 618 831 644 846 632 840 b 375 613 549 785 440 699 z m 653 -28 b 1007 24 778 -28 907 -12 b 1171 211 1107 61 1171 121 b 956 310 1171 310 1088 358 b 544 229 843 268 731 229 b 256 394 358 229 256 293 b 313 543 256 433 274 485 b 161 271 213 463 161 350 b 653 -28 161 82 343 -28 z "},"さ":{"ha":1389,"x_min":0,"x_max":0,"o":"m 676 -96 b 1015 75 890 -96 1015 -37 b 899 178 1015 138 969 178 b 663 126 829 178 779 126 b 444 281 539 126 444 190 b 646 440 444 376 526 440 b 854 361 746 440 801 397 b 1064 206 942 301 969 206 b 1193 342 1140 206 1193 261 b 1008 583 1193 436 1081 493 b 928 690 978 621 951 657 b 1021 722 961 701 993 711 b 1144 829 1093 750 1144 776 b 1096 889 1144 864 1125 878 l 960 942 b 958 921 961 939 964 931 b 921 896 954 913 943 904 b 831 865 894 886 864 875 b 779 990 813 903 796 944 b 751 1072 761 1039 757 1068 b 571 1118 744 1076 608 1118 b 326 1029 529 1118 433 1083 b 511 944 428 1031 476 1013 b 585 810 535 897 560 853 b 492 803 553 806 521 803 b 211 903 332 803 249 838 b 514 617 250 722 361 617 b 696 636 564 617 628 624 b 818 469 738 575 778 521 l 804 456 b 653 467 751 463 697 467 b 236 192 399 467 236 360 b 676 -96 236 21 417 -96 z "},"ざ":{"ha":1389,"x_min":0,"x_max":0,"o":"m 1283 964 b 1354 1042 1325 964 1354 997 b 1036 1185 1354 1128 1238 1200 b 1188 1039 1085 1165 1142 1104 b 1283 964 1211 1004 1229 964 z m 593 -96 b 932 75 807 -96 932 -37 b 815 178 932 138 886 178 b 579 126 746 178 696 126 b 361 281 456 126 361 190 b 563 440 361 376 443 440 b 771 361 663 440 718 397 b 981 206 858 301 886 206 b 1110 342 1057 206 1110 261 b 925 583 1110 436 997 493 b 844 690 894 621 868 657 b 938 722 878 701 910 711 b 1061 829 1010 750 1061 776 b 1013 889 1061 864 1042 878 l 876 942 b 875 921 878 939 881 931 b 838 896 871 913 860 904 b 747 865 811 886 781 875 b 696 990 729 903 713 944 b 668 1072 678 1039 674 1068 b 488 1118 661 1076 525 1118 b 243 1029 446 1118 350 1083 b 428 944 344 1031 393 1013 b 501 810 451 897 476 853 b 408 803 469 806 438 803 b 128 903 249 803 165 838 b 431 617 167 722 278 617 b 613 636 481 617 544 624 b 735 469 654 575 694 521 l 721 456 b 569 467 668 463 614 467 b 153 192 315 467 153 360 b 593 -96 153 21 333 -96 z m 1128 840 b 1203 921 1174 840 1203 874 b 908 1101 1203 1010 1099 1081 b 1049 896 956 1063 997 996 b 1128 840 1058 876 1082 840 z "},"し":{"ha":1389,"x_min":0,"x_max":0,"o":"m 671 -65 b 1296 532 961 -65 1197 156 b 710 207 1219 358 968 207 b 508 354 576 207 508 251 b 653 888 508 461 583 690 b 694 992 676 953 694 985 b 468 1101 694 1007 511 1101 b 221 1011 389 1101 278 1063 b 315 1001 260 1018 293 1015 b 353 917 338 988 351 960 b 329 250 358 756 329 390 b 671 -65 329 46 450 -65 z "},"じ":{"ha":1389,"x_min":0,"x_max":0,"o":"m 671 -65 b 1296 532 961 -65 1197 156 b 710 207 1219 358 968 207 b 508 354 576 207 508 251 b 653 888 508 461 583 690 b 694 992 676 953 694 985 b 468 1101 694 1007 511 1101 b 221 1011 389 1101 278 1063 b 315 1001 260 1018 293 1015 b 353 917 338 988 351 960 b 329 250 358 756 329 390 b 671 -65 329 46 450 -65 z m 1029 714 b 1100 792 1071 714 1100 747 b 782 935 1100 878 983 950 b 933 789 831 915 888 854 b 1029 714 957 754 975 714 z m 874 590 b 949 671 919 590 949 624 b 654 851 949 760 844 831 b 794 646 701 813 743 746 b 874 590 804 626 828 590 z "},"す":{"ha":1389,"x_min":0,"x_max":0,"o":"m 272 -82 b 914 365 689 -46 914 118 b 858 544 914 439 896 500 b 865 740 854 606 858 676 b 1085 725 936 739 1008 735 b 1249 707 1168 715 1229 707 b 1322 769 1292 707 1322 733 b 1288 831 1322 793 1311 813 l 1092 976 b 1003 926 1089 954 1054 939 b 886 908 983 922 940 915 l 890 938 b 917 1032 904 1006 917 1026 b 733 1131 917 1050 776 1131 b 507 1042 661 1131 569 1092 b 650 925 590 1072 635 1024 l 656 886 b 251 869 526 876 367 869 b 83 954 146 869 104 906 b 132 738 79 896 96 799 b 304 633 147 711 274 633 b 422 678 315 633 361 658 b 669 731 504 704 586 722 b 676 619 671 699 674 663 l 672 619 b 404 371 519 619 404 513 b 583 164 404 260 478 178 b 610 161 592 163 601 161 b 272 -82 546 60 415 -36 z m 582 385 b 504 468 535 385 503 422 b 606 579 506 521 550 579 b 671 497 644 579 671 551 b 582 385 671 429 629 385 z "},"ず":{"ha":1389,"x_min":0,"x_max":0,"o":"m 1328 1028 b 1389 1096 1364 1028 1389 1057 b 1113 1219 1389 1171 1288 1233 b 1244 1093 1154 1203 1204 1150 b 1328 1028 1264 1063 1281 1028 z m 1192 921 b 1257 990 1232 921 1257 950 b 1001 1147 1257 1068 1167 1129 b 1124 968 1042 1114 1078 1056 b 1192 921 1132 951 1151 921 z m 226 -82 b 868 365 643 -46 868 118 b 813 544 868 439 850 500 b 819 740 808 606 813 676 b 1039 725 890 739 963 735 b 1203 707 1122 715 1183 707 b 1276 769 1246 707 1276 733 b 1242 831 1276 793 1265 813 l 1046 976 b 957 926 1043 954 1008 939 b 840 908 938 922 894 915 l 844 938 b 871 1032 858 1006 871 1026 b 688 1131 871 1050 731 1131 b 461 1042 615 1131 524 1092 b 604 925 544 1072 589 1024 l 610 886 b 206 869 481 876 321 869 b 38 954 100 869 58 906 b 86 738 33 896 50 799 b 258 633 101 711 228 633 b 376 678 269 633 315 658 b 624 731 458 704 540 722 b 631 619 625 699 628 663 l 626 619 b 358 371 474 619 358 513 b 538 164 358 260 432 178 b 564 161 546 163 556 161 b 226 -82 500 60 369 -36 z m 536 385 b 458 468 489 385 457 422 b 560 579 460 521 504 579 b 625 497 599 579 625 551 b 536 385 625 429 583 385 z "},"せ":{"ha":1389,"x_min":0,"x_max":0,"o":"m 807 -92 b 1290 126 1103 -92 1290 -3 b 1181 231 1290 188 1246 231 b 947 149 1107 231 1058 185 b 743 115 896 132 831 115 b 521 296 590 115 524 169 b 558 574 519 338 538 453 b 725 590 611 581 669 588 b 797 593 749 592 772 592 b 793 463 797 547 796 503 b 739 390 790 410 781 390 b 671 401 725 390 706 393 l 594 421 l 746 264 b 800 176 785 224 753 176 b 1021 357 933 176 1021 256 b 1004 586 1021 411 1011 501 b 1113 575 1040 583 1078 579 b 1276 556 1196 564 1257 556 b 1347 621 1317 556 1347 583 b 1315 682 1347 643 1339 664 l 1131 821 b 1042 771 1128 799 1093 783 b 999 763 1033 768 1018 765 b 1013 881 1000 797 1004 838 b 1042 1000 1024 944 1042 993 b 872 1089 1042 1018 911 1089 b 667 1006 817 1089 732 1054 b 790 893 756 1014 785 990 b 796 735 793 840 796 788 l 701 726 b 588 719 665 724 626 721 b 613 833 596 761 604 800 b 640 936 628 897 640 929 b 456 1035 640 954 499 1035 b 236 960 383 1035 286 996 b 361 850 314 972 358 935 b 364 714 363 804 363 760 b 213 717 304 714 251 715 b 42 808 107 722 63 764 b 93 585 38 754 57 646 b 253 492 108 558 222 492 b 336 525 261 492 294 510 b 367 536 346 529 357 532 b 369 260 367 429 367 333 b 807 -92 376 14 538 -92 z "},"ぜ":{"ha":1389,"x_min":0,"x_max":0,"o":"m 1318 993 b 1383 1064 1357 993 1383 1024 b 1093 1194 1383 1143 1276 1208 b 1231 1061 1138 1176 1189 1121 b 1318 993 1253 1029 1269 993 z m 1176 879 b 1244 953 1218 879 1244 910 b 975 1118 1244 1035 1150 1100 b 1104 931 1019 1083 1057 1022 b 1176 879 1113 913 1135 879 z m 786 -92 b 1269 126 1082 -92 1269 -3 b 1160 231 1269 188 1225 231 b 926 149 1086 231 1038 185 b 722 115 875 132 810 115 b 500 296 569 115 503 169 b 538 574 499 338 517 453 b 704 590 590 581 649 588 b 776 593 728 592 751 592 b 772 463 776 547 775 503 b 718 390 769 410 760 390 b 650 401 704 390 685 393 l 574 421 l 725 264 b 779 176 764 224 732 176 b 1000 357 913 176 1000 256 b 983 586 1000 411 990 501 b 1092 575 1019 583 1057 579 b 1256 556 1175 564 1236 556 b 1326 621 1296 556 1326 583 b 1294 682 1326 643 1318 664 l 1110 821 b 1021 771 1107 799 1072 783 b 978 763 1013 768 997 765 b 992 881 979 797 983 838 b 1021 1000 1003 944 1021 993 b 851 1089 1021 1018 890 1089 b 646 1006 796 1089 711 1054 b 769 893 735 1014 764 990 b 775 735 772 840 775 788 l 681 726 b 567 719 644 724 606 721 b 592 833 575 761 583 800 b 619 936 607 897 619 929 b 435 1035 619 954 478 1035 b 215 960 363 1035 265 996 b 340 850 293 972 338 935 b 343 714 342 804 342 760 b 192 717 283 714 231 715 b 21 808 86 722 42 764 b 72 585 17 754 36 646 b 232 492 88 558 201 492 b 315 525 240 492 274 510 b 346 536 325 529 336 532 b 349 260 346 429 346 333 b 786 -92 356 14 517 -92 z "},"そ":{"ha":1389,"x_min":0,"x_max":0,"o":"m 976 -90 b 1263 88 1153 -90 1263 -25 b 1143 206 1263 161 1213 206 b 951 182 1093 206 1044 182 b 707 332 783 182 707 254 b 989 526 707 433 811 506 b 1236 528 1094 539 1183 526 b 1311 603 1282 529 1311 564 b 1269 678 1311 629 1299 657 l 1117 790 b 1019 715 1114 769 1082 744 b 496 549 922 671 704 601 l 490 561 b 1049 835 653 654 925 783 b 1139 872 1108 860 1139 863 b 953 1114 1139 914 1003 1114 b 838 1056 949 1114 910 1071 b 563 1029 754 1038 646 1028 b 411 1128 472 1031 429 1072 b 451 929 404 1064 418 993 b 618 833 465 903 588 833 b 700 901 629 833 651 863 b 882 1031 758 949 839 1006 b 890 999 910 1047 913 1024 b 454 567 765 838 486 592 b 233 501 403 524 288 508 b 81 388 167 493 81 486 b 218 233 81 310 140 233 b 394 331 271 233 335 296 b 813 515 540 414 654 465 l 818 506 b 564 210 657 438 564 353 b 976 -90 564 38 732 -90 z "},"ぞ":{"ha":1389,"x_min":0,"x_max":0,"o":"m 1328 958 b 1389 1025 1364 958 1389 986 b 1115 1149 1389 1099 1288 1161 b 1244 1022 1157 1132 1206 1079 b 1328 958 1265 993 1281 958 z m 931 -90 b 1217 88 1107 -90 1217 -25 b 1097 206 1217 161 1167 206 b 906 182 1047 206 999 182 b 661 332 738 182 661 254 b 943 526 661 433 765 506 b 1190 528 1049 539 1138 526 b 1265 603 1236 529 1265 564 b 1224 678 1265 629 1253 657 l 1071 790 b 974 715 1068 769 1036 744 b 450 549 876 671 658 601 l 444 561 b 1003 835 607 654 879 783 b 1093 872 1063 860 1093 863 b 907 1114 1093 914 957 1114 b 792 1056 903 1114 864 1071 b 517 1029 708 1038 600 1028 b 365 1128 426 1031 383 1072 b 406 929 358 1064 372 993 b 572 833 419 903 542 833 b 654 901 583 833 606 863 b 836 1031 713 949 793 1006 b 844 999 864 1047 867 1024 b 408 567 719 838 440 592 b 188 501 357 524 242 508 b 35 388 121 493 35 486 b 172 233 35 310 94 233 b 349 331 225 233 289 296 b 767 515 494 414 608 465 l 772 506 b 518 210 611 438 518 353 b 931 -90 518 38 686 -90 z m 1193 851 b 1258 921 1233 851 1258 881 b 1004 1076 1258 997 1168 1058 b 1125 900 1046 1043 1081 986 b 1193 851 1133 882 1154 851 z "},"た":{"ha":1389,"x_min":0,"x_max":0,"o":"m 261 -65 b 419 78 342 -65 397 -15 b 594 639 464 260 529 467 b 881 719 690 657 792 686 b 996 824 953 747 996 778 b 963 868 996 843 985 858 l 825 931 b 819 908 826 922 824 915 b 769 878 810 896 792 886 b 683 850 746 869 715 860 b 736 951 701 889 719 924 b 765 1006 758 989 765 1001 b 571 1129 765 1025 614 1128 b 336 1061 532 1131 446 1110 b 433 1039 381 1063 413 1056 b 457 932 458 1018 468 983 b 422 799 447 890 436 844 b 365 796 403 797 383 796 b 99 924 221 796 128 840 b 336 621 133 725 225 639 b 364 618 344 619 354 618 b 328 531 351 585 339 556 b 163 194 283 431 229 332 b 122 67 128 124 122 100 b 261 -65 122 -8 182 -65 z m 810 454 b 1071 481 875 471 1057 481 b 1179 468 1135 481 1165 468 b 1279 569 1240 468 1279 507 b 1071 721 1279 661 1193 721 b 603 522 960 721 808 665 b 968 581 736 564 881 581 b 983 575 979 581 983 578 b 975 567 983 572 981 569 b 810 454 906 533 865 503 z m 919 -65 b 1296 131 1164 -65 1296 6 b 1199 240 1296 196 1256 240 b 881 167 1113 240 1051 167 b 694 265 758 167 694 199 b 767 428 694 314 724 367 b 571 156 635 339 571 247 b 919 -65 571 31 696 -65 z "},"だ":{"ha":1389,"x_min":0,"x_max":0,"o":"m 261 -65 b 419 78 342 -65 397 -15 b 594 639 464 260 529 467 b 881 719 690 657 792 686 b 996 824 953 747 996 778 b 963 868 996 843 985 858 l 825 931 b 819 908 826 922 824 915 b 769 878 810 896 792 886 b 683 850 746 869 715 860 b 736 951 701 889 719 924 b 765 1006 758 989 765 1001 b 571 1129 765 1025 614 1128 b 336 1061 532 1131 446 1110 b 433 1039 381 1063 413 1056 b 457 932 458 1018 468 983 b 422 799 447 890 436 844 b 365 796 403 797 383 796 b 99 924 221 796 128 840 b 336 621 133 725 225 639 b 364 618 344 619 354 618 b 328 531 351 585 339 556 b 163 194 283 431 229 332 b 122 67 128 124 122 100 b 261 -65 122 -8 182 -65 z m 1282 892 b 1353 969 1324 892 1353 925 b 1035 1113 1353 1056 1236 1128 b 1186 967 1083 1093 1140 1032 b 1282 892 1210 932 1228 892 z m 1126 768 b 1201 849 1172 768 1201 801 b 907 1029 1201 938 1097 1008 b 1047 824 954 990 996 924 b 1126 768 1057 804 1081 768 z m 810 454 b 1071 481 875 471 1057 481 b 1179 468 1135 481 1165 468 b 1279 569 1240 468 1279 507 b 1071 721 1279 661 1193 721 b 603 522 960 721 808 665 b 968 581 736 564 881 581 b 983 575 979 581 983 578 b 975 567 983 572 981 569 b 810 454 906 533 865 503 z m 919 -65 b 1296 131 1164 -65 1296 6 b 1199 240 1296 196 1256 240 b 881 167 1113 240 1051 167 b 694 265 758 167 694 199 b 767 428 694 314 724 367 b 571 156 635 339 571 247 b 919 -65 571 31 696 -65 z "},"ち":{"ha":1389,"x_min":0,"x_max":0,"o":"m 456 -75 b 1239 290 969 -96 1238 58 b 843 563 1240 454 1078 563 b 538 481 749 563 636 531 l 522 493 b 597 663 547 553 572 610 b 946 738 715 676 851 701 b 1069 854 1018 765 1069 799 b 1028 903 1069 879 1053 893 l 881 965 b 879 943 883 958 883 951 b 833 908 874 931 861 918 b 694 871 797 894 749 882 l 733 951 b 763 1006 753 992 763 1001 b 572 1129 763 1025 615 1128 b 339 1061 533 1131 443 1110 b 454 932 431 1063 472 1019 b 432 838 449 903 440 871 l 408 838 b 128 938 249 838 165 872 b 351 664 156 807 243 700 b 375 657 360 661 367 658 b 263 393 342 564 303 472 b 178 210 233 336 178 281 b 321 71 178 131 239 71 b 524 340 439 71 425 203 b 833 535 611 460 725 535 b 969 364 914 535 969 463 b 456 -75 969 156 756 -46 z "},"ぢ":{"ha":1389,"x_min":0,"x_max":0,"o":"m 1286 933 b 1357 1011 1328 933 1357 967 b 1039 1154 1357 1097 1240 1169 b 1190 1008 1088 1135 1144 1074 b 1286 933 1214 974 1232 933 z m 400 -75 b 1183 290 914 -96 1182 58 b 788 563 1185 454 1022 563 b 482 481 693 563 581 531 l 467 493 b 542 663 492 553 517 610 b 890 738 660 676 796 701 b 1014 854 963 765 1014 799 b 972 903 1014 879 997 893 l 825 965 b 824 943 828 958 828 951 b 778 908 818 931 806 918 b 639 871 742 894 693 882 l 678 951 b 707 1006 697 992 707 1001 b 517 1129 707 1025 560 1128 b 283 1061 478 1131 388 1110 b 399 932 375 1063 417 1019 b 376 838 393 903 385 871 l 353 838 b 72 938 193 838 110 872 b 296 664 100 807 188 700 b 319 657 304 661 311 658 b 207 393 286 564 247 472 b 122 210 178 336 122 281 b 265 71 122 131 183 71 b 468 340 383 71 369 203 b 778 535 556 460 669 535 b 914 364 858 535 914 463 b 400 -75 914 156 700 -46 z m 1131 810 b 1206 890 1176 810 1206 843 b 911 1071 1206 979 1101 1050 b 1051 865 958 1032 1000 965 b 1131 810 1061 846 1085 810 z "},"っ":{"ha":1389,"x_min":0,"x_max":0,"o":"m 449 35 b 1186 404 908 43 1183 197 b 831 644 1189 553 1035 644 b 310 553 642 644 400 553 b 215 615 272 553 229 561 b 251 410 210 551 222 461 b 396 329 263 389 372 329 b 456 374 407 329 415 342 b 836 621 588 478 729 621 b 936 492 899 621 936 575 b 449 35 936 288 757 115 z "},"つ":{"ha":1389,"x_min":0,"x_max":0,"o":"m 389 36 b 1318 510 967 47 1314 244 b 871 821 1321 700 1128 821 b 199 694 625 821 313 694 b 78 778 143 694 96 711 b 125 525 74 694 89 586 b 301 426 140 499 271 426 b 378 481 313 426 322 439 b 878 790 539 601 735 790 b 1019 613 965 790 1019 726 b 389 36 1019 351 786 135 z "},"づ":{"ha":1389,"x_min":0,"x_max":0,"o":"m 1322 961 b 1371 1056 1363 972 1382 1013 b 1026 1111 1349 1138 1218 1178 b 1211 1010 1079 1104 1150 1060 b 1322 961 1243 982 1271 947 z m 1204 801 b 1256 899 1249 814 1268 854 b 925 997 1233 985 1114 1026 b 1114 835 981 972 1038 918 b 1204 801 1128 819 1160 790 z m 389 36 b 1318 510 967 47 1314 244 b 871 821 1321 700 1128 821 b 199 694 625 821 313 694 b 78 778 143 694 96 711 b 125 525 74 694 89 586 b 301 426 140 499 271 426 b 378 481 313 426 322 439 b 878 790 539 601 735 790 b 1019 613 965 790 1019 726 b 389 36 1019 351 786 135 z "},"て":{"ha":1389,"x_min":0,"x_max":0,"o":"m 1047 -75 b 1286 86 1199 -75 1286 -24 b 1118 211 1286 168 1225 211 b 693 486 850 211 693 313 b 1028 811 693 640 824 768 b 1172 807 1082 822 1131 817 b 1267 781 1211 797 1251 781 b 1343 892 1311 781 1343 826 b 1176 1044 1343 982 1275 1044 b 865 950 1086 1044 1014 1000 b 425 833 740 908 551 858 b 226 808 335 815 258 808 b 56 899 132 808 83 824 b 107 667 51 807 71 728 b 283 550 122 640 253 550 b 400 618 304 550 339 586 b 901 819 524 683 674 754 l 908 806 b 525 331 663 688 525 521 b 1047 -75 525 92 739 -75 z "},"で":{"ha":1389,"x_min":0,"x_max":0,"o":"m 1047 -75 b 1286 86 1199 -75 1286 -24 b 1118 211 1286 168 1225 211 b 693 486 850 211 693 313 b 1028 811 693 640 824 768 b 1172 807 1082 822 1131 817 b 1267 781 1211 797 1251 781 b 1343 892 1311 781 1343 826 b 1176 1044 1343 982 1275 1044 b 865 950 1086 1044 1014 1000 b 425 833 740 908 551 858 b 226 808 335 815 258 808 b 56 899 132 808 83 824 b 107 667 51 807 71 728 b 283 550 122 640 253 550 b 400 618 304 550 339 586 b 901 819 524 683 674 754 l 908 806 b 525 331 663 688 525 521 b 1047 -75 525 92 739 -75 z m 1285 542 b 1356 619 1326 542 1356 575 b 1038 763 1356 706 1239 778 b 1189 617 1086 743 1143 682 b 1285 542 1213 582 1231 542 z m 1129 418 b 1204 499 1175 418 1204 451 b 910 679 1204 588 1100 658 b 1050 474 957 640 999 574 b 1129 418 1060 454 1083 418 z "},"と":{"ha":1389,"x_min":0,"x_max":0,"o":"m 764 -60 b 1185 146 1029 -60 1185 15 b 1057 267 1185 219 1132 267 b 656 194 960 267 876 194 b 364 325 483 194 364 236 b 935 571 364 465 728 517 b 1090 626 1061 604 1090 614 b 997 875 1090 671 1010 867 b 765 928 954 906 856 928 b 842 849 811 906 842 883 b 800 794 842 835 831 815 b 622 668 739 753 678 710 b 618 860 613 724 613 788 b 653 1011 629 994 653 1004 b 454 1114 653 1029 497 1114 b 228 1051 382 1114 299 1089 b 360 929 308 1053 350 1013 b 383 736 369 842 378 779 b 514 582 392 672 436 619 b 306 261 390 475 306 368 b 764 -60 306 72 497 -60 z "},"ど":{"ha":1389,"x_min":0,"x_max":0,"o":"m 1272 892 b 1343 969 1314 892 1343 925 b 1025 1113 1343 1056 1226 1128 b 1176 967 1074 1093 1131 1032 b 1272 892 1200 932 1218 892 z m 718 -60 b 1139 146 983 -60 1139 15 b 1011 267 1139 219 1086 267 b 610 194 914 267 831 194 b 318 325 438 194 318 236 b 889 571 318 465 682 517 b 1044 626 1015 604 1044 614 b 951 875 1044 671 964 867 b 719 928 908 906 810 928 b 796 849 765 906 796 883 b 754 794 796 835 785 815 b 576 668 693 753 632 710 b 572 860 567 724 567 788 b 607 1011 583 994 607 1004 b 408 1114 607 1029 451 1114 b 182 1051 336 1114 253 1089 b 314 929 263 1053 304 1013 b 338 736 324 842 332 779 b 468 582 346 672 390 619 b 260 261 344 475 260 368 b 718 -60 260 72 451 -60 z m 1117 768 b 1192 849 1163 768 1192 801 b 897 1029 1192 938 1088 1008 b 1038 824 944 990 986 924 b 1117 768 1047 804 1071 768 z "},"な":{"ha":1389,"x_min":0,"x_max":0,"o":"m 218 17 b 390 238 325 17 350 126 b 504 544 424 329 461 438 b 549 651 518 581 533 617 b 854 746 668 667 783 700 b 917 833 893 772 917 804 b 893 871 917 849 910 861 l 744 944 b 740 913 747 932 746 922 b 714 888 735 904 725 896 b 650 858 696 875 674 865 b 708 958 669 894 689 928 b 738 1006 732 996 738 1001 b 543 1129 738 1025 590 1128 b 310 1061 504 1131 414 1110 b 425 932 399 1049 438 1021 b 403 828 421 901 413 865 b 361 829 388 828 375 828 b 117 944 240 839 167 876 b 317 668 165 818 222 714 b 343 657 325 664 335 660 l 325 618 b 144 324 275 521 215 424 b 75 161 97 257 75 204 b 218 17 75 78 132 17 z m 807 -86 b 1040 47 940 -86 1019 -40 l 1044 76 b 1190 -29 1111 24 1154 -29 b 1294 82 1251 -29 1294 15 b 1014 321 1294 199 1181 289 b 994 478 1003 383 994 442 b 1057 567 994 540 1019 567 b 1157 510 1115 567 1138 510 b 1303 625 1249 510 1303 554 b 917 794 1303 757 1140 836 b 1063 613 1003 779 1063 704 b 1043 588 1063 596 1056 588 b 919 604 1018 588 990 604 b 758 482 821 604 758 558 b 781 326 758 444 769 386 l 746 322 b 525 129 604 299 525 233 b 807 -86 525 8 646 -86 z m 688 86 b 558 138 610 86 558 106 b 728 189 558 190 694 189 b 799 185 753 189 776 188 l 799 176 b 688 86 794 122 763 86 z "},"に":{"ha":1389,"x_min":0,"x_max":0,"o":"m 400 -60 b 474 -29 453 -60 474 -43 b 465 78 474 -14 456 21 l 553 561 l 392 328 b 318 264 363 286 344 264 b 261 396 286 264 261 310 b 474 842 261 632 474 821 b 332 1028 474 865 375 1000 b 96 1100 269 1068 171 1097 b 172 908 144 1071 175 1010 b 108 365 168 804 108 579 b 400 -60 108 114 222 -60 z m 782 614 b 1096 706 914 688 990 703 b 1201 700 1139 707 1186 700 b 1289 792 1251 700 1289 735 b 1050 951 1289 886 1188 951 b 599 724 885 951 704 854 b 936 799 704 763 826 794 b 954 790 947 799 954 797 b 942 774 954 786 950 781 b 782 614 893 733 842 704 z m 974 -32 b 1326 178 1189 -32 1326 44 b 1213 300 1326 250 1279 300 b 915 226 1142 300 1083 226 b 694 364 779 226 694 271 b 753 540 694 413 714 471 b 585 244 638 444 585 339 b 974 -32 585 92 725 -32 z "},"ぬ":{"ha":1389,"x_min":0,"x_max":0,"o":"m 936 -18 b 1149 54 1018 -17 1090 8 b 1244 -25 1185 10 1213 -25 b 1353 96 1308 -25 1353 26 b 1283 257 1353 163 1325 215 b 1307 419 1299 306 1307 361 b 890 822 1307 638 1139 794 l 879 824 l 913 929 b 939 993 926 975 939 989 b 761 1107 939 1013 808 1106 b 528 1049 706 1108 610 1086 b 622 1026 571 1049 603 1042 b 633 875 649 1008 657 976 b 611 786 626 844 618 815 b 431 694 550 764 489 732 l 426 731 b 394 865 418 808 419 846 b 76 947 340 908 203 944 b 236 713 165 908 203 822 b 282 572 250 664 265 617 b 89 196 168 460 89 325 b 272 0 89 76 160 0 b 549 151 375 0 467 58 b 617 135 569 140 592 135 b 713 250 674 135 713 182 b 699 314 713 272 707 294 b 681 343 693 325 688 335 b 868 790 754 478 817 635 l 872 789 b 1049 457 988 754 1049 631 b 1040 368 1049 425 1046 396 b 1000 371 1026 369 1013 371 b 721 157 832 372 721 268 b 936 -18 721 56 806 -19 z m 504 483 b 461 550 485 506 469 529 b 439 644 453 571 444 606 b 601 754 486 689 542 726 b 504 483 572 653 539 561 z m 322 240 b 265 328 283 239 265 275 b 314 489 265 378 283 433 b 406 304 343 418 374 354 b 322 240 375 264 346 242 z m 828 149 b 757 186 786 149 757 164 b 850 232 757 214 793 232 b 967 210 894 232 933 224 b 828 149 931 171 883 149 z "},"ね":{"ha":1389,"x_min":0,"x_max":0,"o":"m 375 -107 b 597 110 515 -107 597 -22 b 557 592 597 199 557 381 b 825 776 650 713 732 776 b 997 468 939 776 997 647 b 989 369 997 433 994 400 b 957 371 978 369 968 371 b 663 167 772 372 663 268 b 899 -25 663 56 764 -26 b 1131 72 988 -25 1067 11 b 1243 -25 1175 21 1207 -25 b 1351 93 1307 -25 1351 24 b 1253 285 1351 181 1311 242 b 1275 447 1267 336 1275 390 b 938 838 1275 678 1136 838 b 560 668 843 838 717 797 l 560 678 b 664 797 610 732 664 792 b 581 914 664 814 613 883 l 585 943 b 611 1032 597 1007 611 1026 b 446 1131 611 1050 471 1131 b 219 1040 374 1131 282 1092 b 322 1028 263 1056 297 1049 b 363 911 347 1007 361 969 l 365 790 b 219 769 315 778 264 771 b 69 851 125 768 88 800 b 104 653 63 792 71 717 b 271 569 118 626 240 569 b 318 601 276 569 296 583 b 369 649 335 617 354 633 l 372 526 b 169 347 307 471 250 421 b 56 179 111 293 56 261 b 168 32 56 99 106 32 b 253 121 213 32 232 69 l 314 -1 b 326 -49 322 -19 326 -33 l 326 -68 b 375 -107 326 -90 333 -107 z m 342 129 b 265 136 326 129 296 132 l 260 138 b 286 194 268 156 276 175 b 374 354 304 229 336 293 b 372 203 374 288 374 233 b 342 129 371 174 372 129 z m 767 144 b 697 178 725 144 697 157 b 836 232 697 210 754 233 b 925 219 869 232 899 226 b 767 144 886 171 832 144 z "},"の":{"ha":1389,"x_min":0,"x_max":0,"o":"m 563 -50 b 1308 507 1024 7 1308 215 b 692 979 1308 786 1056 979 b 76 439 353 979 76 736 b 347 47 76 224 211 47 b 843 735 576 47 794 458 b 868 799 847 758 868 793 b 729 914 868 813 746 908 b 626 935 719 918 678 929 l 626 950 b 681 954 644 953 663 954 b 1019 586 882 954 1019 804 b 563 -50 1019 292 842 43 z m 376 308 b 288 496 342 308 289 382 b 549 928 285 694 396 864 b 610 810 597 919 619 882 b 376 308 586 628 475 308 z "},"は":{"ha":1389,"x_min":0,"x_max":0,"o":"m 826 -75 b 1097 76 981 -75 1078 -14 b 1100 103 1099 85 1100 94 b 1213 -4 1154 49 1175 -4 b 1324 111 1281 -4 1324 40 b 1065 351 1324 225 1218 314 b 1050 535 1058 406 1053 465 b 1050 628 1049 565 1049 596 b 1210 682 1108 640 1165 658 b 1304 799 1267 711 1304 750 b 1274 850 1304 822 1293 840 l 1131 911 b 1103 856 1135 889 1125 869 b 1067 838 1092 849 1081 843 l 1068 846 b 1108 1004 1086 967 1108 997 b 925 1103 1108 1022 968 1103 b 688 1013 858 1103 767 1068 b 838 897 781 1033 835 990 b 840 786 839 865 839 828 b 804 785 828 786 817 785 b 489 889 649 785 550 824 b 826 601 582 719 686 601 l 843 601 b 844 510 843 571 844 540 b 846 369 844 460 846 413 l 813 365 b 550 146 646 343 550 260 b 826 -75 550 15 669 -75 z m 400 -60 b 474 -29 453 -60 474 -43 b 465 78 474 -14 456 21 l 553 561 l 392 328 b 318 264 363 286 344 264 b 260 396 290 264 260 310 b 461 842 260 649 461 821 b 332 1028 461 865 375 1000 b 96 1100 269 1068 171 1097 b 172 908 144 1071 175 1010 b 108 365 168 804 108 579 b 400 -60 108 114 222 -60 z m 726 108 b 586 158 646 108 586 128 b 778 211 586 207 731 211 b 847 208 803 211 825 210 l 847 203 b 726 108 847 142 803 108 z "},"ば":{"ha":1389,"x_min":0,"x_max":0,"o":"m 1328 1022 b 1389 1090 1364 1022 1389 1051 b 1113 1214 1389 1165 1288 1228 b 1244 1088 1154 1197 1204 1144 b 1328 1022 1264 1057 1281 1022 z m 1192 915 b 1257 985 1232 915 1257 944 b 1001 1142 1257 1063 1167 1124 b 1124 963 1042 1108 1078 1050 b 1192 915 1132 946 1151 915 z m 790 -75 b 1061 76 944 -75 1042 -14 b 1064 103 1063 85 1064 94 b 1176 -4 1118 49 1139 -4 b 1288 111 1244 -4 1288 40 b 1029 351 1288 225 1182 314 b 1014 535 1022 406 1017 465 b 1014 628 1013 565 1013 596 b 1174 682 1072 640 1129 658 b 1268 799 1231 711 1268 750 b 1238 850 1268 822 1257 840 l 1094 911 b 1067 856 1099 889 1089 869 b 1031 838 1056 849 1044 843 l 1032 846 b 1072 1004 1050 967 1072 997 b 889 1103 1072 1022 932 1103 b 651 1013 822 1103 731 1068 b 801 897 744 1033 799 990 b 804 786 803 865 803 828 b 768 785 792 786 781 785 b 453 889 613 785 514 824 b 790 601 546 719 650 601 l 807 601 b 808 510 807 571 808 540 b 810 369 808 460 810 413 l 776 365 b 514 146 610 343 514 260 b 790 -75 514 15 633 -75 z m 364 -60 b 438 -29 417 -60 438 -43 b 429 78 438 -14 419 21 l 517 561 l 356 328 b 282 264 326 286 308 264 b 224 396 254 264 224 310 b 425 842 224 649 425 821 b 296 1028 425 865 339 1000 b 60 1100 233 1068 135 1097 b 136 908 108 1071 139 1010 b 72 365 132 804 72 579 b 364 -60 72 114 186 -60 z m 690 108 b 550 158 610 108 550 128 b 742 211 550 207 694 211 b 811 208 767 211 789 210 l 811 203 b 690 108 811 142 767 108 z "},"ぱ":{"ha":1389,"x_min":0,"x_max":0,"o":"m 1389 1033 b 1222 1200 1389 1124 1313 1200 b 1056 1043 1135 1200 1061 1129 b 918 1103 1011 1071 946 1103 b 681 1013 851 1103 760 1068 b 831 897 774 1033 828 990 b 833 786 832 865 832 828 b 797 785 821 786 810 785 b 482 889 642 785 543 824 b 819 601 575 719 679 601 l 836 601 b 838 510 836 571 838 540 b 839 369 838 460 839 413 l 806 365 b 543 146 639 343 543 260 b 819 -75 543 15 663 -75 b 1090 76 974 -75 1071 -14 b 1093 103 1092 85 1093 94 b 1206 -4 1147 49 1168 -4 b 1317 111 1274 -4 1317 40 b 1058 351 1317 225 1211 314 b 1043 535 1051 406 1046 465 b 1043 628 1042 565 1042 596 b 1203 682 1101 640 1158 658 b 1297 799 1260 711 1297 750 b 1267 850 1297 822 1286 840 l 1228 867 b 1389 1033 1315 869 1389 944 z m 1222 939 b 1128 1033 1171 939 1128 981 b 1222 1128 1128 1086 1171 1128 b 1317 1033 1274 1128 1317 1086 b 1222 939 1317 981 1274 939 z m 546 561 l 385 328 b 311 264 356 286 338 264 b 253 396 283 264 253 310 b 454 842 253 649 454 821 b 325 1028 454 865 368 1000 b 89 1100 263 1068 164 1097 b 165 908 138 1071 168 1010 b 101 365 161 804 101 579 b 393 -60 101 114 215 -60 b 467 -29 446 -60 467 -43 b 458 78 467 -14 449 21 z m 1096 856 b 1060 838 1085 849 1074 843 l 1061 846 b 1082 946 1068 890 1075 922 b 1125 900 1093 928 1107 913 b 1096 856 1124 882 1114 867 z m 840 203 b 719 108 840 142 796 108 b 579 158 639 108 579 128 b 771 211 579 207 724 211 b 840 208 796 211 818 210 z "},"ひ":{"ha":1389,"x_min":0,"x_max":0,"o":"m 547 -78 b 978 358 810 -78 978 101 b 892 721 978 447 947 569 l 906 728 b 1057 411 981 560 1042 438 b 1043 364 1076 375 1068 364 l 981 364 l 1074 257 b 1114 185 1104 221 1072 185 b 1321 357 1228 185 1321 256 b 1253 503 1321 421 1293 463 b 1044 721 1193 563 1106 615 b 924 1081 978 838 1006 1067 b 694 981 822 1097 694 1047 b 838 774 694 963 782 899 b 879 576 865 711 879 642 b 569 210 879 386 769 210 b 313 446 396 210 313 313 b 507 765 313 547 378 676 b 700 878 607 835 700 868 b 531 1021 700 903 571 1021 b 457 988 515 1021 482 996 b 254 949 388 964 304 949 b 79 1039 183 949 124 975 b 310 763 121 917 174 763 b 486 799 361 763 436 783 l 493 788 b 138 282 263 629 138 468 b 547 -78 138 69 307 -78 z "},"び":{"ha":1389,"x_min":0,"x_max":0,"o":"m 1303 979 b 1369 1051 1342 979 1369 1011 b 1072 1185 1369 1132 1260 1200 b 1214 1050 1118 1167 1171 1110 b 1303 979 1236 1017 1253 979 z m 1158 864 b 1228 939 1200 864 1228 896 b 953 1107 1228 1022 1131 1089 b 1083 915 997 1071 1036 1010 b 1158 864 1093 897 1115 864 z m 547 -78 b 978 358 810 -78 978 101 b 892 721 978 447 947 569 l 906 728 b 1057 411 981 560 1042 438 b 1043 364 1076 375 1068 364 l 981 364 l 1074 257 b 1114 185 1104 221 1072 185 b 1321 357 1228 185 1321 256 b 1253 503 1321 421 1293 463 b 1044 721 1193 563 1106 615 b 924 1081 978 838 1006 1067 b 694 981 822 1097 694 1047 b 838 774 694 963 782 899 b 879 576 865 711 879 642 b 569 210 879 386 769 210 b 313 446 396 210 313 313 b 507 765 313 547 378 676 b 700 878 607 835 700 868 b 531 1021 700 903 571 1021 b 457 988 515 1021 482 996 b 254 949 388 964 304 949 b 79 1039 183 949 124 975 b 310 763 121 917 174 763 b 486 799 361 763 436 783 l 493 788 b 138 282 263 629 138 468 b 547 -78 138 69 307 -78 z "},"ぴ":{"ha":1389,"x_min":0,"x_max":0,"o":"m 1188 825 b 1354 992 1278 825 1354 901 b 1188 1158 1354 1082 1278 1158 b 1021 992 1097 1158 1021 1082 b 1188 825 1021 901 1097 825 z m 547 -78 b 978 358 810 -78 978 101 b 892 721 978 447 947 569 l 906 728 b 1057 411 981 560 1042 438 b 1043 364 1076 375 1068 364 l 981 364 l 1074 257 b 1114 185 1104 221 1072 185 b 1321 357 1228 185 1321 256 b 1253 503 1321 421 1293 463 b 1044 721 1193 563 1106 615 b 924 1081 978 838 1006 1067 b 694 981 822 1097 694 1047 b 838 774 694 963 782 899 b 879 576 865 711 879 642 b 569 210 879 386 769 210 b 313 446 396 210 313 313 b 507 765 313 547 378 676 b 700 878 607 835 700 868 b 531 1021 700 903 571 1021 b 457 988 515 1021 482 996 b 254 949 388 964 304 949 b 79 1039 183 949 124 975 b 310 763 121 917 174 763 b 486 799 361 763 436 783 l 493 788 b 138 282 263 629 138 468 b 547 -78 138 69 307 -78 z m 1188 897 b 1093 992 1136 897 1093 939 b 1188 1086 1093 1044 1136 1086 b 1282 992 1239 1086 1282 1044 b 1188 897 1282 939 1239 897 z "},"ふ":{"ha":1389,"x_min":0,"x_max":0,"o":"m 754 -40 b 961 165 885 -40 961 49 b 832 419 961 246 900 335 b 874 422 846 421 860 422 b 1079 268 997 422 1079 353 b 1038 225 1079 233 1067 224 l 960 229 l 1126 83 b 1188 18 1174 49 1169 18 b 1351 183 1293 18 1351 82 b 944 457 1351 344 1185 457 b 813 444 900 457 857 453 l 785 476 b 653 683 717 557 653 622 b 700 750 653 713 669 736 b 751 760 714 757 736 760 b 843 715 808 760 833 715 b 985 839 929 715 985 764 b 397 1061 985 1015 744 1107 b 706 831 574 1033 706 935 b 651 751 706 799 699 772 b 439 575 572 717 439 683 b 531 396 439 515 481 457 l 550 372 b 232 268 442 333 335 293 b 157 257 203 261 178 257 b 64 343 113 257 75 276 b 90 63 42 217 57 99 b 269 -28 129 19 243 -28 b 340 40 278 -28 306 3 b 413 118 364 67 389 92 b 754 -40 518 15 640 -40 z m 551 126 b 431 139 514 126 471 132 b 604 307 492 203 549 261 b 667 192 640 264 667 229 b 551 126 667 142 619 126 z "},"ぶ":{"ha":1389,"x_min":0,"x_max":0,"o":"m 1272 913 b 1343 990 1314 913 1343 946 b 1025 1133 1343 1076 1226 1149 b 1176 988 1074 1114 1131 1053 b 1272 913 1200 953 1218 913 z m 754 -40 b 961 165 885 -40 961 49 b 832 419 961 246 900 335 b 874 422 846 421 860 422 b 1079 268 997 422 1079 353 b 1038 225 1079 233 1067 224 l 960 229 l 1126 83 b 1188 18 1174 49 1169 18 b 1351 183 1293 18 1351 82 b 944 457 1351 344 1185 457 b 813 444 900 457 857 453 l 785 476 b 653 683 717 557 653 622 b 700 750 653 713 669 736 b 751 760 714 757 736 760 b 843 715 808 760 833 715 b 985 839 929 715 985 764 b 397 1061 985 1015 744 1107 b 706 831 574 1033 706 935 b 651 751 706 799 699 772 b 439 575 572 717 439 683 b 531 396 439 515 481 457 l 550 372 b 232 268 442 333 335 293 b 157 257 203 261 178 257 b 64 343 113 257 75 276 b 90 63 42 217 57 99 b 269 -28 129 19 243 -28 b 340 40 278 -28 306 3 b 413 118 364 67 389 92 b 754 -40 518 15 640 -40 z m 1117 789 b 1192 869 1163 789 1192 822 b 897 1050 1192 958 1088 1029 b 1038 844 944 1011 986 944 b 1117 789 1047 825 1071 789 z m 551 126 b 431 139 514 126 471 132 b 604 307 492 203 549 261 b 667 192 640 264 667 229 b 551 126 667 142 619 126 z "},"ぷ":{"ha":1389,"x_min":0,"x_max":0,"o":"m 1128 821 b 1294 988 1218 821 1294 897 b 1128 1154 1294 1078 1218 1154 b 961 988 1038 1154 961 1078 b 1128 821 961 897 1038 821 z m 754 -40 b 961 165 885 -40 961 49 b 832 419 961 246 900 335 b 874 422 846 421 860 422 b 1079 268 997 422 1079 353 b 1038 225 1079 233 1067 224 l 960 229 l 1126 83 b 1188 18 1174 49 1169 18 b 1351 183 1293 18 1351 82 b 944 457 1351 344 1185 457 b 813 444 900 457 857 453 l 785 476 b 653 683 717 557 653 622 b 700 750 653 713 669 736 b 751 760 714 757 736 760 b 843 715 808 760 833 715 b 985 839 929 715 985 764 b 397 1061 985 1015 744 1107 b 706 831 574 1033 706 935 b 651 751 706 799 699 772 b 439 575 572 717 439 683 b 531 396 439 515 481 457 l 550 372 b 232 268 442 333 335 293 b 157 257 203 261 178 257 b 64 343 113 257 75 276 b 90 63 42 217 57 99 b 269 -28 129 19 243 -28 b 340 40 278 -28 306 3 b 413 118 364 67 389 92 b 754 -40 518 15 640 -40 z m 1128 893 b 1033 988 1076 893 1033 935 b 1128 1082 1033 1040 1076 1082 b 1222 988 1179 1082 1222 1040 b 1128 893 1222 935 1179 893 z m 551 126 b 431 139 514 126 471 132 b 604 307 492 203 549 261 b 667 192 640 264 667 229 b 551 126 667 142 619 126 z "},"へ":{"ha":1389,"x_min":0,"x_max":0,"o":"m 1211 78 b 1353 215 1294 78 1353 135 b 1199 419 1353 306 1296 360 b 756 743 986 550 897 640 b 538 846 667 807 614 846 b 242 718 438 846 349 794 b 124 668 197 686 156 668 b 46 751 83 668 54 694 b 99 485 31 643 63 524 b 301 390 131 451 253 390 b 317 401 311 390 313 393 b 538 810 367 503 464 810 b 681 635 582 810 607 760 b 1004 167 758 503 867 288 b 1211 78 1065 113 1135 78 z "},"べ":{"ha":1389,"x_min":0,"x_max":0,"o":"m 1156 811 b 1218 896 1197 815 1222 851 b 888 1006 1210 982 1086 1042 b 1053 876 938 990 1000 936 b 1156 811 1081 844 1101 806 z m 1014 672 b 1081 760 1060 676 1085 713 b 768 908 1071 849 960 908 b 929 719 819 875 868 813 b 1014 672 942 701 968 667 z m 1211 78 b 1353 215 1294 78 1353 135 b 1199 419 1353 306 1296 360 b 756 743 986 550 897 640 b 538 846 667 807 614 846 b 242 718 438 846 349 794 b 124 668 197 686 156 668 b 46 751 83 668 54 694 b 99 485 31 643 63 524 b 301 390 131 451 253 390 b 317 401 311 390 313 393 b 538 810 367 503 464 810 b 681 635 582 810 607 760 b 1004 167 758 503 867 288 b 1211 78 1065 113 1135 78 z "},"ぺ":{"ha":1389,"x_min":0,"x_max":0,"o":"m 976 694 b 1143 861 1067 694 1143 771 b 976 1028 1143 951 1067 1028 b 810 861 886 1028 810 951 b 976 694 810 771 886 694 z m 976 767 b 882 861 925 767 882 808 b 976 956 882 914 925 956 b 1071 861 1028 956 1071 914 b 976 767 1071 808 1028 767 z m 1211 78 b 1353 215 1294 78 1353 135 b 1199 419 1353 306 1296 360 b 756 743 986 550 897 640 b 538 846 667 807 614 846 b 242 718 438 846 349 794 b 124 668 197 686 156 668 b 46 751 83 668 54 694 b 99 485 31 643 63 524 b 301 390 131 451 253 390 b 317 401 311 390 313 393 b 538 810 367 503 464 810 b 681 635 582 810 607 760 b 1004 167 758 503 867 288 b 1211 78 1065 113 1135 78 z "},"ほ":{"ha":1389,"x_min":0,"x_max":0,"o":"m 838 -68 b 1094 72 986 -68 1074 -10 l 1099 97 b 1235 -3 1158 46 1194 -3 b 1325 111 1283 -3 1325 42 b 1063 344 1325 219 1218 310 b 1050 471 1057 385 1051 428 b 1051 524 1050 486 1050 504 b 1238 581 1121 536 1189 554 b 1311 669 1282 604 1311 632 b 1276 717 1311 685 1306 704 l 1146 772 b 1139 750 1146 767 1144 758 b 1104 718 1132 739 1121 726 b 1071 704 1094 714 1083 708 l 1074 721 b 1085 782 1079 761 1085 778 b 832 836 1085 797 965 825 b 1247 929 1017 844 1178 883 b 1290 993 1274 947 1290 967 b 1267 1026 1290 1010 1282 1018 l 1117 1108 b 1110 1083 1118 1101 1115 1093 b 1079 1054 1103 1074 1093 1063 b 756 993 1010 1013 832 993 b 493 1072 622 993 518 1029 b 751 836 544 942 624 851 b 810 813 775 833 794 825 b 850 707 835 792 849 754 l 851 669 b 772 667 824 668 796 667 b 492 769 649 667 535 710 b 824 503 565 600 672 503 l 856 503 b 858 360 857 453 857 404 b 832 357 850 358 840 358 b 558 150 658 340 558 264 b 838 -68 558 29 678 -68 z m 400 -60 b 474 -29 453 -60 474 -43 b 465 78 474 -14 456 21 l 553 561 l 392 328 b 318 264 364 286 344 264 b 251 396 275 264 251 313 b 469 842 251 632 469 821 b 332 1028 469 865 375 1000 b 96 1100 269 1068 171 1097 b 172 908 144 1071 175 1010 b 114 365 168 804 114 579 b 400 -60 114 114 222 -60 z m 725 100 b 594 158 646 100 594 122 b 758 217 594 207 711 217 b 860 208 796 217 829 214 l 860 203 b 725 100 860 138 811 100 z "},"ぼ":{"ha":1389,"x_min":0,"x_max":0,"o":"m 1071 1219 b 1222 1074 1119 1200 1176 1139 b 1318 999 1246 1039 1264 999 b 1389 1076 1360 999 1389 1032 b 1071 1219 1389 1163 1272 1235 z m 990 344 b 979 471 985 385 981 426 b 981 521 979 486 979 503 b 1163 578 1049 533 1115 553 b 1236 669 1207 601 1236 632 b 1211 706 1236 685 1229 697 l 1071 772 b 1064 750 1071 767 1069 758 b 1029 718 1057 739 1046 726 b 1001 707 1021 714 1011 710 l 1001 708 b 1019 782 1010 758 1019 776 b 779 836 1019 797 890 825 b 1035 882 892 842 992 864 b 1079 939 1061 893 1078 915 l 1083 931 b 1163 875 1093 911 1117 875 b 1238 956 1208 875 1238 908 b 943 1136 1238 1044 1133 1115 b 1053 989 981 1106 1014 1057 l 904 1069 b 903 1047 906 1063 906 1056 b 867 1019 899 1038 888 1028 b 681 993 829 1006 757 993 b 418 1072 547 993 443 1029 b 676 836 469 942 549 851 b 735 813 700 833 719 825 b 775 707 760 792 774 754 l 776 669 b 697 667 749 668 721 667 b 417 769 574 667 460 710 b 749 499 490 600 597 499 l 781 499 b 783 360 782 453 782 406 b 732 354 765 358 749 357 b 483 150 575 332 483 258 b 763 -75 483 22 603 -75 b 1015 56 903 -75 989 -24 b 1022 90 1019 67 1021 79 b 1146 -3 1082 42 1118 -3 b 1250 111 1208 -3 1250 42 b 990 344 1250 219 1144 308 z m 493 561 l 332 328 b 261 264 304 286 289 264 b 197 396 222 264 197 310 b 410 842 197 632 410 821 b 272 1028 410 865 315 1000 b 36 1100 210 1068 111 1097 b 113 908 85 1071 115 1010 b 57 365 110 804 57 579 b 340 -60 57 114 171 -60 b 414 -29 393 -60 414 -43 b 406 78 414 -14 396 21 z m 785 197 b 650 104 785 138 736 104 b 519 158 565 104 519 124 b 683 213 519 207 636 213 b 785 204 719 213 754 210 z "},"ぽ":{"ha":1389,"x_min":0,"x_max":0,"o":"m 1078 929 b 1192 883 1108 901 1149 883 b 1358 1050 1282 883 1358 960 b 1192 1217 1358 1140 1282 1217 b 1025 1050 1101 1217 1025 1140 b 1033 999 1025 1032 1028 1015 l 904 1069 b 903 1047 906 1063 906 1056 b 867 1019 899 1038 888 1028 b 681 993 829 1006 757 993 b 418 1072 547 993 443 1029 b 676 836 469 942 549 851 b 735 813 700 833 719 825 b 775 707 760 792 774 754 l 776 669 b 697 667 749 668 721 667 b 417 769 574 667 460 710 b 749 499 490 600 597 499 l 781 499 b 783 360 782 453 782 406 b 732 354 765 358 749 357 b 483 150 575 332 483 258 b 763 -75 483 22 603 -75 b 1015 56 903 -75 989 -24 b 1022 90 1019 67 1021 79 b 1146 -3 1082 42 1118 -3 b 1250 111 1208 -3 1250 42 b 990 344 1250 219 1144 308 b 979 471 985 385 981 426 b 981 521 979 486 979 503 b 1163 578 1049 533 1115 553 b 1236 669 1207 601 1236 632 b 1211 706 1236 685 1229 697 l 1071 772 b 1064 750 1071 767 1069 758 b 1029 718 1057 739 1046 726 b 1001 707 1021 714 1011 710 l 1001 708 b 1019 782 1010 758 1019 776 b 779 836 1019 797 890 825 b 1035 882 892 842 992 864 b 1078 929 1058 892 1074 910 z m 1192 1144 b 1286 1050 1243 1144 1286 1103 b 1192 956 1286 997 1243 956 b 1097 1050 1140 956 1097 997 b 1192 1144 1097 1103 1140 1144 z m 493 561 l 332 328 b 258 264 303 286 289 264 b 197 396 222 264 197 310 b 410 842 197 632 410 821 b 272 1028 410 865 315 1000 b 36 1100 210 1068 111 1097 b 113 908 85 1071 115 1010 b 56 365 110 804 56 579 b 340 -60 56 114 169 -60 b 414 -29 393 -60 414 -43 b 406 78 414 -14 396 21 z m 785 197 b 650 104 785 138 736 104 b 519 158 565 104 519 124 b 683 213 519 207 636 213 b 785 204 719 213 754 210 z "},"ま":{"ha":1389,"x_min":0,"x_max":0,"o":"m 599 -71 b 867 110 771 -71 867 1 l 867 122 b 1078 -4 968 61 1032 -4 b 1182 111 1139 -4 1181 43 b 832 357 1185 232 1039 325 b 821 467 828 390 824 426 b 1049 525 904 481 985 501 b 1165 629 1121 553 1165 583 b 1131 675 1165 649 1153 667 l 988 726 b 986 706 989 724 992 715 b 949 681 982 697 971 689 b 818 642 910 665 865 653 l 826 724 b 1049 782 907 739 986 758 b 1164 886 1121 810 1164 840 b 1131 929 1164 906 1151 921 l 988 983 b 986 963 989 981 992 972 b 949 938 982 954 971 946 b 853 907 921 926 888 917 l 854 917 b 881 1019 869 992 881 1014 b 697 1118 881 1038 740 1118 b 458 1028 621 1118 524 1081 b 614 882 547 1049 611 992 l 614 864 b 519 858 581 860 549 858 b 169 958 381 858 236 900 b 528 693 251 800 393 693 b 618 697 554 693 585 694 l 619 607 b 519 601 585 603 550 601 b 282 722 326 601 292 643 b 528 436 213 522 338 436 b 621 440 556 436 588 438 b 622 367 621 415 622 392 b 582 364 610 367 597 365 b 281 146 382 346 281 264 b 599 -71 281 19 393 -71 z m 461 108 b 314 158 379 108 314 125 b 508 224 314 203 392 224 b 624 214 550 224 588 221 l 624 203 b 461 108 624 143 575 108 z "},"み":{"ha":1389,"x_min":0,"x_max":0,"o":"m 478 -85 b 1064 194 767 -32 943 50 l 1096 174 b 1256 93 1165 128 1210 93 b 1347 203 1308 93 1347 138 b 1236 389 1347 276 1306 338 b 1192 419 1222 400 1207 410 b 1226 518 1204 450 1215 483 b 1268 619 1251 597 1268 618 b 1106 729 1268 639 1136 726 b 899 683 1044 735 964 717 b 974 558 982 686 997 660 l 965 521 b 781 565 904 539 842 554 b 918 818 828 643 874 728 b 967 896 940 863 967 890 b 729 1088 967 931 771 1088 b 661 1024 721 1088 713 1050 b 394 957 596 990 488 957 b 276 1032 343 957 292 982 b 310 854 272 967 276 918 b 479 758 324 828 449 758 b 543 828 490 758 501 778 b 689 989 575 867 665 967 b 706 957 717 1015 722 1000 b 526 585 654 821 592 694 b 88 243 253 574 88 442 b 243 42 88 124 156 42 b 656 378 354 42 504 168 b 878 296 738 357 811 328 b 478 -85 788 132 646 -6 z m 154 233 b 118 265 132 233 118 247 b 403 407 118 335 244 400 b 154 233 314 299 226 233 z "},"む":{"ha":1389,"x_min":0,"x_max":0,"o":"m 653 -93 b 1040 -12 792 -93 940 -68 b 1136 115 1099 19 1136 64 b 1013 235 1136 133 1088 133 b 915 533 946 324 915 429 b 996 688 915 628 938 688 b 1076 561 1028 688 1076 636 b 1044 489 1076 535 1064 511 l 967 401 l 1124 404 b 1203 347 1181 406 1185 347 b 1335 538 1281 347 1335 425 b 1082 808 1335 697 1226 808 b 888 524 931 808 888 654 b 904 267 888 393 907 344 b 839 176 903 224 878 199 b 610 122 782 143 696 129 b 361 147 501 114 361 124 b 419 185 361 161 389 167 b 574 410 508 221 574 308 b 504 585 574 486 546 546 b 519 707 507 622 513 665 b 769 793 615 725 711 760 b 833 875 806 814 833 842 b 808 910 833 890 826 900 l 660 989 b 657 956 664 979 663 967 b 629 928 651 946 642 936 b 561 896 610 915 588 904 b 568 917 564 903 565 910 b 611 1011 592 986 610 1006 b 450 1128 615 1029 493 1128 b 228 1057 378 1128 299 1106 b 365 940 307 1071 365 1033 b 363 867 365 917 364 893 l 343 867 b 69 964 219 867 113 904 b 315 704 133 826 208 735 b 349 697 325 701 338 699 b 342 635 346 678 343 657 l 314 631 b 131 379 207 604 131 504 b 260 178 131 281 181 206 b 288 171 268 175 278 172 b 283 106 285 147 283 125 b 653 -93 283 -39 458 -93 z m 299 403 b 217 486 247 403 215 440 b 322 599 218 540 267 599 b 388 515 361 599 388 569 b 299 403 388 447 346 403 z "},"め":{"ha":1389,"x_min":0,"x_max":0,"o":"m 533 -60 b 1317 443 994 -35 1315 147 b 878 822 1317 649 1139 800 l 894 878 b 939 993 924 975 939 989 b 761 1107 939 1013 808 1106 b 528 1049 706 1108 610 1086 b 628 1024 575 1049 608 1042 b 646 932 647 1004 654 975 b 614 786 638 883 626 835 b 431 693 551 764 489 732 l 426 731 b 394 865 418 808 419 846 b 76 947 340 908 203 944 b 236 713 165 908 203 822 b 281 574 250 664 265 618 b 92 211 169 464 92 333 b 272 0 92 90 165 0 b 550 151 376 0 468 58 b 617 135 571 140 592 135 b 724 250 679 135 724 182 b 700 332 724 279 715 308 b 685 351 696 339 690 346 b 867 788 758 486 818 643 b 1025 492 963 753 1025 639 b 533 -60 1025 243 843 39 z m 504 483 b 457 550 482 504 465 528 b 436 644 446 581 440 611 b 604 754 486 689 543 728 b 504 483 576 656 540 563 z m 322 243 b 267 328 285 242 267 278 b 313 492 267 382 283 439 b 403 307 342 421 372 358 b 322 243 372 267 344 244 z "},"も":{"ha":1389,"x_min":0,"x_max":0,"o":"m 819 -85 b 1183 225 1026 -85 1183 49 b 907 617 1183 363 1092 522 b 1014 390 978 558 1014 472 b 786 158 1014 253 921 158 b 576 326 665 158 575 218 l 576 342 b 764 356 642 343 711 346 b 938 454 883 376 938 408 b 903 499 938 474 922 488 l 789 560 b 775 535 789 550 783 542 b 724 517 763 526 744 519 b 611 504 690 511 651 507 b 651 624 622 543 636 583 b 754 635 692 626 728 631 b 954 746 885 654 954 696 b 922 782 954 761 943 772 l 803 836 b 789 813 803 826 797 819 b 753 799 779 806 765 801 b 719 794 742 797 731 796 l 761 889 b 810 982 790 954 810 975 b 614 1129 810 997 657 1129 b 381 1079 551 1129 461 1110 b 481 1046 418 1075 456 1068 b 513 944 504 1025 517 993 b 493 782 508 894 501 839 l 451 782 b 196 900 340 782 243 821 b 415 626 231 739 300 651 b 468 619 432 624 450 621 b 453 503 463 581 457 542 l 438 503 b 193 614 315 510 231 554 b 390 351 238 453 296 378 b 438 343 406 347 421 344 b 436 278 438 321 436 299 b 819 -85 435 56 593 -85 z "},"ゃ":{"ha":1389,"x_min":0,"x_max":0,"o":"m 717 -103 b 826 28 783 -103 826 -50 b 813 110 826 54 821 82 b 622 486 783 207 694 354 l 636 499 b 843 579 685 547 754 579 b 988 442 925 579 988 521 b 878 314 988 367 943 314 b 744 443 800 314 749 361 b 956 133 706 272 799 133 b 1188 368 1092 133 1188 235 b 892 610 1188 513 1064 610 b 617 542 800 610 703 576 l 596 533 b 528 682 567 589 542 640 b 581 735 515 718 543 740 b 803 678 629 728 742 700 b 894 619 889 647 871 619 b 999 707 963 619 999 661 b 899 817 999 753 964 800 b 650 906 818 838 676 846 b 749 742 663 785 729 754 b 746 733 753 739 751 733 b 594 754 706 733 664 736 b 450 810 510 776 458 810 b 292 651 413 810 292 675 b 400 507 292 636 331 611 l 425 468 b 271 435 367 447 317 435 b 185 488 228 435 196 451 b 213 296 176 419 188 343 b 346 204 225 272 325 204 b 464 314 354 204 440 286 l 489 342 b 576 71 525 260 553 171 b 717 -103 599 -21 625 -103 z "},"や":{"ha":1389,"x_min":0,"x_max":0,"o":"m 736 -96 b 867 60 815 -96 867 -35 b 849 164 867 92 860 128 b 606 650 813 283 699 475 l 615 658 b 901 778 704 729 815 778 b 1089 599 1008 778 1089 704 b 946 432 1089 500 1031 432 b 776 596 847 432 781 490 b 1036 218 731 388 843 218 b 1326 513 1207 218 1326 344 b 960 815 1326 693 1176 815 b 594 722 850 815 722 772 l 572 713 b 482 913 533 788 500 856 b 544 976 468 953 500 982 b 843 901 614 967 763 931 b 957 831 946 864 928 831 b 1082 936 1039 831 1082 881 b 961 1069 1082 989 1043 1047 b 650 1188 863 1096 688 1108 b 781 982 668 1032 761 997 b 776 971 786 978 783 971 b 564 1001 729 971 654 978 b 390 1068 463 1028 400 1068 b 199 875 343 1068 199 904 b 332 696 199 857 249 824 b 371 632 346 675 358 654 b 235 588 324 614 278 599 b 160 579 208 581 183 579 b 49 650 106 579 64 601 b 88 413 42 572 54 476 b 249 304 101 386 224 304 b 390 435 260 304 354 399 l 443 489 b 567 117 493 376 535 250 b 736 -96 594 -3 629 -96 z "},"ゅ":{"ha":1389,"x_min":0,"x_max":0,"o":"m 433 -65 b 815 67 607 -61 743 -14 b 1172 347 1036 65 1172 176 b 883 657 1172 499 1053 628 l 885 663 b 911 750 897 713 911 744 b 796 826 911 760 832 824 b 597 768 743 831 650 811 b 669 758 632 774 656 769 b 697 692 686 744 694 724 l 700 650 b 443 414 574 617 481 525 b 432 415 440 406 435 410 b 426 461 426 426 426 444 b 446 554 426 492 433 528 b 499 636 467 597 499 631 b 389 768 499 654 424 749 b 196 819 344 793 271 814 b 278 664 249 803 276 738 b 268 328 279 583 268 465 b 439 57 268 149 335 57 b 558 172 511 57 558 103 b 460 394 558 199 431 271 b 701 618 488 510 581 592 b 692 281 706 507 692 379 l 692 264 b 603 447 629 288 597 342 b 661 122 568 294 592 185 b 433 -65 622 26 546 -37 z m 871 261 l 871 271 b 865 465 871 333 865 374 b 876 611 865 507 869 560 b 983 436 949 579 983 506 b 871 261 983 363 947 289 z "},"ゆ":{"ha":1389,"x_min":0,"x_max":0,"o":"m 372 -61 b 850 107 586 -56 758 4 b 882 106 867 106 871 106 b 1303 472 1164 106 1303 286 b 933 864 1303 647 1178 828 l 935 872 b 971 982 949 938 971 975 b 825 1079 971 994 868 1076 b 579 1008 753 1083 646 1058 b 675 996 625 1015 654 1011 b 711 908 697 979 708 951 l 714 856 b 365 525 542 813 411 686 b 351 529 363 515 356 519 b 339 600 344 546 339 574 b 372 736 339 646 351 696 b 436 842 397 786 436 835 b 306 1001 436 863 347 978 b 71 1068 251 1032 160 1061 b 171 872 138 1044 171 968 b 154 433 171 763 154 611 b 371 99 154 222 233 99 b 504 235 449 99 504 153 b 388 504 504 265 353 349 b 715 814 422 661 547 779 b 706 386 718 676 714 513 b 703 353 704 375 704 364 b 583 586 619 382 575 451 b 665 174 539 393 571 251 b 372 -61 614 54 515 -28 z m 924 350 b 922 383 924 361 922 372 b 913 618 919 456 913 510 b 924 806 913 669 915 738 b 1071 575 1022 765 1071 669 b 924 350 1071 481 1022 386 z "},"ょ":{"ha":1389,"x_min":0,"x_max":0,"o":"m 608 -75 b 819 65 743 -75 819 -17 l 819 68 b 1014 -36 917 19 982 -36 b 1100 67 1064 -36 1100 6 b 799 279 1100 174 983 253 b 790 406 796 317 792 360 b 790 546 789 450 789 500 b 1015 478 886 469 931 456 b 1110 578 1072 493 1110 532 b 1058 639 1110 606 1093 625 l 932 690 b 929 667 935 682 933 674 b 899 643 924 657 918 653 b 796 610 869 629 831 617 b 801 654 797 626 799 642 b 833 779 822 749 833 775 b 681 861 833 794 717 861 b 454 786 625 861 528 828 b 563 772 501 793 535 792 b 603 669 588 756 601 714 b 607 286 606 603 607 418 b 540 278 583 285 561 282 b 338 103 403 250 338 188 b 608 -75 338 -6 443 -75 z m 489 85 b 368 115 422 85 368 99 b 517 147 368 146 454 147 b 607 140 549 147 578 144 l 603 125 b 489 85 593 97 560 85 z "},"よ":{"ha":1389,"x_min":0,"x_max":0,"o":"m 571 -75 b 839 110 743 -75 839 1 l 839 115 b 1093 -26 968 49 1051 -26 b 1196 96 1154 -26 1196 24 b 813 363 1196 228 1044 329 b 801 535 808 413 804 471 b 803 721 799 593 800 660 b 1082 643 919 632 975 618 b 1206 765 1153 660 1206 708 b 1146 838 1206 800 1186 821 l 989 900 b 986 869 992 890 992 879 b 949 840 981 858 968 849 b 808 797 908 822 857 807 l 817 861 b 856 1019 838 982 856 1013 b 669 1118 856 1038 713 1118 b 388 1026 601 1118 486 1081 b 526 1010 449 1036 494 1032 b 578 882 558 988 575 946 b 585 372 582 771 585 540 b 556 369 575 371 565 371 b 235 146 338 351 235 264 b 571 -75 235 11 365 -75 z m 432 117 b 271 167 318 117 271 136 b 467 208 271 203 342 208 b 585 199 508 208 547 206 b 581 174 585 189 583 181 b 432 117 568 136 525 117 z "},"ら":{"ha":1389,"x_min":0,"x_max":0,"o":"m 456 -75 b 1239 294 969 -96 1238 58 b 860 563 1240 449 1079 563 b 514 443 749 563 621 517 l 500 456 b 519 539 506 485 513 514 b 549 617 531 581 549 613 b 314 758 549 642 314 690 b 444 810 314 790 374 804 b 692 807 528 817 619 817 b 821 772 775 796 792 772 b 911 871 875 772 911 813 b 583 1056 911 1049 669 1051 b 358 1174 493 1060 410 1074 b 538 926 390 993 444 949 b 601 913 569 919 601 919 b 578 906 601 908 596 908 b 399 864 514 896 450 885 b 299 750 339 838 299 801 b 294 660 299 718 301 701 b 232 399 281 581 269 536 b 169 207 210 317 169 281 b 321 64 169 125 235 64 b 497 303 447 64 386 156 b 825 533 601 440 725 533 b 953 353 897 533 953 469 b 456 -75 953 156 747 -46 z "},"り":{"ha":1389,"x_min":0,"x_max":0,"o":"m 396 -115 b 1163 493 900 -14 1163 211 b 850 954 1163 783 1078 954 b 524 651 699 954 585 824 b 507 626 517 633 513 626 b 506 733 489 626 496 693 b 543 835 514 765 526 800 b 601 925 564 878 601 919 b 472 1088 601 956 514 1063 b 254 1158 418 1121 353 1146 b 319 933 317 1114 321 1029 b 265 415 317 772 265 589 b 458 189 265 268 343 189 b 571 265 524 189 571 221 b 521 533 571 306 508 418 b 754 867 538 683 635 867 b 878 519 840 867 878 740 b 396 -115 878 260 735 36 z "},"る":{"ha":1389,"x_min":0,"x_max":0,"o":"m 735 -83 b 1206 272 1026 -81 1206 100 b 828 557 1206 435 1076 557 b 625 521 764 557 693 543 l 615 535 b 681 592 638 556 658 574 b 939 786 769 668 853 725 b 1025 836 979 815 1025 828 b 836 1086 1025 885 886 1086 b 721 1028 832 1086 793 1043 b 446 1001 638 1010 529 1000 b 294 1100 356 1003 313 1044 b 335 901 288 1036 301 965 b 501 806 349 875 471 806 b 583 874 513 806 535 835 b 765 1003 642 921 722 978 b 774 971 793 1019 796 996 b 357 554 633 810 417 608 b 124 283 206 417 124 393 b 251 151 124 208 179 151 b 507 424 336 151 319 257 b 767 514 567 478 674 514 b 965 350 878 514 965 454 b 879 190 965 285 935 229 b 621 328 822 275 731 326 b 388 146 483 329 388 251 b 735 -83 388 8 531 -85 z m 624 125 b 426 194 492 125 426 161 b 482 231 426 214 447 231 b 646 125 560 231 614 186 z "},"れ":{"ha":1389,"x_min":0,"x_max":0,"o":"m 375 -107 b 597 110 515 -107 597 -22 b 558 593 597 153 561 443 b 806 778 660 721 746 778 b 846 644 854 778 854 722 b 811 213 832 517 811 381 b 1024 -42 811 57 896 -42 b 1325 500 1210 -42 1294 158 b 1126 176 1265 314 1190 176 b 1078 281 1094 176 1078 213 b 1117 694 1078 431 1117 600 b 921 838 1117 775 1047 838 b 560 668 839 838 717 797 l 560 678 b 664 797 610 732 664 792 b 579 914 664 814 613 885 l 582 929 b 611 1032 594 1004 611 1026 b 446 1131 611 1050 471 1131 b 219 1040 374 1131 282 1092 b 322 1028 263 1056 297 1049 b 363 911 347 1007 361 969 l 365 790 b 219 769 315 778 264 771 b 69 851 125 768 88 800 b 104 653 63 792 71 717 b 271 569 118 626 240 569 b 333 615 278 569 306 592 b 369 649 346 626 358 638 l 372 526 b 169 347 307 471 250 424 b 56 179 111 293 56 261 b 168 32 56 99 106 32 b 253 118 211 32 231 68 l 314 -1 b 326 -49 324 -19 326 -33 l 326 -68 b 375 -107 326 -90 333 -107 z m 342 124 b 274 133 331 124 325 124 l 260 136 b 286 194 268 154 276 175 b 374 354 304 229 336 293 b 372 203 374 288 374 233 b 342 124 371 174 372 124 z "},"ろ":{"ha":1389,"x_min":0,"x_max":0,"o":"m 331 -28 b 1174 281 833 -117 1174 17 b 821 560 1174 447 1024 560 b 596 513 749 560 671 543 l 589 524 b 663 588 613 546 638 567 b 940 786 772 679 889 754 b 1026 836 981 811 1026 828 b 838 1086 1026 885 888 1086 b 722 1028 833 1086 794 1043 b 447 1001 639 1010 531 1000 b 296 1100 357 1003 314 1044 b 336 901 289 1036 303 965 b 503 806 350 875 472 806 b 585 874 514 806 536 835 b 767 1003 643 921 724 978 b 775 971 794 1019 797 996 b 354 564 633 811 414 618 b 125 283 203 426 125 393 b 253 151 125 208 181 151 b 521 436 329 151 319 263 b 732 514 574 482 660 514 b 889 346 825 514 889 444 b 331 -28 889 163 733 13 z "},"ゎ":{"ha":1389,"x_min":0,"x_max":0,"o":"m 440 -115 b 624 63 558 -115 624 -43 b 593 392 624 121 593 224 l 593 443 b 799 579 661 535 724 579 b 947 335 886 579 947 479 b 639 -85 947 128 814 -53 b 1181 325 975 -74 1181 90 b 882 625 1181 503 1057 625 b 594 496 810 625 715 596 l 594 500 b 681 599 636 546 681 596 b 611 693 681 613 639 669 l 614 710 b 635 775 622 756 635 771 b 500 857 635 790 518 857 b 317 782 440 857 365 824 b 396 771 346 793 374 789 b 428 678 415 754 426 728 l 431 590 b 322 576 394 582 357 578 b 203 640 244 574 217 599 b 226 479 196 592 201 531 b 365 410 238 457 338 410 b 406 439 369 410 386 422 b 433 464 415 447 425 456 l 435 381 b 286 254 389 340 347 308 b 190 117 238 211 190 186 b 285 -7 190 50 232 -7 b 354 65 322 -7 338 24 l 392 -29 b 400 -67 397 -44 400 -56 l 400 -82 b 440 -115 400 -96 401 -115 z m 399 67 b 368 78 386 67 375 74 l 361 82 b 438 233 376 119 414 194 b 435 114 438 189 439 154 b 399 67 433 100 429 67 z "},"わ":{"ha":1389,"x_min":0,"x_max":0,"o":"m 375 -107 b 597 110 515 -107 597 -22 b 557 594 597 194 557 388 b 840 781 653 719 739 781 b 1038 468 957 781 1038 653 b 638 -68 1038 208 867 -22 b 1317 457 1050 -50 1315 156 b 938 838 1317 682 1161 838 b 560 668 843 838 717 797 l 560 678 b 664 797 610 732 664 792 b 581 914 664 814 613 883 l 581 919 b 611 1032 593 1003 611 1026 b 446 1131 611 1050 471 1131 b 219 1040 374 1131 282 1092 b 322 1028 263 1056 297 1049 b 363 911 347 1007 361 969 l 365 790 b 219 769 315 778 264 771 b 69 851 125 768 88 800 b 104 653 63 792 71 717 b 271 569 118 626 240 569 b 343 624 278 569 313 596 b 369 649 353 632 361 640 l 372 526 b 169 347 307 471 250 424 b 56 179 111 293 56 261 b 168 32 56 99 106 32 b 253 121 213 32 232 69 l 314 -1 b 326 -49 324 -19 326 -33 l 326 -68 b 375 -107 326 -90 333 -107 z m 342 129 b 265 136 331 129 299 132 l 260 138 b 286 194 268 156 276 175 b 374 354 304 229 336 293 b 372 203 374 288 374 233 b 342 129 371 174 372 129 z "},"ゐ":{"ha":1389,"x_min":0,"x_max":0,"o":"m 865 -39 b 1286 360 1104 -37 1285 131 b 832 728 1286 574 1104 728 l 822 728 l 825 735 b 863 818 835 761 860 813 b 907 896 885 863 907 890 b 674 1088 907 931 715 1088 b 606 1024 665 1088 657 1050 b 339 957 540 990 432 957 b 221 1032 288 957 236 982 b 254 854 217 967 221 918 b 421 758 268 828 390 758 b 483 831 432 758 442 781 b 633 989 515 869 610 967 b 650 957 661 1015 664 1000 b 551 665 625 881 590 774 b 108 206 329 576 108 403 b 310 -10 108 79 204 -10 b 811 697 494 -10 638 235 l 818 697 b 1032 446 944 697 1032 599 b 1008 314 1032 397 1024 353 b 850 353 963 339 908 353 b 607 149 711 353 607 260 b 865 -39 607 32 715 -40 z m 297 239 b 254 304 271 239 254 268 b 538 629 254 438 385 557 b 297 239 463 431 374 239 z m 731 131 b 642 172 676 131 642 146 b 731 214 642 199 676 215 b 876 165 782 214 833 196 b 731 131 835 143 785 131 z "},"ゑ":{"ha":1389,"x_min":0,"x_max":0,"o":"m 182 -96 b 350 63 251 -96 264 -15 b 518 150 413 118 471 150 b 563 4 582 150 563 42 b 743 -97 563 -54 686 -97 b 807 11 786 -97 785 -60 b 1000 235 850 147 921 235 b 1094 110 1058 235 1094 176 b 1049 36 1094 72 1078 51 l 903 -43 l 1168 -54 b 1226 -92 1207 -56 1213 -92 b 1315 28 1276 -92 1315 -40 b 1014 260 1315 168 1189 260 b 729 151 913 260 803 217 b 613 204 706 183 668 204 b 454 158 554 204 501 185 l 449 171 b 551 265 483 201 518 233 b 692 246 592 253 639 246 b 1132 550 938 249 1131 379 b 840 767 1133 674 1008 767 b 676 742 783 767 729 757 l 669 754 b 885 868 738 793 814 831 b 957 901 931 893 957 893 b 765 1121 957 944 803 1121 b 672 1063 761 1121 743 1083 b 479 1036 622 1047 539 1036 b 322 1121 399 1036 340 1068 b 368 936 317 1075 338 996 b 524 857 382 910 493 857 b 592 926 535 857 544 882 b 733 1051 654 988 713 1040 b 743 1010 772 1072 771 1042 b 436 750 643 894 499 793 b 242 579 332 679 242 657 b 342 472 242 517 283 472 b 531 633 403 472 415 544 b 776 733 611 696 683 733 b 914 606 854 733 914 676 b 772 450 914 536 858 479 b 799 503 789 467 799 483 b 651 582 799 551 743 582 b 415 422 496 582 415 503 b 468 311 415 379 435 340 b 197 185 385 269 300 238 b 74 17 124 146 74 101 b 182 -96 74 -53 125 -96 z m 614 431 b 496 493 538 435 496 456 b 571 547 496 524 529 547 b 636 488 610 547 636 522 b 614 431 636 471 628 450 z "},"を":{"ha":1389,"x_min":0,"x_max":0,"o":"m 844 -107 b 1240 96 1086 -107 1240 -32 b 1131 199 1240 154 1196 199 b 682 94 1019 199 969 94 b 418 203 536 94 418 133 b 678 376 418 278 536 335 b 676 364 678 372 676 368 b 640 238 667 322 640 294 b 757 138 640 179 688 138 b 919 392 860 138 919 236 b 918 433 919 406 919 419 b 1083 463 983 446 1043 456 b 1232 503 1154 475 1232 486 b 1186 718 1232 517 1204 697 b 956 788 1157 751 1071 778 b 1011 722 993 768 1011 744 b 964 663 1011 701 1000 682 l 865 608 b 731 688 832 658 785 688 b 465 549 650 688 563 639 l 454 558 l 565 742 b 918 819 678 756 821 782 b 1042 926 990 847 1042 878 b 1000 972 1042 953 1021 964 l 853 1035 b 851 1013 856 1028 856 1021 b 806 978 846 1000 833 988 b 685 944 774 967 732 956 b 699 968 689 953 694 961 b 746 1042 732 1025 746 1035 b 564 1153 746 1058 601 1153 b 331 1099 494 1153 403 1132 b 465 979 419 1096 482 1068 b 446 910 461 958 454 935 b 381 907 424 908 401 907 b 100 1007 221 907 138 942 b 343 742 128 876 217 774 l 364 738 b 226 540 325 669 278 601 b 114 364 182 488 114 442 b 232 229 114 288 165 229 b 421 469 336 229 338 367 b 585 579 471 532 532 579 b 668 493 626 579 654 542 b 378 161 500 388 378 279 b 844 -107 378 -3 568 -107 z "},"ん":{"ha":1389,"x_min":0,"x_max":0,"o":"m 219 -74 b 361 118 319 -74 336 4 b 417 282 372 169 390 229 b 560 429 454 357 504 429 b 606 357 590 429 597 397 l 643 156 b 888 -72 671 4 751 -72 b 1315 632 1083 -72 1232 174 b 974 176 1225 378 1072 176 b 914 231 947 176 922 196 l 853 474 b 735 564 838 532 800 564 b 482 414 661 564 571 510 l 469 425 b 776 879 557 571 710 790 b 804 926 804 917 804 922 b 657 1089 804 947 690 1074 b 406 1107 611 1110 515 1126 b 465 910 497 1071 501 1019 b 183 347 429 801 311 558 b 71 83 114 231 71 161 b 219 -74 71 -8 133 -74 z "},"ゔ":{"ha":1389,"x_min":0,"x_max":0,"o":"m 293 817 b 760 928 483 894 671 928 b 901 911 822 928 879 911 b 944 975 926 911 944 935 b 764 1153 944 1076 867 1153 b 592 1118 714 1153 692 1128 b 319 1178 521 1111 392 1111 b 568 996 393 1053 467 1008 b 293 817 482 957 385 897 z m 1314 935 b 1385 1013 1356 935 1385 968 b 1067 1156 1385 1099 1268 1171 b 1218 1010 1115 1136 1172 1075 b 1314 935 1242 975 1260 935 z m 1158 811 b 1233 892 1204 811 1233 844 b 939 1072 1233 981 1129 1051 b 1079 867 986 1033 1028 967 b 1158 811 1089 847 1113 811 z m 235 -97 b 1086 413 786 -82 1085 122 b 674 776 1088 635 926 776 b 276 663 517 776 376 663 b 163 739 221 663 179 682 b 190 499 144 667 156 564 b 406 411 204 472 357 411 b 450 486 424 411 435 446 b 644 746 503 626 528 746 b 794 514 736 746 794 654 b 235 -97 794 167 599 -11 z "},"゙":{"ha":0,"x_min":0,"x_max":0,"o":"m -957 864 b -886 942 -915 864 -886 897 b -1204 1085 -886 1028 -1003 1100 b -1053 939 -1156 1065 -1099 1004 b -957 864 -1029 904 -1011 864 z m -1112 740 b -1037 821 -1067 740 -1037 774 b -1332 1001 -1037 910 -1142 981 b -1192 796 -1285 963 -1243 896 b -1112 740 -1182 776 -1158 740 z "},"゚":{"ha":0,"x_min":0,"x_max":0,"o":"m -1186 797 b -1019 964 -1096 797 -1019 874 b -1186 1131 -1019 1054 -1096 1131 b -1353 964 -1276 1131 -1353 1054 b -1186 797 -1353 874 -1276 797 z m -1186 869 b -1281 964 -1237 869 -1281 911 b -1186 1058 -1281 1017 -1237 1058 b -1092 964 -1135 1058 -1092 1017 b -1186 869 -1092 911 -1135 869 z "},"ゝ":{"ha":1389,"x_min":0,"x_max":0,"o":"m 381 197 b 701 225 515 213 676 225 b 768 164 750 225 744 164 b 971 363 897 164 971 238 b 415 829 971 561 776 757 b 685 425 572 747 685 574 b 642 347 685 394 669 365 b 381 197 574 303 456 236 z "},"ゞ":{"ha":1389,"x_min":0,"x_max":0,"o":"m 1144 704 b 1215 782 1186 704 1215 738 b 897 925 1215 868 1099 940 b 1049 779 946 906 1003 844 b 1144 704 1072 744 1090 704 z m 989 581 b 1064 661 1035 581 1064 614 b 769 842 1064 750 960 821 b 910 636 817 803 858 736 b 989 581 919 617 943 581 z m 353 197 b 674 225 488 213 649 225 b 740 164 722 225 717 164 b 943 363 869 164 943 238 b 388 829 943 561 749 757 b 657 425 544 747 657 574 b 614 347 657 394 642 365 b 353 197 546 303 428 236 z "},"ァ":{"ha":1389,"x_min":0,"x_max":0,"o":"m 235 -74 b 826 379 593 36 768 229 b 878 451 838 408 826 431 b 1131 589 981 493 1044 521 b 1169 615 1151 606 1169 610 b 940 856 1169 656 996 856 b 815 781 933 856 906 803 b 397 742 726 758 465 740 b 260 810 310 743 276 764 b 300 640 256 758 271 692 b 443 536 313 619 417 536 b 542 585 451 536 494 561 b 864 736 600 614 796 713 b 879 688 889 744 890 735 b 822 446 858 597 840 500 b 704 519 797 467 733 508 b 492 507 672 533 585 531 b 565 428 549 506 565 476 b 550 351 565 404 558 378 b 235 -74 493 171 353 -14 z "},"ア":{"ha":1389,"x_min":0,"x_max":0,"o":"m 115 -67 b 849 510 554 69 772 313 b 913 600 863 546 851 575 b 1238 782 1031 647 1136 697 b 1289 818 1264 803 1289 811 b 1017 1107 1289 867 1083 1107 b 860 1017 1008 1107 979 1043 b 310 967 724 986 386 965 b 139 1057 204 968 160 997 b 190 847 135 988 154 908 b 363 719 206 821 332 719 b 486 778 374 719 425 750 b 928 963 567 814 818 928 b 950 907 958 972 963 965 b 849 594 926 797 886 667 b 706 686 818 621 744 668 b 440 675 661 706 554 701 b 547 574 514 672 547 636 b 529 482 547 547 540 517 b 115 -67 456 247 271 14 z "},"ィ":{"ha":1389,"x_min":0,"x_max":0,"o":"m 753 -101 b 903 56 836 -101 899 -37 b 888 233 904 81 888 200 b 903 335 888 275 888 301 b 917 363 911 353 917 358 b 794 422 917 372 815 422 b 744 408 782 422 765 417 b 965 594 836 471 925 538 b 1018 649 986 624 1018 647 b 956 799 1018 668 975 782 b 715 867 914 835 828 863 b 790 763 768 839 796 810 b 185 208 769 608 376 297 b 597 319 315 224 464 257 b 638 332 615 328 626 332 b 681 282 660 332 681 315 b 658 -6 681 179 658 47 b 753 -101 658 -67 692 -101 z "},"イ":{"ha":1389,"x_min":0,"x_max":0,"o":"m 793 -93 b 964 97 885 -93 960 -15 b 947 322 965 132 947 274 b 967 454 947 376 953 411 b 986 500 976 483 986 494 b 842 572 986 511 868 572 b 774 554 825 572 803 565 b 1063 800 892 633 1006 722 b 1128 868 1089 836 1128 867 b 1053 1051 1128 894 1074 1032 b 757 1138 1006 1094 894 1131 b 851 996 829 1100 865 1064 b 558 628 832 900 710 760 b 75 297 401 492 214 363 b 603 450 247 322 433 368 b 654 465 622 460 640 465 b 708 399 685 465 708 443 b 681 22 708 271 681 97 b 793 -93 681 -53 719 -93 z "},"ゥ":{"ha":1388,"x_min":0,"x_max":0,"o":"m 244 -93 b 800 61 485 -69 661 -26 b 1126 442 925 140 1021 264 b 1171 510 1149 481 1171 506 b 943 688 1171 538 997 688 b 857 624 938 688 910 638 b 831 618 849 621 839 619 b 833 675 831 638 832 658 b 857 792 840 763 857 786 b 708 872 857 803 742 872 b 513 796 651 872 575 838 b 614 722 596 817 610 788 b 617 593 617 688 617 642 l 610 593 b 488 615 551 593 508 599 b 424 657 469 631 446 646 b 225 707 367 686 285 700 b 325 576 271 682 307 638 b 336 454 335 542 336 500 b 322 335 336 408 322 351 b 492 182 322 289 389 182 b 536 282 542 182 536 261 b 533 546 536 418 536 510 b 631 460 547 526 607 460 b 726 507 640 460 685 486 b 879 582 768 526 835 563 b 913 561 922 601 921 583 b 707 215 864 432 801 319 b 244 -93 583 79 425 -32 z "},"ウ":{"ha":1389,"x_min":0,"x_max":0,"o":"m 136 -86 b 831 119 444 -51 657 6 b 1240 607 992 226 1110 385 b 1296 689 1268 654 1296 685 b 1025 906 1296 724 1089 906 b 915 828 1018 906 985 843 b 858 817 896 824 878 819 b 861 899 858 844 860 876 b 890 1043 871 1006 890 1036 b 710 1142 890 1057 750 1142 b 468 1049 638 1142 547 1099 b 601 957 571 1074 596 1040 b 604 788 604 924 604 846 b 569 786 593 786 581 786 b 424 814 500 786 446 794 b 343 869 400 835 374 854 b 99 932 268 907 172 924 b 243 607 197 881 247 767 b 225 454 242 544 225 476 b 428 271 225 399 306 271 b 481 393 486 271 481 363 b 478 704 481 465 481 657 l 478 706 l 496 706 b 596 624 525 672 574 624 b 717 681 607 624 660 656 b 946 778 776 707 871 749 b 985 747 999 799 996 776 b 718 301 921 579 836 431 b 136 -86 564 132 361 -8 z "},"ェ":{"ha":1390,"x_min":0,"x_max":0,"o":"m 397 31 b 489 61 407 31 443 46 b 721 113 569 88 646 107 b 989 97 813 119 890 108 b 1124 82 1060 89 1111 82 b 1186 146 1160 82 1186 107 b 1157 201 1186 171 1176 186 l 994 326 b 922 285 992 311 974 297 b 817 267 900 279 865 274 b 819 397 814 318 814 364 b 836 450 824 425 836 449 b 632 514 836 465 732 522 b 842 533 681 538 782 539 b 999 515 935 525 957 515 b 1053 567 1031 515 1053 538 b 1017 626 1053 590 1043 607 l 869 733 b 825 700 869 725 851 710 b 668 671 796 689 732 679 b 449 654 585 660 490 654 b 314 699 361 654 329 667 b 351 536 310 657 322 589 b 490 461 364 514 464 461 b 558 493 494 461 521 475 b 582 501 575 501 578 501 b 597 463 600 501 597 471 b 589 246 597 414 596 336 b 351 239 499 240 410 239 b 215 317 267 239 231 275 b 256 125 213 264 224 182 b 397 31 269 100 374 31 z "},"エ":{"ha":1389,"x_min":0,"x_max":0,"o":"m 304 42 b 422 81 315 42 361 61 b 725 147 522 113 622 140 b 1085 126 839 156 957 142 b 1249 108 1168 117 1229 108 b 1322 183 1292 108 1322 138 b 1288 250 1322 213 1311 232 l 1092 403 b 1003 350 1089 381 1054 363 b 838 326 978 343 914 335 b 842 515 832 401 836 468 b 864 589 847 558 864 586 b 667 665 864 604 769 658 l 667 681 b 717 689 682 685 699 688 b 888 689 771 694 829 694 b 1082 668 1001 679 1033 668 b 1147 729 1121 668 1147 694 b 1104 801 1147 756 1136 778 l 925 931 b 868 888 924 917 901 900 b 668 851 826 872 744 861 b 375 828 544 835 422 828 b 206 888 269 828 226 844 b 256 688 201 835 219 749 b 424 596 271 661 393 596 b 513 638 431 596 460 613 b 556 650 535 647 547 650 b 579 597 581 650 579 613 b 568 303 579 528 575 418 b 251 292 444 294 328 292 b 81 390 146 292 101 336 b 132 157 76 326 96 218 b 304 42 147 131 274 42 z "},"ォ":{"ha":1389,"x_min":0,"x_max":0,"o":"m 697 -67 b 907 111 833 -67 907 3 b 872 417 907 169 883 238 b 872 485 871 440 871 463 b 1104 461 961 476 1083 461 b 1165 517 1140 461 1165 485 b 1135 569 1165 539 1154 554 l 983 683 b 910 643 981 667 956 654 b 883 638 904 642 896 640 l 888 663 b 924 790 904 758 924 785 b 757 871 924 806 790 871 b 561 797 697 871 622 839 b 639 786 594 806 622 797 b 685 703 663 771 683 739 l 688 614 b 394 603 549 603 451 601 b 257 674 307 606 274 642 b 296 490 253 631 269 540 b 439 413 307 469 415 413 b 531 453 449 413 485 436 b 606 474 554 461 579 468 b 167 33 488 278 338 122 b 694 319 374 85 563 197 b 693 189 696 256 694 207 b 663 138 692 171 692 138 b 599 149 653 138 632 142 l 546 160 l 647 17 b 697 -67 678 -28 625 -67 z "},"オ":{"ha":1389,"x_min":0,"x_max":0,"o":"m 711 -62 b 964 154 874 -62 964 22 b 913 549 964 226 921 318 b 914 654 911 582 911 618 b 1065 640 964 651 1015 647 b 1229 622 1149 631 1210 622 b 1303 688 1272 622 1303 650 b 1268 751 1303 713 1292 733 l 1083 890 b 994 840 1081 868 1049 856 b 932 828 983 838 961 832 l 940 874 b 983 1032 965 994 983 1025 b 782 1131 983 1050 825 1131 b 540 1042 710 1131 618 1092 b 644 1028 582 1051 618 1046 b 696 925 675 1008 693 972 b 701 799 697 889 700 846 l 674 796 b 315 786 542 783 403 783 b 149 847 210 790 171 796 b 196 654 144 786 160 715 b 368 561 211 628 338 561 b 486 611 379 561 425 589 b 607 640 522 624 563 633 b 35 67 456 388 264 185 b 707 447 303 135 543 285 b 706 247 708 361 707 288 b 672 183 704 218 704 183 b 596 200 661 183 638 188 l 511 225 l 650 39 b 663 -8 661 21 663 7 l 663 -31 b 711 -62 663 -53 669 -62 z "},"ヵ":{"ha":1389,"x_min":0,"x_max":0,"o":"m 181 -90 b 804 528 476 14 688 226 b 815 529 808 529 811 529 b 874 465 851 529 876 501 b 842 224 868 396 856 285 b 736 117 825 153 792 117 b 597 114 722 117 688 111 l 735 -6 b 792 -75 778 -43 768 -75 b 1057 133 964 -75 1033 0 b 1096 400 1072 218 1075 288 b 1128 472 1108 467 1128 469 b 906 636 1128 513 958 636 b 817 553 892 636 875 553 l 813 553 b 850 671 826 590 839 631 b 879 757 874 758 879 751 b 722 858 879 774 758 858 b 535 800 690 858 617 840 b 617 701 601 799 629 764 b 579 549 606 649 593 599 b 424 554 508 549 449 551 b 293 632 339 564 306 590 b 324 457 286 581 292 517 b 460 358 335 436 433 358 b 519 399 468 358 476 378 l 529 404 b 181 -90 453 213 340 43 z "},"カ":{"ha":1389,"x_min":0,"x_max":0,"o":"m 43 -83 b 839 701 408 43 694 326 l 879 706 b 950 628 925 708 953 675 b 908 304 944 533 928 393 b 776 165 889 213 847 165 b 590 174 754 165 703 167 l 768 22 b 839 -65 822 -24 811 -65 b 1164 200 1044 -65 1133 28 b 1213 551 1181 299 1189 406 b 1254 639 1225 632 1254 635 b 988 840 1254 688 1050 840 b 860 738 972 840 953 744 l 853 738 b 897 886 869 785 885 835 b 933 997 924 994 933 989 b 743 1121 933 1017 790 1119 b 510 1053 704 1122 614 1101 b 621 924 599 1050 635 1013 b 581 731 611 857 597 793 b 360 736 481 732 392 733 b 194 835 256 744 213 779 b 235 622 188 771 201 686 b 401 501 249 596 371 501 b 522 581 413 501 464 549 l 538 589 b 43 -83 433 294 261 61 z "},"ガ":{"ha":1389,"x_min":0,"x_max":0,"o":"m 1318 933 b 1389 1011 1360 933 1389 967 b 1071 1154 1389 1097 1272 1169 b 1222 1008 1119 1135 1176 1074 b 1318 933 1246 974 1264 933 z m 25 -83 b 821 701 390 43 676 326 l 861 706 b 932 628 907 708 935 675 b 890 304 926 533 910 393 b 758 165 871 213 829 165 b 572 174 736 165 685 167 l 750 22 b 821 -65 804 -24 793 -65 b 1146 200 1026 -65 1115 28 b 1194 551 1163 299 1171 406 b 1236 639 1207 632 1236 635 b 969 840 1236 688 1032 840 b 842 738 954 840 935 744 l 835 738 b 879 886 851 785 867 835 b 915 997 906 994 915 989 b 725 1121 915 1017 772 1119 b 492 1053 686 1122 596 1101 b 603 924 581 1050 617 1013 b 563 731 593 857 579 793 b 342 736 463 732 374 733 b 176 835 238 744 194 779 b 217 622 169 771 183 686 b 383 501 231 596 353 501 b 504 581 394 501 446 549 l 519 589 b 25 -83 415 294 243 61 z m 1163 810 b 1238 890 1208 810 1238 843 b 943 1071 1238 979 1133 1050 b 1083 865 990 1032 1032 965 b 1163 810 1093 846 1117 810 z "},"キ":{"ha":1389,"x_min":0,"x_max":0,"o":"m 815 -79 b 938 79 899 -79 938 -15 b 856 399 938 140 894 279 b 1083 414 933 407 1011 411 b 1264 418 1183 418 1244 417 b 1326 486 1306 421 1326 450 b 1282 554 1326 522 1307 540 l 1079 665 b 999 604 1075 643 1050 622 b 804 553 978 596 894 575 l 794 588 b 768 713 785 628 776 669 b 888 726 804 719 844 724 b 1046 733 961 731 1026 732 b 1099 789 1078 736 1099 758 b 1044 861 1099 819 1081 840 l 874 961 b 793 890 869 939 843 911 b 744 872 778 883 761 878 l 742 888 b 733 1029 732 956 739 1024 b 504 1099 711 1051 583 1099 b 279 1018 461 1099 363 1063 b 456 913 354 1022 422 992 b 497 803 469 879 483 842 b 281 775 426 786 353 775 b 150 828 204 775 164 807 b 224 629 154 761 179 683 b 403 575 242 607 371 575 b 522 638 419 575 456 604 b 544 649 529 642 538 646 b 581 500 557 600 569 550 b 211 436 468 474 275 436 b 74 494 135 436 94 468 b 154 290 75 450 111 346 b 333 203 172 268 294 203 b 453 263 350 203 386 232 b 614 338 500 285 554 313 b 646 132 626 267 638 197 b 815 -79 661 14 706 -79 z "},"ギ":{"ha":1389,"x_min":0,"x_max":0,"o":"m 1303 961 b 1374 1039 1344 961 1374 994 b 1056 1182 1374 1125 1257 1197 b 1207 1036 1104 1163 1161 1101 b 1303 961 1231 1001 1249 961 z m 815 -79 b 938 79 899 -79 938 -15 b 856 399 938 140 894 279 b 1083 414 933 407 1011 411 b 1264 418 1183 418 1244 417 b 1326 486 1306 421 1326 450 b 1282 554 1326 522 1307 540 l 1079 665 b 999 604 1075 643 1050 622 b 804 553 978 596 894 575 l 794 588 b 768 713 785 628 776 669 b 888 726 804 719 844 724 b 1046 733 961 731 1026 732 b 1099 789 1078 736 1099 758 b 1044 861 1099 819 1081 840 l 874 961 b 793 890 869 939 843 911 b 744 872 778 883 761 878 l 742 888 b 733 1029 732 956 739 1024 b 504 1099 711 1051 583 1099 b 279 1018 461 1099 363 1063 b 456 913 354 1022 422 992 b 497 803 469 879 483 842 b 281 775 426 786 353 775 b 150 828 204 775 164 807 b 224 629 154 761 179 683 b 403 575 242 607 371 575 b 522 638 419 575 456 604 b 544 649 529 642 538 646 b 581 500 557 600 569 550 b 211 436 468 474 275 436 b 74 494 135 436 94 468 b 154 290 75 450 111 346 b 333 203 172 268 294 203 b 453 263 350 203 386 232 b 614 338 500 285 554 313 b 646 132 626 267 638 197 b 815 -79 661 14 706 -79 z m 1147 838 b 1222 918 1193 838 1222 871 b 928 1099 1222 1007 1118 1078 b 1068 893 975 1060 1017 993 b 1147 838 1078 874 1101 838 z "},"ク":{"ha":1389,"x_min":0,"x_max":0,"o":"m 100 -54 b 849 217 433 14 660 82 b 1247 682 996 322 1118 463 b 1306 758 1275 729 1306 754 b 1026 989 1306 793 1093 989 b 914 919 1022 989 1011 942 b 700 897 857 907 765 897 l 686 897 l 690 910 b 711 954 700 942 711 953 b 576 1096 711 975 596 1089 b 342 1111 531 1113 433 1124 b 413 1060 375 1106 400 1088 b 418 938 428 1029 429 988 b 78 403 367 725 219 494 b 643 801 303 460 533 610 l 656 801 b 724 735 675 774 708 735 b 824 793 736 735 758 753 b 964 874 890 833 944 865 b 982 821 996 888 996 861 b 683 357 921 643 813 493 b 100 -54 525 189 325 53 z "},"グ":{"ha":1389,"x_min":0,"x_max":0,"o":"m 1329 1019 b 1389 1107 1371 1025 1396 1063 b 1054 1204 1376 1192 1251 1247 b 1225 1081 1106 1192 1169 1139 b 1329 1019 1253 1050 1276 1013 z m 22 -54 b 771 217 356 14 582 82 b 1169 682 918 322 1040 463 b 1228 758 1197 729 1228 754 b 949 989 1228 793 1015 989 b 836 919 944 989 933 942 b 622 897 779 907 688 897 l 608 897 l 613 910 b 633 954 622 942 633 953 b 499 1096 633 975 518 1089 b 264 1111 453 1113 356 1124 b 335 1060 297 1106 322 1088 b 340 938 350 1029 351 988 b 0 403 289 725 142 494 b 565 801 225 460 456 610 l 578 801 b 646 735 597 774 631 735 b 746 793 658 735 681 753 b 886 874 813 833 867 865 b 904 821 918 888 918 861 b 606 357 843 643 735 493 b 22 -54 447 189 247 53 z m 1193 876 b 1256 965 1239 882 1263 919 b 939 1104 1243 1054 1131 1110 b 1107 919 992 1072 1042 1011 b 1193 876 1119 901 1147 869 z "},"ヶ":{"ha":1390,"x_min":0,"x_max":0,"o":"m 288 -86 b 933 300 558 -33 847 86 b 964 354 943 322 964 353 b 840 469 964 372 867 460 b 728 475 818 478 772 476 b 831 494 763 485 794 490 b 938 503 865 499 904 503 b 1090 496 999 503 1057 496 b 1136 542 1115 496 1136 518 b 1106 594 1136 561 1128 582 l 971 671 b 917 628 969 658 950 639 b 781 596 883 617 832 604 b 668 585 749 590 699 585 b 646 586 661 585 654 585 b 693 689 667 619 683 653 b 708 722 700 714 708 721 b 596 839 708 739 613 833 b 410 849 558 851 482 860 b 461 708 461 840 479 785 b 203 294 424 549 311 363 b 576 500 339 328 479 401 b 635 438 600 464 625 438 b 678 458 640 438 664 453 l 697 467 b 711 386 725 454 729 433 b 288 -86 649 219 468 18 z "},"ケ":{"ha":1389,"x_min":0,"x_max":0,"o":"m 196 -78 b 994 424 535 -3 883 151 b 1033 493 1007 454 1033 492 b 885 633 1033 515 917 621 b 797 643 867 640 833 643 l 797 654 b 874 667 822 660 847 664 b 1029 676 925 672 979 676 b 1211 668 1101 676 1171 668 b 1265 722 1242 668 1265 694 b 1229 786 1265 750 1253 772 l 1064 881 b 996 826 1063 864 1036 840 b 818 788 953 813 885 797 b 656 772 757 778 696 772 b 624 775 646 772 635 774 b 683 903 650 817 671 860 b 711 954 693 935 711 953 b 576 1096 711 975 596 1089 b 342 1111 531 1113 433 1124 b 414 1051 383 1104 400 1082 b 415 938 426 1024 428 989 b 78 403 364 725 219 494 b 543 672 261 450 429 550 b 618 593 574 628 604 593 b 690 626 625 593 656 614 b 707 632 696 628 701 631 b 743 581 732 622 743 606 b 731 526 743 567 739 549 b 196 -78 651 311 428 58 z "},"ゲ":{"ha":1389,"x_min":0,"x_max":0,"o":"m 1315 975 b 1386 1053 1357 975 1386 1008 b 1068 1196 1386 1139 1269 1211 b 1219 1050 1117 1176 1174 1115 b 1315 975 1243 1015 1261 975 z m 168 -78 b 967 424 507 -3 856 151 b 1006 493 979 454 1006 492 b 857 633 1006 515 889 621 b 769 643 839 640 806 643 l 769 654 b 846 667 794 660 819 664 b 1001 676 897 672 951 676 b 1183 668 1074 676 1143 668 b 1238 722 1214 668 1238 694 b 1201 786 1238 750 1225 772 l 1036 881 b 968 826 1035 864 1008 840 b 790 788 925 813 857 797 b 628 772 729 778 668 772 b 596 775 618 772 607 774 b 656 903 622 817 643 860 b 683 954 665 935 683 953 b 549 1096 683 975 568 1089 b 314 1111 503 1113 406 1124 b 386 1051 356 1104 372 1082 b 388 938 399 1024 400 989 b 50 403 336 725 192 494 b 515 672 233 450 401 550 b 590 593 546 628 576 593 b 663 626 597 593 628 614 b 679 632 668 628 674 631 b 715 581 704 622 715 606 b 703 526 715 567 711 549 b 168 -78 624 311 400 58 z m 1160 851 b 1235 932 1206 851 1235 885 b 940 1113 1235 1021 1131 1092 b 1081 907 988 1074 1029 1007 b 1160 851 1090 888 1114 851 z "},"コ":{"ha":1389,"x_min":0,"x_max":0,"o":"m 383 53 b 531 106 394 53 468 86 b 781 156 625 135 715 151 b 1144 124 925 165 1049 124 b 1217 201 1188 124 1217 156 b 1179 274 1217 231 1201 257 l 1101 336 b 1165 658 1114 474 1142 606 b 1222 733 1186 707 1222 729 b 954 963 1222 768 1021 963 b 831 899 947 963 918 918 b 375 865 733 876 464 864 b 204 958 269 867 225 890 b 254 718 200 881 218 779 b 424 619 269 692 393 619 b 535 678 435 619 474 646 b 863 835 700 764 829 825 b 896 792 889 843 901 833 b 815 328 885 711 856 528 b 613 310 756 321 685 314 b 331 300 500 303 388 300 b 160 390 225 300 181 336 b 211 157 156 326 175 218 b 383 53 226 131 353 53 z "},"ゴ":{"ha":1389,"x_min":0,"x_max":0,"o":"m 1318 1007 b 1382 1090 1358 1010 1385 1046 b 1051 1206 1374 1176 1251 1238 b 1215 1074 1103 1190 1164 1133 b 1318 1007 1242 1040 1264 1001 z m 1174 869 b 1242 957 1219 874 1244 910 b 932 1111 1233 1046 1124 1107 b 1090 918 982 1076 1029 1014 b 1174 869 1101 900 1128 865 z m 383 53 b 531 106 394 53 468 86 b 781 156 625 135 715 151 b 1144 124 925 165 1049 124 b 1217 201 1188 124 1217 156 b 1179 274 1217 231 1201 257 l 1101 336 b 1165 658 1114 474 1142 606 b 1222 733 1186 707 1222 729 b 954 963 1222 768 1021 963 b 831 899 947 963 918 918 b 375 865 733 876 464 864 b 204 958 269 867 225 890 b 254 718 200 881 218 779 b 424 619 269 692 393 619 b 535 678 435 619 474 646 b 863 835 700 764 829 825 b 896 792 889 843 901 833 b 815 328 885 711 856 528 b 613 310 756 321 685 314 b 331 300 500 303 388 300 b 160 390 225 300 181 336 b 211 157 156 326 175 218 b 383 53 226 131 353 53 z "},"サ":{"ha":1389,"x_min":0,"x_max":0,"o":"m 369 -82 b 961 313 724 -8 918 144 b 982 590 974 361 978 472 b 1099 576 1024 586 1063 582 b 1272 550 1182 564 1243 550 b 1336 619 1310 550 1336 579 b 1301 682 1336 643 1325 664 l 1117 821 b 1028 763 1114 790 1079 775 b 986 756 1019 760 1006 758 b 992 861 988 793 990 829 b 1022 992 997 954 1022 985 b 831 1092 1022 1010 874 1092 b 631 1010 760 1092 669 1044 b 749 906 694 1019 746 989 b 749 731 750 865 750 801 b 589 719 672 724 674 722 b 596 819 590 756 593 789 b 625 936 606 899 625 929 b 457 1035 625 954 500 1035 b 253 954 399 1035 308 1000 b 372 850 333 961 367 933 b 375 711 375 815 375 765 b 213 708 310 710 253 708 b 58 782 107 708 79 738 b 93 585 54 728 57 646 b 265 478 108 558 235 478 b 318 507 272 478 290 492 b 369 531 333 515 350 522 b 360 369 367 469 364 411 b 450 229 351 276 376 229 b 597 453 549 229 608 333 b 589 585 593 497 590 542 b 701 600 633 593 676 599 b 746 601 722 601 735 601 b 722 371 742 511 733 424 b 369 -82 676 161 544 -4 z "},"ザ":{"ha":1389,"x_min":0,"x_max":0,"o":"m 1318 978 b 1389 1056 1360 978 1389 1011 b 1071 1199 1389 1142 1272 1214 b 1222 1053 1119 1179 1176 1118 b 1318 978 1246 1018 1264 978 z m 1163 854 b 1238 935 1208 854 1238 888 b 943 1115 1238 1024 1133 1094 b 1083 910 990 1076 1032 1010 b 1163 854 1093 890 1117 854 z m 346 -82 b 938 313 700 -8 894 144 b 958 590 950 361 954 472 b 1075 576 1000 586 1039 582 b 1249 550 1158 564 1219 550 b 1313 619 1286 550 1313 579 b 1278 682 1313 643 1301 664 l 1093 821 b 1004 763 1090 790 1056 775 b 963 756 996 760 982 758 b 968 861 964 793 967 829 b 999 992 974 954 999 985 b 807 1092 999 1010 850 1092 b 607 1010 736 1092 646 1044 b 725 906 671 1019 722 989 b 725 731 726 865 726 801 b 565 719 649 724 650 722 b 572 819 567 756 569 789 b 601 936 582 899 601 929 b 433 1035 601 954 476 1035 b 229 954 375 1035 285 1000 b 349 850 310 961 343 933 b 351 711 351 815 351 765 b 189 708 286 710 229 708 b 35 782 83 708 56 738 b 69 585 31 728 33 646 b 242 478 85 558 211 478 b 294 507 249 478 267 492 b 346 531 310 515 326 522 b 336 369 343 469 340 411 b 426 229 328 276 353 229 b 574 453 525 229 585 333 b 565 585 569 497 567 542 b 678 600 610 593 653 599 b 722 601 699 601 711 601 b 699 371 718 511 710 424 b 346 -82 653 161 521 -4 z "},"シ":{"ha":1389,"x_min":0,"x_max":0,"o":"m 651 750 b 767 867 719 750 767 797 b 490 1061 767 969 658 1046 b 258 1044 414 1069 332 1064 b 440 925 353 1026 415 954 b 651 750 526 825 558 750 z m 411 -75 b 490 -31 418 -75 449 -49 b 1275 978 956 172 1222 615 b 447 260 1111 674 739 351 b 335 239 403 246 361 238 b 203 329 246 242 214 304 b 238 68 197 258 204 124 b 411 -75 251 44 394 -75 z m 496 424 b 615 553 564 424 615 479 b 382 740 615 657 515 715 b 93 751 294 757 192 760 b 306 579 206 707 257 643 b 496 424 368 496 406 424 z "},"ジ":{"ha":1389,"x_min":0,"x_max":0,"o":"m 1163 947 b 1233 1025 1204 947 1233 981 b 915 1168 1233 1111 1117 1183 b 1067 1022 964 1149 1021 1088 b 1163 947 1090 988 1108 947 z m 1007 824 b 1082 904 1053 824 1082 857 b 788 1085 1082 993 978 1064 b 928 879 835 1046 876 979 b 1007 824 938 860 961 824 z m 651 750 b 767 867 719 750 767 797 b 490 1061 767 969 658 1046 b 258 1044 414 1069 332 1064 b 440 925 353 1026 415 954 b 651 750 526 825 558 750 z m 411 -75 b 490 -31 418 -75 449 -49 b 1275 978 956 172 1222 615 b 447 260 1111 674 739 351 b 335 239 403 246 361 238 b 203 329 246 242 214 304 b 238 68 197 258 204 124 b 411 -75 251 44 394 -75 z m 496 424 b 615 553 564 424 615 479 b 382 740 615 657 515 715 b 93 751 294 757 192 760 b 306 579 206 707 257 643 b 496 424 368 496 406 424 z "},"ス":{"ha":1389,"x_min":0,"x_max":0,"o":"m 39 -54 b 858 346 433 28 647 136 l 876 364 b 1196 -22 1039 236 1011 -22 b 1324 110 1271 -22 1324 33 b 906 396 1324 264 1149 376 b 1138 700 964 461 1053 568 b 1196 776 1168 747 1196 772 b 928 1006 1196 811 994 1006 b 804 931 921 1006 892 950 b 388 896 636 893 464 894 b 231 986 296 897 251 932 b 283 775 226 922 247 836 b 454 658 299 749 424 658 b 572 719 465 658 513 685 b 838 872 654 767 736 822 b 867 836 868 888 881 876 b 639 444 824 710 742 574 b 39 -54 474 238 253 47 z "},"ズ":{"ha":1389,"x_min":0,"x_max":0,"o":"m 1317 1003 b 1382 1086 1358 1006 1385 1042 b 1054 1206 1375 1171 1254 1235 b 1215 1071 1104 1190 1165 1133 b 1317 1003 1242 1038 1263 999 z m 1169 869 b 1239 954 1215 872 1243 907 b 933 1114 1233 1043 1124 1107 b 1088 919 982 1079 1029 1015 b 1169 869 1099 900 1124 865 z m 15 -54 b 835 346 410 28 624 136 l 853 364 b 1172 -22 1015 236 988 -22 b 1300 110 1247 -22 1300 33 b 882 396 1300 264 1125 376 b 1114 700 940 461 1029 568 b 1172 776 1144 747 1172 772 b 904 1006 1172 811 971 1006 b 781 931 897 1006 868 950 b 364 896 613 893 440 894 b 207 986 272 897 228 932 b 260 775 203 922 224 836 b 431 658 275 749 400 658 b 549 719 442 658 489 685 b 814 872 631 767 713 822 b 843 836 844 888 857 876 b 615 444 800 710 718 574 b 15 -54 450 238 229 47 z "},"セ":{"ha":1389,"x_min":0,"x_max":0,"o":"m 886 -19 b 1126 13 974 -19 1061 -12 b 1243 151 1196 36 1243 79 b 1118 263 1243 217 1189 263 b 815 206 1018 263 947 206 b 639 343 704 206 639 258 b 679 639 639 435 657 536 b 1003 778 792 693 911 747 b 1019 747 1024 785 1032 782 b 757 349 974 621 861 449 b 1258 613 975 421 1154 515 b 1319 667 1292 643 1319 658 b 1074 903 1319 706 1121 903 b 933 794 1060 903 1032 826 b 703 742 876 776 793 758 b 736 900 715 796 726 849 b 756 1003 749 965 756 996 b 544 1101 756 1021 588 1101 b 318 1011 472 1101 375 1063 b 450 917 399 1039 447 1000 l 454 704 b 215 681 339 689 243 681 b 64 758 125 681 82 703 b 104 539 57 694 65 603 b 271 419 124 507 238 419 b 392 492 282 419 333 460 l 457 526 b 461 283 458 417 460 322 b 886 -19 465 88 607 -19 z "},"ゼ":{"ha":1389,"x_min":0,"x_max":0,"o":"m 1335 1025 b 1386 1117 1375 1035 1396 1074 b 1044 1185 1367 1200 1238 1244 b 1225 1076 1096 1176 1165 1129 b 1335 1025 1256 1049 1282 1013 z m 858 -19 b 1099 13 946 -19 1033 -12 b 1215 151 1168 36 1215 79 b 1090 263 1215 217 1161 263 b 788 206 990 263 919 206 b 611 343 676 206 611 258 b 651 639 611 435 629 536 b 975 778 764 693 883 747 b 992 747 996 785 1004 782 b 729 349 946 621 833 449 b 1231 613 947 421 1126 515 b 1292 667 1264 643 1292 658 b 1046 903 1292 706 1093 903 b 906 794 1032 903 1004 826 b 675 742 849 776 765 758 b 708 900 688 796 699 849 b 728 1003 721 965 728 996 b 517 1101 728 1021 560 1101 b 290 1011 444 1101 347 1063 b 422 917 371 1039 419 1000 l 426 704 b 188 681 311 689 215 681 b 36 758 97 681 54 703 b 76 539 29 694 38 603 b 243 419 96 507 210 419 b 364 492 254 419 306 460 l 429 526 b 433 283 431 417 432 322 b 858 -19 438 88 579 -19 z m 1211 869 b 1267 965 1256 881 1276 919 b 939 1075 1246 1051 1129 1097 b 1121 906 993 1047 1049 992 b 1211 869 1135 889 1167 860 z "},"ソ":{"ha":1389,"x_min":0,"x_max":0,"o":"m 140 -57 b 888 289 458 17 699 111 b 1208 743 1017 411 1121 563 b 1256 819 1228 783 1256 817 b 1118 999 1256 836 1142 983 b 836 1042 1064 1033 931 1053 b 929 914 883 1031 929 979 b 904 796 929 882 919 840 b 683 411 861 672 782 539 b 140 -57 531 215 329 38 z m 451 522 b 582 674 522 522 582 588 b 150 996 582 806 418 926 b 314 706 261 917 288 796 b 451 522 343 608 353 522 z "},"ゾ":{"ha":1389,"x_min":0,"x_max":0,"o":"m 1328 1021 b 1389 1107 1369 1026 1394 1063 b 1056 1210 1378 1193 1253 1250 b 1224 1083 1106 1197 1169 1143 b 1328 1021 1251 1053 1274 1015 z m 1189 879 b 1253 968 1233 885 1258 922 b 939 1113 1242 1057 1131 1114 b 1103 925 990 1079 1040 1018 b 1189 879 1115 907 1143 874 z m 17 -57 b 764 289 335 17 575 111 b 1085 743 893 411 997 563 b 1132 819 1104 783 1132 817 b 994 999 1132 836 1018 983 b 713 1042 940 1033 807 1053 b 806 914 760 1031 806 979 b 781 796 806 882 796 840 b 560 411 738 672 658 539 b 17 -57 407 215 206 38 z m 328 522 b 458 674 399 522 458 588 b 26 996 458 806 294 926 b 190 706 138 917 164 796 b 328 522 219 608 229 522 z "},"タ":{"ha":1389,"x_min":0,"x_max":0,"o":"m 100 -54 b 849 210 433 10 660 75 b 1247 682 996 315 1118 463 b 1306 758 1275 729 1306 754 b 1026 989 1306 793 1093 989 b 914 919 1022 989 1011 942 b 700 897 857 907 765 897 l 686 897 l 690 910 b 711 954 700 942 711 953 b 576 1096 711 975 596 1089 b 342 1111 531 1113 433 1124 b 414 1051 383 1104 400 1082 b 415 938 426 1024 428 989 b 78 403 364 725 219 494 b 640 796 300 460 528 607 l 660 796 b 724 735 679 769 710 735 b 824 793 736 735 758 753 b 964 874 890 833 944 865 b 982 821 996 888 996 861 b 828 531 946 715 893 619 b 508 617 744 569 629 601 b 713 388 549 592 631 499 l 683 357 b 100 -54 525 189 325 47 z "},"ダ":{"ha":1389,"x_min":0,"x_max":0,"o":"m 1326 1018 b 1389 1103 1368 1022 1393 1058 b 1058 1213 1381 1189 1257 1249 b 1224 1083 1108 1197 1171 1143 b 1326 1018 1251 1051 1272 1013 z m 26 -54 b 775 210 360 10 586 75 b 1174 682 922 315 1044 463 b 1232 758 1201 729 1232 754 b 953 989 1232 793 1019 989 b 840 919 949 989 938 942 b 626 897 783 907 692 897 l 613 897 l 617 910 b 638 954 626 942 638 953 b 503 1096 638 975 522 1089 b 268 1111 457 1113 360 1124 b 340 1051 310 1104 326 1082 b 342 938 353 1024 354 989 b 4 403 290 725 146 494 b 567 796 226 460 454 607 l 586 796 b 650 735 606 769 636 735 b 750 793 663 735 685 753 b 890 874 817 833 871 865 b 908 821 922 888 922 861 b 754 531 872 715 819 619 b 435 617 671 569 556 601 b 639 388 475 592 557 499 l 610 357 b 26 -54 451 189 251 47 z m 1185 879 b 1251 967 1231 883 1256 919 b 939 1115 1242 1056 1131 1115 b 1100 926 990 1082 1039 1019 b 1185 879 1113 908 1139 874 z "},"チ":{"ha":1389,"x_min":0,"x_max":0,"o":"m 210 -86 b 818 313 506 -49 771 32 b 836 504 828 365 831 422 b 1085 486 915 503 999 493 b 1249 469 1168 479 1229 469 b 1322 542 1292 469 1322 496 b 1281 615 1322 575 1304 597 l 1092 761 b 1003 708 1089 739 1054 721 b 851 685 974 701 921 693 l 854 704 b 878 767 857 735 878 760 b 697 825 878 778 779 810 l 697 839 b 1025 908 817 856 939 882 b 1071 931 1061 919 1071 926 b 1001 1101 1071 953 1014 1089 b 750 1169 971 1132 868 1160 b 806 1108 783 1154 806 1129 b 722 1032 806 1085 778 1060 b 83 824 578 954 279 868 b 496 818 229 801 368 807 b 596 726 564 824 593 790 b 597 661 597 704 597 683 b 251 650 463 651 333 647 b 81 736 146 653 101 694 b 132 515 76 685 96 576 b 304 400 147 489 274 400 b 422 439 315 400 361 419 b 586 483 476 457 531 472 b 569 371 582 446 576 408 b 210 -86 526 144 394 -25 z "},"ヂ":{"ha":1389,"x_min":0,"x_max":0,"o":"m 1047 761 b 958 708 1044 739 1010 721 b 807 685 929 701 876 693 l 810 704 b 833 767 813 735 833 760 b 653 825 833 778 735 810 l 653 839 b 981 908 772 856 894 882 b 999 914 988 911 994 913 b 1083 771 1026 878 1053 831 b 1163 715 1093 751 1117 715 b 1238 796 1208 715 1238 749 b 1017 965 1238 872 1160 936 b 957 1101 1000 1013 967 1092 b 706 1169 926 1132 824 1160 b 761 1108 739 1154 761 1129 b 678 1032 761 1085 733 1060 b 39 824 533 954 235 868 b 451 818 185 801 324 807 b 551 726 519 824 549 790 b 553 661 553 704 553 683 b 207 650 418 651 289 647 b 36 736 101 653 57 694 b 88 515 32 685 51 576 b 260 400 103 489 229 400 b 378 439 271 400 317 419 b 542 483 432 457 486 472 b 525 371 538 446 532 408 b 165 -86 482 144 350 -25 b 774 313 461 -49 726 32 b 792 504 783 365 786 422 b 1040 486 871 503 954 493 b 1204 469 1124 479 1185 469 b 1278 542 1247 469 1278 496 b 1236 615 1278 575 1260 597 z m 1071 1060 b 1222 914 1119 1040 1176 979 b 1318 839 1246 879 1264 839 b 1389 917 1360 839 1389 872 b 1071 1060 1389 1003 1272 1075 z "},"ッ":{"ha":1389,"x_min":0,"x_max":0,"o":"m 265 -61 b 860 207 513 -22 711 68 b 1110 558 958 300 1040 419 b 1149 619 1126 592 1149 618 b 1032 768 1149 632 1057 751 b 779 810 989 796 874 814 b 876 699 842 792 876 749 b 856 604 876 674 868 640 b 688 310 822 510 761 407 b 265 -61 569 153 410 13 z m 663 444 b 763 551 717 444 763 493 b 419 806 763 640 703 757 b 549 594 499 756 529 657 b 663 444 575 511 579 444 z m 426 346 b 526 454 481 346 526 394 b 211 721 526 546 426 660 b 313 497 265 654 294 554 b 426 346 339 413 344 346 z "},"ツ":{"ha":1389,"x_min":0,"x_max":0,"o":"m 661 596 b 781 726 726 596 781 654 b 361 1047 781 843 690 989 b 531 775 456 988 503 865 b 661 596 561 678 567 596 z m 158 -57 b 906 289 476 11 717 111 b 1226 743 1035 411 1139 563 b 1274 819 1246 783 1274 817 b 1136 999 1274 836 1160 985 b 853 1036 1076 1035 965 1047 b 944 914 918 1021 944 979 b 922 796 944 878 936 838 b 701 411 879 672 800 539 b 158 -57 550 214 347 38 z m 361 471 b 481 601 426 471 481 529 b 89 940 481 718 349 864 b 225 650 156 863 197 740 b 361 471 256 553 263 471 z "},"ヅ":{"ha":1389,"x_min":0,"x_max":0,"o":"m 1335 1033 b 1388 1124 1375 1042 1397 1081 b 1047 1199 1369 1208 1240 1254 b 1225 1088 1099 1189 1167 1142 b 1335 1033 1256 1058 1282 1022 z m 1208 881 b 1265 975 1253 890 1275 928 b 939 1090 1246 1061 1129 1110 b 1119 918 993 1061 1049 1006 b 1208 881 1133 901 1164 871 z m 572 554 b 692 685 638 554 692 613 b 272 1006 692 801 601 947 b 442 733 367 946 414 824 b 572 554 472 636 478 554 z m 69 -99 b 817 247 388 -31 628 69 b 1138 701 946 369 1050 521 b 1185 778 1157 742 1185 775 b 1047 957 1185 794 1071 943 b 764 994 988 993 876 1006 b 856 872 829 979 856 938 b 833 754 856 836 847 796 b 613 369 790 631 711 497 b 69 -99 461 172 258 -4 z m 272 429 b 392 560 338 429 392 488 b 0 899 392 676 260 822 b 136 608 67 821 108 699 b 272 429 167 511 174 429 z "},"テ":{"ha":1389,"x_min":0,"x_max":0,"o":"m 401 814 b 503 849 408 814 438 828 b 683 894 574 871 621 886 b 858 894 736 901 792 899 b 1040 881 972 888 996 881 b 1108 940 1081 881 1108 904 b 1069 1004 1108 968 1096 986 l 893 1122 b 836 1079 892 1108 869 1092 b 633 1032 794 1064 710 1042 b 353 1015 528 1018 413 1015 b 185 1094 247 1015 206 1049 b 233 897 181 1039 197 958 b 401 814 249 871 371 814 z m 200 -99 b 928 364 579 -28 849 143 b 949 408 939 396 949 407 b 807 529 949 429 826 522 b 672 554 779 539 728 550 l 672 568 b 1085 556 785 585 947 572 b 1249 539 1168 546 1229 539 b 1322 614 1292 539 1322 568 b 1281 683 1322 643 1311 660 l 1092 828 b 1003 775 1089 806 1054 788 b 704 733 964 765 831 744 b 251 717 535 718 356 717 b 83 800 146 717 104 746 b 132 588 79 736 96 649 b 304 469 147 561 274 469 b 422 508 315 469 361 489 b 576 551 474 525 525 539 b 651 465 626 539 644 504 b 647 396 654 447 653 419 b 200 -99 608 233 433 40 z "},"デ":{"ha":1389,"x_min":0,"x_max":0,"o":"m 1318 985 b 1389 1063 1360 985 1389 1018 b 1071 1206 1389 1149 1272 1221 b 1222 1060 1119 1186 1178 1125 b 1318 985 1246 1025 1264 985 z m 401 814 b 503 849 408 814 438 829 b 674 885 565 867 619 878 b 817 889 718 889 764 890 b 971 881 903 886 926 881 b 1039 940 1011 881 1039 904 b 1000 1004 1039 968 1026 986 l 824 1122 b 767 1079 822 1108 800 1093 b 578 1035 725 1063 654 1047 b 353 1015 472 1018 413 1015 b 185 1094 247 1015 206 1049 b 233 897 181 1039 197 958 b 401 814 249 871 371 814 z m 1163 861 b 1238 942 1208 861 1238 894 b 943 1122 1238 1031 1133 1101 b 1083 917 990 1083 1033 1017 b 1163 861 1093 897 1117 861 z m 200 -99 b 925 364 518 -40 810 90 b 949 408 939 396 949 407 b 807 529 949 429 826 522 b 672 553 779 539 728 547 l 672 565 b 1085 556 781 582 951 571 b 1249 539 1168 546 1229 539 b 1322 614 1292 539 1322 568 b 1281 683 1322 643 1311 660 l 1092 828 b 1003 775 1089 806 1054 788 b 704 738 964 765 831 749 b 251 717 535 722 356 717 b 81 821 146 717 101 767 b 132 588 76 757 96 649 b 304 469 147 561 274 469 b 422 508 315 469 361 489 b 579 550 475 525 526 539 b 651 465 626 538 646 504 b 647 396 654 447 653 419 b 200 -99 603 210 394 17 z "},"ト":{"ha":1389,"x_min":0,"x_max":0,"o":"m 661 -62 b 735 44 722 -62 738 -8 b 696 493 731 122 699 294 b 699 601 696 525 697 563 b 1099 206 913 532 896 206 b 1217 332 1167 206 1217 260 b 701 635 1217 490 1007 614 b 728 853 707 711 717 790 b 750 969 742 932 750 963 b 547 1068 750 988 590 1068 b 321 978 475 1068 378 1029 b 453 883 401 1006 442 967 b 433 189 474 728 465 443 b 661 -62 422 96 519 -62 z "},"ド":{"ha":1389,"x_min":0,"x_max":0,"o":"m 661 -62 b 735 44 722 -62 738 -8 b 696 493 731 122 699 294 b 699 601 696 525 697 563 b 1099 206 913 532 896 206 b 1217 332 1167 206 1217 260 b 701 635 1217 490 1007 614 b 728 853 707 711 717 790 b 750 969 742 932 750 963 b 547 1068 750 988 590 1068 b 321 978 475 1068 378 1029 b 453 883 401 1006 442 967 b 433 189 474 728 465 443 b 661 -62 422 96 519 -62 z m 1178 778 b 1249 856 1219 778 1249 811 b 931 999 1249 942 1132 1014 b 1082 853 979 979 1036 918 b 1178 778 1106 818 1124 778 z m 1022 654 b 1097 735 1068 654 1097 688 b 803 915 1097 824 993 894 b 943 710 850 876 892 810 b 1022 654 953 690 976 654 z "},"ナ":{"ha":1389,"x_min":0,"x_max":0,"o":"m 224 -86 b 833 319 601 -39 815 89 b 826 589 839 393 824 471 l 826 604 b 1085 586 910 604 994 597 b 1249 569 1168 576 1229 569 b 1322 642 1293 569 1322 597 b 1288 707 1322 669 1311 689 l 1092 858 b 1003 806 1089 836 1054 818 b 838 782 978 800 914 790 b 854 899 843 825 849 865 b 876 1007 865 964 876 1000 b 674 1106 876 1025 717 1106 b 447 1015 601 1106 504 1067 b 579 921 528 1043 571 1004 b 586 758 583 888 586 829 b 251 747 457 750 332 747 b 81 831 146 747 101 792 b 132 613 76 782 96 674 b 304 496 147 586 274 496 b 422 543 315 496 361 524 b 586 585 476 560 531 574 b 568 329 583 499 578 410 b 224 -86 544 132 417 -22 z "},"ニ":{"ha":1389,"x_min":0,"x_max":0,"o":"m 424 590 b 525 635 431 590 460 610 b 718 683 596 661 656 675 b 883 682 761 689 817 688 b 1078 664 997 672 1029 664 b 1143 732 1117 664 1146 693 b 1100 801 1142 757 1132 776 l 918 940 b 861 897 917 926 894 910 b 668 856 819 882 735 865 b 375 831 544 838 422 831 b 204 901 269 831 225 864 b 256 688 200 854 219 749 b 424 590 271 661 393 590 z m 304 39 b 422 76 315 39 361 57 b 725 142 522 108 622 135 b 1085 124 839 150 957 139 b 1249 108 1168 114 1229 108 b 1322 179 1292 108 1322 138 b 1288 250 1322 211 1310 229 l 1099 421 b 1010 372 1096 399 1061 385 b 704 324 932 353 815 335 b 251 304 535 307 356 304 b 81 390 146 304 101 336 b 132 157 76 326 96 218 b 304 39 147 131 274 39 z "},"ヌ":{"ha":1389,"x_min":0,"x_max":0,"o":"m 94 -54 b 799 246 428 15 621 96 l 819 264 b 1099 31 925 138 992 31 b 1206 146 1163 31 1206 82 b 981 435 1206 249 1118 351 b 1163 704 1042 513 1100 604 b 1224 776 1192 751 1224 772 b 956 1006 1224 811 1022 1006 b 832 931 949 1006 919 950 b 426 896 664 893 503 894 b 256 986 321 897 276 932 b 307 782 251 922 271 843 b 479 675 322 756 449 675 b 597 739 490 675 538 703 b 878 878 678 788 804 854 b 897 828 910 888 911 868 b 743 540 871 751 808 639 b 260 622 597 589 429 619 b 660 428 436 581 564 507 b 638 400 653 418 644 408 b 94 -54 481 204 281 35 z "},"ネ":{"ha":1389,"x_min":0,"x_max":0,"o":"m 750 863 b 860 971 814 863 860 907 b 786 1094 860 1026 832 1067 b 393 1161 696 1150 539 1161 b 581 975 496 1099 529 1040 b 750 863 632 910 672 863 z m 797 -114 b 876 -7 864 -114 879 -60 b 849 417 872 64 853 254 b 1079 622 932 475 1010 543 b 1158 696 1115 663 1158 692 b 917 906 1158 725 974 906 b 793 831 910 906 881 849 b 438 801 667 804 511 800 b 264 892 329 803 285 838 b 315 688 260 828 279 749 b 488 589 331 661 457 589 b 632 678 499 589 569 635 b 825 796 704 726 782 775 b 846 769 856 811 869 804 b 564 456 779 669 681 558 b 39 133 401 313 217 200 b 624 286 224 147 443 204 b 622 275 624 282 624 279 b 583 138 618 261 583 172 b 797 -114 583 43 678 -114 z m 1199 108 b 1308 222 1264 108 1308 156 b 876 417 1308 374 1100 426 b 1199 108 1031 285 1040 108 z "},"ノ":{"ha":1389,"x_min":0,"x_max":0,"o":"m 119 -57 b 867 289 438 13 678 111 b 1188 743 996 411 1100 563 b 1235 819 1207 783 1235 817 b 1097 999 1235 836 1121 983 b 785 1054 1043 1033 910 1057 b 908 914 863 1031 908 979 b 883 796 908 882 899 840 b 663 411 840 672 761 539 b 119 -57 511 214 308 38 z "},"ハ":{"ha":1389,"x_min":0,"x_max":0,"o":"m 1181 167 b 1328 340 1268 167 1328 239 b 710 890 1328 569 1075 793 b 999 394 901 771 949 574 b 1181 167 1022 310 1043 167 z m 8 67 b 697 571 294 126 568 331 b 739 632 714 601 739 629 b 589 825 739 654 638 800 b 328 874 569 835 464 871 b 406 626 422 833 440 756 b 8 67 342 390 163 138 z "},"バ":{"ha":1389,"x_min":0,"x_max":0,"o":"m 1315 901 b 1372 989 1357 908 1379 946 b 1036 1081 1360 1075 1233 1128 b 1208 961 1088 1069 1153 1018 b 1315 901 1238 931 1261 893 z m 1181 756 b 1242 846 1226 763 1250 800 b 924 979 1228 935 1114 988 b 1094 797 976 947 1028 888 b 1181 756 1107 779 1136 747 z m 1181 167 b 1328 340 1268 167 1328 239 b 710 890 1328 569 1075 793 b 999 394 901 771 949 574 b 1181 167 1022 310 1043 167 z m 8 67 b 697 571 294 126 568 331 b 739 632 714 601 739 629 b 589 825 739 654 638 800 b 328 874 569 835 464 871 b 406 626 422 833 440 756 b 8 67 342 390 163 138 z "},"パ":{"ha":1389,"x_min":0,"x_max":0,"o":"m 1153 779 b 1319 946 1243 779 1319 856 b 1153 1113 1319 1036 1243 1113 b 986 946 1063 1113 986 1036 b 1153 779 986 856 1063 779 z m 1153 851 b 1058 946 1101 851 1058 893 b 1153 1040 1058 999 1101 1040 b 1247 946 1204 1040 1247 999 b 1153 851 1247 893 1204 851 z m 1181 167 b 1328 340 1268 167 1328 239 b 710 890 1328 569 1075 793 b 999 394 901 771 949 574 b 1181 167 1022 310 1043 167 z m 8 67 b 697 571 294 126 568 331 b 739 632 714 601 739 629 b 589 825 739 654 638 800 b 328 874 569 835 464 871 b 406 626 422 833 440 756 b 8 67 342 390 163 138 z "},"ヒ":{"ha":1389,"x_min":0,"x_max":0,"o":"m 772 -47 b 1243 186 1050 -47 1243 47 b 1119 310 1243 264 1193 310 b 699 175 1014 310 889 175 b 517 324 585 175 518 228 b 538 519 517 372 525 442 b 1060 600 764 535 943 569 b 1161 639 1135 619 1161 632 b 1093 867 1161 667 1110 850 b 844 932 1065 894 944 926 b 911 863 893 911 911 889 b 826 756 911 839 900 814 b 544 558 726 676 619 603 b 601 843 563 657 585 761 b 636 983 625 956 636 974 b 429 1065 636 999 489 1065 b 200 985 382 1065 279 1044 b 317 851 301 990 311 963 b 332 303 324 665 328 417 b 772 -47 340 75 494 -47 z "},"ビ":{"ha":1389,"x_min":0,"x_max":0,"o":"m 1318 919 b 1389 997 1360 919 1389 953 b 1071 1140 1389 1083 1272 1156 b 1222 994 1119 1121 1176 1060 b 1318 919 1246 960 1264 919 z m 689 -47 b 1160 186 967 -47 1160 47 b 1036 310 1160 264 1110 310 b 615 175 931 310 806 175 b 433 324 501 175 435 228 b 454 519 433 372 442 442 b 976 600 681 535 860 569 b 1078 639 1051 619 1078 632 b 1010 867 1078 667 1026 850 b 761 932 982 894 861 926 b 828 863 810 911 828 889 b 743 756 828 839 817 814 b 461 558 643 676 536 603 b 518 843 479 657 501 761 b 553 983 542 956 553 974 b 346 1065 553 999 406 1065 b 117 985 299 1065 196 1044 b 233 851 218 990 228 963 b 249 303 240 665 244 417 b 689 -47 257 75 411 -47 z m 1163 796 b 1238 876 1208 796 1238 829 b 943 1057 1238 965 1133 1036 b 1083 851 990 1018 1032 951 b 1163 796 1093 832 1117 796 z "},"ピ":{"ha":1389,"x_min":0,"x_max":0,"o":"m 1211 797 b 1378 964 1301 797 1378 874 b 1211 1131 1378 1054 1301 1131 b 1044 964 1121 1131 1044 1054 b 1211 797 1044 874 1121 797 z m 731 -47 b 1201 186 1008 -47 1201 47 b 1078 310 1201 264 1151 310 b 657 175 972 310 847 175 b 475 324 543 175 476 228 b 496 519 475 372 483 442 b 1018 600 722 535 901 569 b 1119 639 1093 619 1119 632 b 1051 867 1119 667 1068 850 b 803 932 1024 894 903 926 b 869 863 851 911 869 889 b 785 756 869 839 858 814 b 503 558 685 676 578 603 b 560 843 521 657 543 761 b 594 983 583 956 594 974 b 388 1065 594 999 447 1065 b 158 985 340 1065 238 1044 b 275 851 260 990 269 963 b 290 303 282 665 286 417 b 731 -47 299 75 453 -47 z m 1211 869 b 1117 964 1160 869 1117 911 b 1211 1058 1117 1017 1160 1058 b 1306 964 1263 1058 1306 1017 b 1211 869 1306 911 1263 869 z "},"フ":{"ha":1389,"x_min":0,"x_max":0,"o":"m 136 -54 b 846 247 454 6 671 101 b 1207 700 985 364 1094 511 b 1265 776 1235 747 1265 772 b 997 1006 1265 811 1064 1006 b 874 931 990 1006 961 950 b 357 897 706 894 433 896 b 186 986 251 899 207 932 b 238 760 182 922 201 821 b 410 640 253 733 379 640 b 528 696 421 640 467 667 b 903 864 608 735 813 835 b 935 836 932 874 944 867 b 672 392 890 699 792 539 b 136 -54 518 201 324 35 z "},"ブ":{"ha":1389,"x_min":0,"x_max":0,"o":"m 1329 1025 b 1386 1113 1371 1032 1393 1069 b 1050 1204 1374 1199 1247 1251 b 1222 1085 1101 1193 1167 1142 b 1329 1025 1251 1054 1275 1017 z m 1194 879 b 1256 969 1240 886 1264 924 b 938 1103 1242 1058 1128 1111 b 1108 921 990 1071 1042 1011 b 1194 879 1121 903 1150 871 z m 39 -54 b 749 247 357 6 574 101 b 1110 700 888 364 997 511 b 1168 776 1138 747 1168 772 b 900 1006 1168 811 967 1006 b 776 931 893 1006 864 950 b 260 897 608 894 336 896 b 89 986 154 899 110 932 b 140 760 85 922 104 821 b 313 640 156 733 282 640 b 431 696 324 640 369 667 b 806 864 511 735 715 835 b 838 836 835 874 847 867 b 575 392 793 699 694 539 b 39 -54 421 201 226 35 z "}}}
